G04*
G04 #@! TF.GenerationSoftware,Altium Limited,Altium Designer,21.3.2 (30)*
G04*
G04 Layer_Physical_Order=2*
G04 Layer_Color=16711680*
%FSTAX24Y24*%
%MOIN*%
G70*
G04*
G04 #@! TF.SameCoordinates,BF0EC633-498B-4F46-9C25-626D02BDF3A5*
G04*
G04*
G04 #@! TF.FilePolarity,Positive*
G04*
G01*
G75*
%ADD11C,0.0100*%
%ADD18C,0.0118*%
%ADD23R,0.0354X0.0236*%
%ADD24R,0.0236X0.0354*%
%ADD28R,0.0394X0.0354*%
%ADD29R,0.0394X0.0315*%
%ADD31R,0.0551X0.0433*%
%ADD37R,0.0283X0.0701*%
%ADD41R,0.0472X0.0866*%
%ADD42R,0.2283X0.2520*%
%ADD45C,0.0236*%
%ADD77C,0.0157*%
%ADD78C,0.0110*%
%ADD79C,0.0197*%
%ADD80C,0.0138*%
%ADD81C,0.0150*%
%ADD83C,0.1181*%
%ADD84O,0.0850X0.0650*%
%ADD85R,0.0850X0.0650*%
%ADD86C,0.1142*%
%ADD87C,0.0256*%
%ADD88O,0.0394X0.0787*%
%ADD89O,0.0413X0.0827*%
%ADD90C,0.0236*%
%ADD91R,0.0433X0.0315*%
%ADD92R,0.1378X0.1024*%
%ADD93R,0.0346X0.0402*%
%ADD94R,0.0600X0.0650*%
%ADD95R,0.0350X0.0800*%
%ADD96O,0.0350X0.0800*%
%ADD97R,0.0591X0.1400*%
%ADD98O,0.0591X0.1400*%
%ADD99R,0.0550X0.0453*%
%ADD100O,0.0236X0.0709*%
%ADD101R,0.0433X0.0551*%
%ADD102R,0.0591X0.1063*%
%ADD103C,0.0709*%
%ADD104C,0.0630*%
%ADD105C,0.0276*%
G36*
X037458Y042688D02*
Y042686D01*
X046142D01*
Y041714D01*
X045867Y041439D01*
X037458D01*
Y04155D01*
X03735D01*
X03712Y04132D01*
X03712Y035271D01*
X037114Y035277D01*
Y034371D01*
X037405Y03408D01*
X044739D01*
X045284Y033535D01*
X044849Y0331D01*
X03695D01*
X0363Y03375D01*
Y036091D01*
Y04187D01*
X03712Y04269D01*
X037458Y042688D01*
D02*
G37*
G36*
X0444Y0404D02*
Y040105D01*
X044339Y040043D01*
Y039177D01*
X043866D01*
Y040043D01*
X0438Y040109D01*
Y0404D01*
X04385Y04045D01*
X04435D01*
X0444Y0404D01*
D02*
G37*
G36*
X0412D02*
Y040105D01*
X041139Y040043D01*
Y039177D01*
X040666D01*
Y040043D01*
X0406Y040109D01*
Y0404D01*
X04065Y04045D01*
X04115D01*
X0412Y0404D01*
D02*
G37*
G36*
X038D02*
Y040105D01*
X037939Y040043D01*
Y039177D01*
X037466D01*
Y040043D01*
X0374Y040109D01*
Y0404D01*
X03745Y04045D01*
X03795D01*
X038Y0404D01*
D02*
G37*
G36*
X04659Y03999D02*
Y03905D01*
Y03856D01*
X04608Y03805D01*
X04005D01*
X03989Y03821D01*
Y03889D01*
X039887D01*
Y039977D01*
X039953Y040043D01*
X040187D01*
X04023Y04D01*
Y039D01*
X04043Y0388D01*
X04296D01*
X04308Y03892D01*
Y03997D01*
X043153Y040043D01*
X043387D01*
X04345Y03998D01*
Y03893D01*
X04358Y0388D01*
X04606D01*
X04626Y039D01*
Y04D01*
X046303Y040043D01*
X046537D01*
X04659Y03999D01*
D02*
G37*
G36*
X038304Y038743D02*
Y03725D01*
X038654Y0369D01*
X044824D01*
X045287Y036438D01*
X044799Y03595D01*
X038105Y03595D01*
X0376Y036455D01*
Y0386D01*
X037831Y038832D01*
X038216D01*
X038304Y038743D01*
D02*
G37*
G36*
X037242Y025311D02*
X03765Y024903D01*
Y02385D01*
X03805Y02345D01*
X037Y02345D01*
X0374Y02385D01*
Y02487D01*
X036958Y025311D01*
Y026012D01*
X037242D01*
Y025311D01*
D02*
G37*
G36*
X043645Y023292D02*
X043704Y023253D01*
X043773Y023239D01*
X044187D01*
X044206Y02322D01*
X044293Y023184D01*
X044387D01*
X044464Y023216D01*
X044514Y023194D01*
Y023183D01*
X04455Y023096D01*
X044616Y02303D01*
X044659Y023012D01*
Y019933D01*
X044624Y019847D01*
Y019753D01*
X044659Y019667D01*
Y019073D01*
X044217Y018631D01*
X04344D01*
X043427Y018648D01*
X043437Y018707D01*
X043481Y018751D01*
X0435Y018795D01*
X043505Y018809D01*
X043555Y018821D01*
X043576Y018812D01*
X043651Y018802D01*
X043725Y018812D01*
X043791Y018839D01*
X043595Y019034D01*
X043706Y019146D01*
X043902Y01895D01*
X043929Y019016D01*
X043939Y01909D01*
Y019504D01*
X043929Y019578D01*
X043902Y019643D01*
X043706Y019448D01*
X043651Y019504D01*
X043595Y019448D01*
X0434Y019643D01*
X043373Y019578D01*
X043363Y019504D01*
Y01909D01*
X043365Y019072D01*
X043328Y019026D01*
X043327Y019026D01*
X043318Y019031D01*
X043284Y019072D01*
Y019149D01*
X043246Y019239D01*
X043177Y019309D01*
X043087Y019346D01*
X042989D01*
X042898Y019309D01*
X042829Y019239D01*
X042792Y019149D01*
X042744Y019155D01*
Y019781D01*
X042835D01*
Y020419D01*
X042252D01*
Y019781D01*
X042343D01*
Y018778D01*
X042356Y018711D01*
X04233Y018661D01*
X041922D01*
X041907Y018711D01*
X041934Y018729D01*
X041969Y018764D01*
X042047D01*
X042134Y0188D01*
X0422Y018866D01*
X042236Y018953D01*
Y019047D01*
X0422Y019134D01*
X042134Y0192D01*
X042047Y019236D01*
X041953D01*
X041866Y0192D01*
X0418Y019134D01*
X041764Y019047D01*
Y019043D01*
X041742Y019021D01*
X041563D01*
X041534Y01905D01*
X041447Y019086D01*
X041353D01*
X041266Y01905D01*
X0412Y018984D01*
X041164Y018897D01*
Y018847D01*
X041147Y018836D01*
X041053D01*
X040966Y0188D01*
X0409Y018734D01*
X040896Y018726D01*
X040644D01*
X040614Y018776D01*
X040627Y018809D01*
Y018835D01*
X040677Y018869D01*
X040713Y018854D01*
X040811D01*
X040902Y018891D01*
X040971Y018961D01*
X041008Y019051D01*
Y019149D01*
X040971Y019239D01*
X040902Y019309D01*
X040811Y019346D01*
X040713D01*
X040623Y019309D01*
X040554Y019239D01*
X040516Y019149D01*
Y019073D01*
X04048Y019031D01*
X040473Y019027D01*
X040435Y019072D01*
X040437Y01909D01*
Y019504D01*
X040427Y019578D01*
X0404Y019643D01*
X040205Y019448D01*
X040149Y019504D01*
X040094Y019448D01*
X039898Y019643D01*
X039871Y019578D01*
X039861Y019504D01*
Y01909D01*
X039871Y019016D01*
X039887Y018977D01*
X039854Y018927D01*
X039388D01*
X039311Y018912D01*
X039246Y018869D01*
X039204Y018826D01*
X039183D01*
X039109Y018796D01*
X037868D01*
X037864Y0188D01*
X037777Y018836D01*
X037683D01*
X037596Y0188D01*
X03753Y018734D01*
X037494Y018647D01*
Y018553D01*
X03753Y018466D01*
X037596Y0184D01*
X037683Y018364D01*
X037777D01*
X037851Y018394D01*
X039092D01*
X039096Y01839D01*
X039183Y018354D01*
X039277D01*
X039364Y01839D01*
X03943Y018456D01*
X039451Y018506D01*
X039471Y018526D01*
X03982D01*
X039963Y018383D01*
X040028Y01834D01*
X040105Y018324D01*
X041004D01*
X041081Y01834D01*
X041087Y018344D01*
X041095Y018335D01*
X041157Y018294D01*
X04123Y018279D01*
X04123Y018279D01*
X04247D01*
X042543Y018294D01*
X042605Y018335D01*
X042639Y01837D01*
X042653Y018364D01*
X042747D01*
X042833Y018399D01*
X043059D01*
X043171Y018288D01*
X043236Y018245D01*
X043313Y018229D01*
X0443D01*
X044377Y018245D01*
X044442Y018288D01*
X045002Y018848D01*
X045045Y018913D01*
X045061Y01899D01*
Y019667D01*
X045096Y019753D01*
Y019847D01*
X045061Y019933D01*
Y022794D01*
X045107Y022813D01*
X045235Y022685D01*
X045235Y022685D01*
X045292Y022647D01*
X04536Y022633D01*
X04536Y022633D01*
X04616D01*
X04616Y022633D01*
X046228Y022647D01*
X046285Y022685D01*
X046449Y022849D01*
X046491Y022821D01*
X046468Y022766D01*
X046453Y02265D01*
X046468Y022534D01*
X046513Y022427D01*
X046584Y022334D01*
X046677Y022263D01*
X046784Y022218D01*
X0469Y022203D01*
X0471D01*
X047216Y022218D01*
X047323Y022263D01*
X047416Y022334D01*
X047487Y022427D01*
X047495Y022446D01*
X047545Y022436D01*
X047545Y021864D01*
X047495Y021854D01*
X047487Y021873D01*
X047416Y021966D01*
X047323Y022037D01*
X047216Y022082D01*
X0471Y022097D01*
X0469D01*
X046784Y022082D01*
X046677Y022037D01*
X046584Y021966D01*
X046513Y021873D01*
X046468Y021766D01*
X046453Y02165D01*
X046468Y021534D01*
X046513Y021427D01*
X046584Y021334D01*
X046677Y021263D01*
X046784Y021218D01*
X0469Y021203D01*
X0471D01*
X047216Y021218D01*
X047323Y021263D01*
X047416Y021334D01*
X047487Y021427D01*
X047495Y021446D01*
X047545Y021436D01*
Y020864D01*
X047495Y020854D01*
X047487Y020873D01*
X047416Y020966D01*
X047323Y021037D01*
X047216Y021082D01*
X0471Y021097D01*
X0469D01*
X046784Y021082D01*
X046677Y021037D01*
X046584Y020966D01*
X046513Y020873D01*
X046468Y020766D01*
X046453Y02065D01*
X046468Y020534D01*
X046513Y020427D01*
X046584Y020334D01*
X046677Y020263D01*
X046784Y020218D01*
X0469Y020203D01*
X0471D01*
X047216Y020218D01*
X047323Y020263D01*
X047416Y020334D01*
X047487Y020427D01*
X047495Y020446D01*
X047545Y020436D01*
Y019747D01*
X047495Y019743D01*
X047493Y019755D01*
X047453Y019854D01*
X047436Y019875D01*
X047211Y01965D01*
X047436Y019425D01*
X047453Y019446D01*
X047493Y019545D01*
X047495Y019557D01*
X047545Y019553D01*
X047545Y018146D01*
X047495Y018136D01*
X047484Y018164D01*
X047406Y01828D01*
X047307Y018378D01*
X047191Y018456D01*
X047062Y018509D01*
X046925Y018537D01*
X046786D01*
X046649Y018509D01*
X04652Y018456D01*
X046404Y018378D01*
X046305Y01828D01*
X046227Y018164D01*
X046174Y018035D01*
X046147Y017898D01*
Y017758D01*
X046174Y017621D01*
X046227Y017492D01*
X046305Y017376D01*
X046404Y017277D01*
X04652Y0172D01*
X046561Y017183D01*
X046551Y017133D01*
X043714D01*
X043711Y017183D01*
X043733Y017186D01*
X043793Y017211D01*
X043661Y017343D01*
X043528Y017211D01*
X043589Y017186D01*
X04361Y017183D01*
X043607Y017133D01*
X040193Y017133D01*
X04019Y017183D01*
X040211Y017186D01*
X040272Y017211D01*
X040139Y017343D01*
X040007Y017211D01*
X040067Y017186D01*
X040089Y017183D01*
X040086Y017133D01*
X037265D01*
X037255Y017183D01*
X037283Y017194D01*
X037399Y017272D01*
X037497Y017371D01*
X037575Y017487D01*
X037628Y017616D01*
X037656Y017753D01*
Y017892D01*
X037628Y018029D01*
X037575Y018158D01*
X037497Y018274D01*
X037399Y018373D01*
X037283Y01845D01*
X037154Y018504D01*
X037017Y018531D01*
X036877D01*
X03674Y018504D01*
X036611Y01845D01*
X036495Y018373D01*
X036396Y018274D01*
X036319Y018158D01*
X036302Y018117D01*
X036252Y018127D01*
X036252Y019579D01*
X039249D01*
Y020129D01*
X039857D01*
Y019832D01*
X040073D01*
X040077Y019782D01*
X040075Y019782D01*
X040009Y019755D01*
X040149Y019615D01*
X040289Y019755D01*
X040224Y019782D01*
X040222Y019782D01*
X040225Y019832D01*
X040443D01*
Y020084D01*
X040493Y020095D01*
X040644Y019944D01*
X040716Y019896D01*
X0408Y019879D01*
X040965D01*
Y019781D01*
X041548D01*
Y020419D01*
X040965D01*
Y020321D01*
X040891D01*
X040733Y020479D01*
X040661Y020527D01*
X040577Y020544D01*
X040443D01*
Y020868D01*
X039857D01*
Y020571D01*
X039431D01*
Y021765D01*
X039481Y021785D01*
X039506Y02176D01*
X039593Y021724D01*
X039687D01*
X039774Y02176D01*
X039802Y021788D01*
X040168D01*
X040186Y02177D01*
X040273Y021734D01*
X040367D01*
X040454Y02177D01*
X04052Y021836D01*
X040556Y021923D01*
Y022017D01*
X04052Y022104D01*
X040454Y02217D01*
X040395Y022195D01*
X040373Y022252D01*
X040389Y022276D01*
X040409Y022375D01*
Y022531D01*
X039891D01*
Y022375D01*
X039911Y022276D01*
X039929Y022249D01*
X039936Y022231D01*
X039951Y022217D01*
X039967Y022192D01*
X039971Y022189D01*
X039956Y022142D01*
X039792D01*
X039774Y02216D01*
X039687Y022196D01*
X039593D01*
X039506Y02216D01*
X039481Y022135D01*
X039431Y022155D01*
Y022514D01*
X039645D01*
Y022827D01*
X039687Y022855D01*
X039696Y022851D01*
X03979D01*
X03985Y022876D01*
X039894Y02284D01*
X039891Y022825D01*
Y022669D01*
X040409D01*
Y022825D01*
X040389Y022924D01*
X040357Y022972D01*
X04038Y023027D01*
X040406Y023033D01*
X040462Y02307D01*
X040672Y023279D01*
X040691Y023308D01*
X04075Y023306D01*
X040772Y023272D01*
X041639Y022405D01*
Y022313D01*
X04162Y022294D01*
X041584Y022207D01*
Y022113D01*
X04162Y022026D01*
X041686Y02196D01*
X041773Y021924D01*
X041867D01*
X041954Y02196D01*
X041959Y021965D01*
X042015Y02195D01*
X04202Y021934D01*
X041984Y021847D01*
Y021753D01*
X04202Y021666D01*
X042086Y0216D01*
X042173Y021564D01*
X042267D01*
X042354Y0216D01*
X04242Y021666D01*
X042456Y021753D01*
Y021847D01*
X04242Y021934D01*
X042401Y021953D01*
Y02252D01*
X042387Y022589D01*
X042348Y022648D01*
X041551Y023445D01*
Y023545D01*
X043392D01*
X043645Y023292D01*
D02*
G37*
%LPC*%
G36*
X046409Y022238D02*
Y022179D01*
X046468D01*
X046463Y022189D01*
X046419Y022234D01*
X046409Y022238D01*
D02*
G37*
G36*
X046251D02*
X046241Y022234D01*
X046196Y022189D01*
X046192Y022179D01*
X046251D01*
Y022238D01*
D02*
G37*
G36*
X046468Y022021D02*
X046409D01*
Y021962D01*
X046419Y021966D01*
X046463Y022011D01*
X046468Y022021D01*
D02*
G37*
G36*
X046251D02*
X046192D01*
X046196Y022011D01*
X046241Y021966D01*
X046251Y021962D01*
Y022021D01*
D02*
G37*
G36*
X043679Y020378D02*
Y020319D01*
X043738D01*
X043734Y020329D01*
X043689Y020374D01*
X043679Y020378D01*
D02*
G37*
G36*
X043521D02*
X043511Y020374D01*
X043467Y020329D01*
X043462Y020319D01*
X043521D01*
Y020378D01*
D02*
G37*
G36*
X043738Y020161D02*
X043679D01*
Y020102D01*
X043689Y020106D01*
X043734Y020151D01*
X043738Y020161D01*
D02*
G37*
G36*
X043521D02*
X043462D01*
X043467Y020151D01*
X043511Y020106D01*
X043521Y020102D01*
Y020161D01*
D02*
G37*
G36*
X043651Y019791D02*
X043576Y019782D01*
X043511Y019755D01*
X043651Y019615D01*
X04379Y019755D01*
X043725Y019782D01*
X043651Y019791D01*
D02*
G37*
G36*
X046564Y019875D02*
X046547Y019854D01*
X046507Y019755D01*
X046493Y01965D01*
X046507Y019545D01*
X046547Y019446D01*
X046564Y019425D01*
X046789Y01965D01*
X046564Y019875D01*
D02*
G37*
G36*
X037839Y019468D02*
Y019409D01*
X037898D01*
X037894Y019419D01*
X037849Y019464D01*
X037839Y019468D01*
D02*
G37*
G36*
X037681D02*
X037671Y019464D01*
X037626Y019419D01*
X037622Y019409D01*
X037681D01*
Y019468D01*
D02*
G37*
G36*
X0471Y020057D02*
X0469D01*
X046795Y020043D01*
X046696Y020003D01*
X046675Y019986D01*
X046956Y019706D01*
X0469Y01965D01*
X046956Y019594D01*
X046675Y019314D01*
X046696Y019297D01*
X046795Y019257D01*
X0469Y019243D01*
X0471D01*
X047205Y019257D01*
X047304Y019297D01*
X047325Y019314D01*
X047044Y019594D01*
X0471Y01965D01*
X047044Y019706D01*
X047325Y019986D01*
X047304Y020003D01*
X047205Y020043D01*
X0471Y020057D01*
D02*
G37*
G36*
X037898Y019251D02*
X037839D01*
Y019192D01*
X037849Y019196D01*
X037894Y019241D01*
X037898Y019251D01*
D02*
G37*
G36*
X037681D02*
X037622D01*
X037626Y019241D01*
X037671Y019196D01*
X037681Y019192D01*
Y019251D01*
D02*
G37*
G36*
X040139Y018126D02*
X040067Y018117D01*
X040007Y018092D01*
X040139Y017959D01*
X040272Y018092D01*
X040211Y018117D01*
X040139Y018126D01*
D02*
G37*
G36*
X043661D02*
X043589Y018117D01*
X043528Y018092D01*
X043661Y017959D01*
X043793Y018092D01*
X043733Y018117D01*
X043661Y018126D01*
D02*
G37*
G36*
X045329Y017868D02*
Y017809D01*
X045388D01*
X045384Y017819D01*
X045339Y017864D01*
X045329Y017868D01*
D02*
G37*
G36*
X045171D02*
X045161Y017864D01*
X045117Y017819D01*
X045112Y017809D01*
X045171D01*
Y017868D01*
D02*
G37*
G36*
X044929D02*
Y017809D01*
X044988D01*
X044984Y017819D01*
X044939Y017864D01*
X044929Y017868D01*
D02*
G37*
G36*
X044771D02*
X044761Y017864D01*
X044717Y017819D01*
X044712Y017809D01*
X044771D01*
Y017868D01*
D02*
G37*
G36*
X045709Y017858D02*
Y017799D01*
X045768D01*
X045764Y017809D01*
X045719Y017854D01*
X045709Y017858D01*
D02*
G37*
G36*
X045551D02*
X045541Y017854D01*
X045497Y017809D01*
X045492Y017799D01*
X045551D01*
Y017858D01*
D02*
G37*
G36*
X040383Y01798D02*
X040195Y017792D01*
X040139Y017848D01*
X040084Y017792D01*
X039896Y01798D01*
X039871Y01792D01*
X039861Y017848D01*
Y017454D01*
X039871Y017382D01*
X039896Y017322D01*
X040084Y01751D01*
X040139Y017454D01*
X040195Y01751D01*
X040383Y017322D01*
X040408Y017382D01*
X040417Y017454D01*
Y017848D01*
X040408Y01792D01*
X040383Y01798D01*
D02*
G37*
G36*
X038249Y01772D02*
Y017661D01*
X038308D01*
X038304Y017672D01*
X038259Y017716D01*
X038249Y01772D01*
D02*
G37*
G36*
X038091D02*
X038081Y017716D01*
X038036Y017672D01*
X038032Y017661D01*
X038091D01*
Y01772D01*
D02*
G37*
G36*
X039029Y01771D02*
Y017651D01*
X039088D01*
X039084Y017662D01*
X039039Y017706D01*
X039029Y01771D01*
D02*
G37*
G36*
X038871D02*
X038861Y017706D01*
X038816Y017662D01*
X038812Y017651D01*
X038871D01*
Y01771D01*
D02*
G37*
G36*
X038629D02*
Y017651D01*
X038688D01*
X038684Y017662D01*
X038639Y017706D01*
X038629Y01771D01*
D02*
G37*
G36*
X038471D02*
X038461Y017706D01*
X038416Y017662D01*
X038412Y017651D01*
X038471D01*
Y01771D01*
D02*
G37*
G36*
X045388Y017651D02*
X045329D01*
Y017592D01*
X045339Y017596D01*
X045384Y017641D01*
X045388Y017651D01*
D02*
G37*
G36*
X045171D02*
X045112D01*
X045117Y017641D01*
X045161Y017596D01*
X045171Y017592D01*
Y017651D01*
D02*
G37*
G36*
X044988D02*
X044929D01*
Y017592D01*
X044939Y017596D01*
X044984Y017641D01*
X044988Y017651D01*
D02*
G37*
G36*
X044771D02*
X044712D01*
X044717Y017641D01*
X044761Y017596D01*
X044771Y017592D01*
Y017651D01*
D02*
G37*
G36*
X045768Y017641D02*
X045709D01*
Y017582D01*
X045719Y017586D01*
X045764Y017631D01*
X045768Y017641D01*
D02*
G37*
G36*
X045551D02*
X045492D01*
X045497Y017631D01*
X045541Y017586D01*
X045551Y017582D01*
Y017641D01*
D02*
G37*
G36*
X038308Y017504D02*
X038249D01*
Y017445D01*
X038259Y017449D01*
X038304Y017493D01*
X038308Y017504D01*
D02*
G37*
G36*
X038091D02*
X038032D01*
X038036Y017493D01*
X038081Y017449D01*
X038091Y017445D01*
Y017504D01*
D02*
G37*
G36*
X039088Y017494D02*
X039029D01*
Y017435D01*
X039039Y017439D01*
X039084Y017483D01*
X039088Y017494D01*
D02*
G37*
G36*
X038871D02*
X038812D01*
X038816Y017483D01*
X038861Y017439D01*
X038871Y017435D01*
Y017494D01*
D02*
G37*
G36*
X038688D02*
X038629D01*
Y017435D01*
X038639Y017439D01*
X038684Y017483D01*
X038688Y017494D01*
D02*
G37*
G36*
X038471D02*
X038412D01*
X038416Y017483D01*
X038461Y017439D01*
X038471Y017435D01*
Y017494D01*
D02*
G37*
G36*
X043417Y01798D02*
X043392Y01792D01*
X043383Y017848D01*
Y017454D01*
X043392Y017382D01*
X043417Y017322D01*
X043605Y01751D01*
X043661Y017454D01*
X043716Y01751D01*
X043904Y017322D01*
X043929Y017382D01*
X043939Y017454D01*
Y017848D01*
X043929Y01792D01*
X043904Y01798D01*
X043716Y017792D01*
X043661Y017848D01*
X043605Y017792D01*
X043417Y01798D01*
D02*
G37*
%LPD*%
D11*
X039121Y027721D02*
X03913Y02773D01*
X03912Y02772D02*
X039121Y027721D01*
X039766Y023087D02*
X039869Y023191D01*
X040341D01*
X039743Y023087D02*
X039766D01*
X040341Y023191D02*
X040551Y023401D01*
Y023991D02*
X040647Y024087D01*
X040551Y023401D02*
Y023991D01*
X0366Y025662D02*
X036604Y025666D01*
Y026104D01*
X03678Y02628D01*
X038255D01*
X038365Y026169D02*
X039037D01*
X038255Y02628D02*
X038365Y026169D01*
X039037D02*
X03937Y025836D01*
Y02531D02*
Y025836D01*
X03865Y02772D02*
X03912D01*
X0414Y01885D02*
X041813D01*
X041963Y019D01*
X042D01*
D18*
X045963Y02929D02*
Y029976D01*
X045966Y029979D01*
X03888Y03035D02*
X038895Y030365D01*
Y030655D02*
X03891Y03067D01*
X038895Y030365D02*
Y030655D01*
X036597Y028493D02*
X03716D01*
X042005Y029875D02*
X044915D01*
X04492Y02987D01*
X042Y02988D02*
X042005Y029875D01*
X04544Y03202D02*
X045457Y032003D01*
X045617D01*
X04572Y0319D01*
X04182Y02216D02*
Y02248D01*
X0409Y0234D02*
Y02375D01*
Y0234D02*
X04182Y02248D01*
X04137Y02337D02*
X04222Y02252D01*
Y0218D02*
Y02252D01*
X04137Y02337D02*
Y02373D01*
X04402Y0248D02*
X04433D01*
X04463Y0245D01*
Y0245D02*
Y0245D01*
X044108Y025582D02*
X044177Y025513D01*
X0443Y025517D02*
X044487D01*
X04451Y02554D01*
X044177Y025513D02*
X044296D01*
X0443Y025517D01*
X03815Y02654D02*
X03815Y02654D01*
X03737Y02654D02*
X03815D01*
X0371Y02681D02*
X03737Y02654D01*
X03815Y02654D02*
X038666D01*
X038683Y026556D01*
X0376Y02717D02*
X03774Y02703D01*
X038799D01*
X04035Y02531D02*
X040352Y025308D01*
X040972D01*
X041575Y024705D02*
X042488D01*
X040972Y025308D02*
X041575Y024705D01*
X039309Y02275D02*
X03935D01*
X03925Y02035D02*
Y022691D01*
X039309Y02275D01*
X044108Y025582D02*
Y026038D01*
X04405Y026096D02*
X044108Y026038D01*
X042985Y032815D02*
X04299Y03281D01*
X044503Y026616D02*
X044791Y026904D01*
X044503Y026614D02*
Y026616D01*
X044109Y026096D02*
X044397Y026384D01*
Y026508D02*
X044503Y026614D01*
X044397Y026384D02*
Y026508D01*
X04405Y026096D02*
X044109D01*
X044791Y026904D02*
X04485D01*
X043773Y02342D02*
X04434D01*
X042488Y024705D02*
X043773Y02342D01*
X043552Y025268D02*
Y026465D01*
Y025268D02*
X04402Y0248D01*
X043552Y026465D02*
X043991Y026904D01*
X04405D01*
X038907Y03067D02*
Y03124D01*
X044038Y027589D02*
X04405Y027577D01*
Y026904D02*
Y027577D01*
X0371Y02681D02*
Y027638D01*
X0376Y02717D02*
Y027638D01*
X04404Y028412D02*
X04562D01*
X044038Y028411D02*
X04404Y028412D01*
X045839Y027589D02*
X04612Y02787D01*
Y028412D01*
X044838Y027589D02*
X045839D01*
X03715Y028493D02*
X03761D01*
X036598Y02764D02*
Y028491D01*
X036597Y028493D02*
X036598Y028491D01*
Y02764D02*
X0366Y027638D01*
X036597Y028493D02*
X036597Y028493D01*
X0381Y027638D02*
Y028493D01*
X0381Y028493D01*
X04662Y028412D02*
Y02914D01*
X04677Y02929D01*
X045963D02*
X04612Y029133D01*
Y028412D02*
Y029133D01*
X046766Y029294D02*
X04677Y02929D01*
X046766Y029294D02*
Y029979D01*
D23*
X03995Y02351D02*
D03*
X03995Y024225D02*
D03*
X03935Y02275D02*
D03*
X03935Y023465D02*
D03*
D24*
X038195Y03067D02*
D03*
X03891Y03067D02*
D03*
X036635Y03067D02*
D03*
X03735Y03067D02*
D03*
X038655Y02531D02*
D03*
X03937Y02531D02*
D03*
X038907Y03124D02*
D03*
X038192Y03124D02*
D03*
X037344Y031249D02*
D03*
X036629Y031249D02*
D03*
D28*
X04175Y028345D02*
D03*
Y027715D02*
D03*
D29*
X03871Y025853D02*
D03*
X03871Y026467D02*
D03*
X0381Y028493D02*
D03*
X0381Y029107D02*
D03*
X036597Y029107D02*
D03*
X036597Y028493D02*
D03*
X03715Y029107D02*
D03*
X03715Y028493D02*
D03*
X0393Y024657D02*
D03*
X0393Y024043D02*
D03*
D31*
X04405Y026096D02*
D03*
Y026904D02*
D03*
X04485Y026904D02*
D03*
Y026096D02*
D03*
D37*
X0381Y025662D02*
D03*
X0376D02*
D03*
X0371D02*
D03*
X0366D02*
D03*
X0366Y027638D02*
D03*
X0371Y027638D02*
D03*
X0376Y027638D02*
D03*
X0381Y027638D02*
D03*
D41*
X039498Y03961D02*
D03*
X037702D02*
D03*
X042698D02*
D03*
X040902D02*
D03*
X045898D02*
D03*
X044102D02*
D03*
D42*
X0386Y042091D02*
D03*
X0418D02*
D03*
X045D02*
D03*
D45*
X036629Y029721D02*
Y031249D01*
X036597Y029107D02*
X03663Y029141D01*
X036629Y029721D02*
X03663Y02972D01*
Y029141D02*
Y02972D01*
X038693Y03246D02*
X039073Y03284D01*
X03954D01*
X03814Y03246D02*
X038693D01*
X040324Y0306D02*
Y03105D01*
X039874D02*
X040324D01*
D77*
X039251Y01859D02*
X039388Y018727D01*
X039903D01*
X03923Y01859D02*
X039251D01*
X039903Y018727D02*
X040105Y018525D01*
X041004D01*
X039225Y018595D02*
X03923Y01859D01*
X03773Y0186D02*
X037735Y018595D01*
X039225D01*
X039121Y027721D02*
Y028589D01*
X03867Y02904D02*
X039121Y028589D01*
X03801Y0331D02*
X038376D01*
X03764Y03295D02*
X038226D01*
X03735Y02955D02*
X03803D01*
X03698Y02992D02*
Y03229D01*
Y02992D02*
X03735Y02955D01*
X039121Y02738D02*
Y027721D01*
X03698Y03229D02*
X03764Y03295D01*
X038226D02*
X038376Y0331D01*
X041004Y018525D02*
X041079Y0186D01*
X040647Y024087D02*
X04086Y0243D01*
X041524D01*
X0418Y028395D02*
X041842Y028352D01*
X041914Y02391D02*
X042259D01*
X042268Y0239D01*
X041524Y0243D02*
X041914Y02391D01*
X0451Y02479D02*
X0451Y02479D01*
X045099Y02581D02*
X0451Y02581D01*
Y02479D02*
Y02581D01*
X04486Y01899D02*
Y0198D01*
Y02312D01*
X04475Y02323D02*
X04486Y02312D01*
X043313Y01843D02*
X0443D01*
X04486Y01899D01*
X0427Y0186D02*
X043143D01*
X043313Y01843D01*
X0427Y0186D02*
Y018621D01*
X042544Y018778D02*
Y0201D01*
Y018778D02*
X0427Y018621D01*
X041079Y0186D02*
X0411D01*
X036603Y029107D02*
X0381D01*
X041513Y027713D02*
X041747D01*
X04175Y027715D01*
X04151Y02771D02*
X041513Y027713D01*
X041824Y027424D02*
Y027617D01*
X04173Y027695D02*
X041745D01*
X041824Y027617D01*
Y027424D02*
X041839Y027409D01*
X036603Y029107D02*
X036603Y029107D01*
X036597Y029107D02*
X036603D01*
X046604Y026904D02*
X04712Y02742D01*
Y028412D01*
X04485Y026904D02*
X046604D01*
X0381Y029107D02*
X0381Y029107D01*
X041842Y028352D02*
X042032D01*
X04204Y02836D01*
X03844Y024922D02*
X038996D01*
X0381Y025261D02*
X03844Y024922D01*
X038996D02*
X039261Y024657D01*
X0381Y025261D02*
Y025662D01*
X039261Y024657D02*
X0393D01*
X045584Y026096D02*
X04562Y026133D01*
X04485Y026096D02*
X045584D01*
X04562Y026133D02*
Y026188D01*
D78*
X04166Y03058D02*
X04195D01*
X04233Y03096D01*
Y03117D01*
X0406Y02952D02*
X04166Y03058D01*
X0406Y02675D02*
Y02952D01*
X039752Y03005D02*
X039912Y03021D01*
X04093D02*
X042201Y031481D01*
X039912Y03021D02*
X04093D01*
X03941Y03005D02*
X039752D01*
X038247Y030413D02*
X03861Y03005D01*
X03941D01*
Y02961D02*
Y03002D01*
X03991Y0253D02*
Y02564D01*
Y0253D02*
X040304Y024906D01*
Y023743D02*
Y024906D01*
X03957Y02598D02*
X03991Y02564D01*
X04033Y026496D02*
X040938Y025888D01*
X041512D02*
X04201Y02539D01*
X040938Y025888D02*
X041512D01*
X04033Y026496D02*
Y02955D01*
X041218Y025582D02*
X0418Y025D01*
X04062Y02575D02*
X040788Y025582D01*
X041218D01*
X04169Y02621D02*
X04209Y02581D01*
X04114Y02621D02*
X04169D01*
X03762Y02991D02*
X03809D01*
X03761Y0299D02*
X03762Y02991D01*
X03957Y02598D02*
Y02869D01*
X038953Y029307D02*
X03957Y02869D01*
X038953Y029307D02*
Y029307D01*
X038701Y029559D02*
X038953Y029307D01*
X039873Y026217D02*
Y028727D01*
X038808Y029792D02*
X039873Y028727D01*
X040102Y0264D02*
Y028918D01*
X03941Y02961D02*
X040102Y028918D01*
X038441Y029559D02*
X038701D01*
X03809Y02991D02*
X038441Y029559D01*
X038545Y029792D02*
X038808D01*
X038097Y03024D02*
X038545Y029792D01*
X03779Y03024D02*
X038097D01*
X038247Y030413D02*
Y030618D01*
X038195Y03067D02*
X038247Y030618D01*
X040032Y023482D02*
Y023533D01*
X039368Y023482D02*
X040032D01*
X03821Y031258D02*
Y03154D01*
X038474Y031804D01*
X039328D01*
X038201Y031249D02*
X03821Y031258D01*
X039328Y031804D02*
X039638Y032114D01*
X04432Y03045D02*
X04492D01*
X045264Y024046D02*
X046406D01*
X043978Y024189D02*
X045121D01*
X045264Y024046D01*
X043092Y025075D02*
X043978Y024189D01*
X043884Y02396D02*
X045027D01*
X04555Y02311D02*
Y023437D01*
X045027Y02396D02*
X04555Y023437D01*
X044878Y023732D02*
X045112Y023498D01*
X043789Y023732D02*
X044878D01*
X042635Y024886D02*
X043789Y023732D01*
X045112Y023058D02*
Y023498D01*
Y023058D02*
X04536Y02281D01*
X04616D01*
X047Y02365D01*
X045426Y024976D02*
X045782Y02462D01*
X04697D01*
X047Y02465D01*
X040131Y023569D02*
X040304Y023743D01*
X040068Y023569D02*
X040131D01*
X040032Y023533D02*
X040068Y023569D01*
X04018Y02602D02*
Y026322D01*
X040102Y0264D02*
X04018Y026322D01*
X039873Y026217D02*
X03988Y02621D01*
X03935Y023465D02*
X039368Y023482D01*
X044186Y024524D02*
X04421Y0245D01*
X043966Y024524D02*
X044186D01*
X04332Y02517D02*
X043966Y024524D01*
X047Y02365D02*
X047D01*
X042635Y024886D02*
Y026267D01*
X042331Y026571D02*
X042635Y026267D01*
X042863Y024981D02*
X043884Y02396D01*
X042863Y024981D02*
Y026817D01*
X04259Y02709D02*
X042863Y026817D01*
X043092Y025075D02*
Y027348D01*
X04288Y02756D02*
X043092Y027348D01*
X04332Y02517D02*
Y02793D01*
X04308Y02817D02*
X04332Y02793D01*
X042314Y028886D02*
Y029223D01*
X042589Y027629D02*
Y028611D01*
X042314Y028886D02*
X042589Y028611D01*
X04259Y02709D02*
Y027628D01*
X042589Y027629D02*
X04259Y027628D01*
X041347Y026963D02*
X04166Y02665D01*
X0411Y02721D02*
Y02916D01*
X041347Y026963D02*
X041347D01*
X0411Y02721D02*
X041347Y026963D01*
X04407Y0302D02*
X04432Y03045D01*
X0411Y02916D02*
X0415Y02956D01*
X04421D01*
X04176Y0302D02*
X04407D01*
X040852Y029292D02*
X04176Y0302D01*
X040852Y026958D02*
Y029292D01*
X04308Y02817D02*
Y02873D01*
X043507Y029157D01*
X044207D01*
X0406Y02675D02*
X04114Y02621D01*
X03964Y02196D02*
X039645Y021965D01*
X040315D02*
X04032Y02197D01*
X039645Y021965D02*
X040315D01*
X037772Y03124D02*
X038192D01*
X037353D02*
X037772D01*
X038195Y03067D02*
X038195Y03067D01*
X03735Y03067D02*
X038195D01*
X04288Y02756D02*
Y02775D01*
X042331Y026571D02*
Y028481D01*
X04201Y028802D02*
X042331Y028481D01*
X04201Y028802D02*
Y02904D01*
X04007Y02981D02*
X04033Y02955D01*
X042201Y031481D02*
X042639D01*
X04266Y03146D01*
X038192Y03124D02*
X038192Y03124D01*
X037344Y031249D02*
X037353Y03124D01*
X040852Y026958D02*
X04113Y02668D01*
X039638Y032114D02*
X03982D01*
X04201Y02539D02*
X04202D01*
D79*
X03925Y02035D02*
X04015D01*
X037658D02*
X03925D01*
X0366Y02518D02*
Y025662D01*
X0369Y0244D02*
Y02488D01*
X0366Y02518D02*
X0369Y02488D01*
X04209Y032815D02*
X042985D01*
X040177Y020323D02*
X040577D01*
X0408Y0201D01*
X041256D01*
X0381Y0244D02*
X0382Y0245D01*
X03875D01*
X037982Y024518D02*
Y024905D01*
Y024518D02*
X0381Y0244D01*
X037643Y025244D02*
X037982Y024905D01*
X0376Y025662D02*
X037643Y025619D01*
Y025244D02*
Y025619D01*
D80*
X03995Y024225D02*
X039969D01*
X040018Y024274D02*
Y024792D01*
X039608Y025202D02*
X040018Y024792D01*
X039969Y024225D02*
X040018Y024274D01*
X0411Y0186D02*
X04123Y01847D01*
X04247D02*
X042581Y018581D01*
X04123Y01847D02*
X04247D01*
X03937Y025251D02*
X039419Y025202D01*
X03937Y025251D02*
Y02531D01*
X039419Y025202D02*
X039608D01*
X046092Y030927D02*
Y031153D01*
X047024Y032085D01*
X045966Y030801D02*
X046092Y030927D01*
X047024Y032085D02*
Y036426D01*
X045861Y037589D02*
X047024Y036426D01*
X040689Y037589D02*
X045861D01*
X0405Y0374D02*
X040689Y037589D01*
X03888Y0374D02*
X0405D01*
X038216Y038064D02*
X03888Y0374D01*
X038216Y038064D02*
Y0383D01*
X042681Y018581D02*
X0427Y0186D01*
X042581Y018581D02*
X042681D01*
X038655Y02536D02*
X03868Y025335D01*
X038655Y02536D02*
Y025696D01*
Y02531D02*
Y02536D01*
X038599Y025733D02*
X038645Y025686D01*
X038598Y025733D02*
X038599D01*
X038598D02*
X03864Y025775D01*
X038093Y023501D02*
X038351D01*
X038943Y024093D02*
X03935D01*
X038351Y023501D02*
X038943Y024093D01*
X03765Y023058D02*
X038093Y023501D01*
X046889Y030924D02*
Y031189D01*
X046766Y030801D02*
X046889Y030924D01*
Y031189D02*
X0473Y0316D01*
Y036562D01*
X045997Y037865D02*
X0473Y036562D01*
X040411Y037865D02*
X045997D01*
X040184Y038091D02*
Y0383D01*
Y038091D02*
X040411Y037865D01*
X0379Y04034D02*
X038188D01*
X0386Y039928D01*
Y039459D02*
Y039928D01*
D81*
X045736Y039252D02*
X045898Y039413D01*
X045188Y039049D02*
X045391Y039252D01*
X044663Y039072D02*
X044686Y039049D01*
X045898Y039413D02*
Y03961D01*
X045391Y039252D02*
X045736D01*
X044686Y039049D02*
X045188D01*
X04464Y039072D02*
X044663D01*
X04498Y03938D02*
Y04007D01*
X04471Y04034D02*
X04498Y04007D01*
X0443Y04034D02*
X04471D01*
X041757Y039506D02*
Y040013D01*
X041443Y040327D02*
X041757Y040013D01*
X042536Y039252D02*
X042698Y039413D01*
Y03961D01*
X042081Y039252D02*
X042536D01*
X041889Y03906D02*
X042081Y039252D01*
X04141Y03906D02*
X041889D01*
X041113Y040327D02*
X041443D01*
X0411Y04034D02*
X041113Y040327D01*
X039336Y039252D02*
X039498Y039413D01*
X038838Y039128D02*
X038962Y039252D01*
X038273Y039145D02*
X038291Y039128D01*
X039498Y039413D02*
Y03961D01*
X038962Y039252D02*
X039336D01*
X038291Y039128D02*
X038838D01*
X03825Y039145D02*
X038273D01*
D83*
X04685Y04565D02*
D03*
X046856Y017828D02*
D03*
X036947Y017822D02*
D03*
X036941Y045644D02*
D03*
D84*
X047Y02065D02*
D03*
Y02365D02*
D03*
Y02265D02*
D03*
Y02165D02*
D03*
Y01965D02*
D03*
D85*
Y02465D02*
D03*
D86*
X043473Y03105D02*
D03*
X040324D02*
D03*
X0386Y04495D02*
D03*
X0418D02*
D03*
X045D02*
D03*
D87*
X040762Y0191D02*
D03*
X043038D02*
D03*
D88*
X040139Y017651D02*
D03*
X043661D02*
D03*
D89*
X040149Y019297D02*
D03*
X043651D02*
D03*
D90*
X04209Y02581D02*
D03*
X03923Y01859D02*
D03*
X03776Y01933D02*
D03*
D03*
X03895Y017572D02*
D03*
X03855D02*
D03*
X03817Y017582D02*
D03*
X04563Y01772D02*
D03*
X04525Y01773D02*
D03*
X04485D02*
D03*
X0436Y02024D02*
D03*
X03866Y02905D02*
D03*
X03761Y0299D02*
D03*
X03803Y02955D02*
D03*
X03888Y03035D02*
D03*
X03779Y03024D02*
D03*
X04633Y0221D02*
D03*
X04492Y02987D02*
D03*
Y03045D02*
D03*
X04544Y03202D02*
D03*
X04555Y02311D02*
D03*
X045426Y024976D02*
D03*
X046406Y024046D02*
D03*
X04182Y02216D02*
D03*
X04222Y0218D02*
D03*
X039743Y023087D02*
D03*
X04137Y02373D02*
D03*
X0409Y02375D02*
D03*
X042268Y0239D02*
D03*
X04463Y0245D02*
D03*
X04451Y02554D02*
D03*
X045099Y02581D02*
D03*
X0451Y02479D02*
D03*
X04475Y02323D02*
D03*
X04486Y0198D02*
D03*
X03773Y0186D02*
D03*
X03671Y02426D02*
D03*
X03988Y02621D02*
D03*
X04018Y02602D02*
D03*
X039121Y02738D02*
D03*
X04035Y02531D02*
D03*
X04007Y02232D02*
D03*
X03663Y02972D02*
D03*
X04047Y01884D02*
D03*
X043348D02*
D03*
X04616Y0331D02*
D03*
X041839Y027409D02*
D03*
X04151Y02771D02*
D03*
X04299Y03281D02*
D03*
X04616Y03354D02*
D03*
X04209Y03282D02*
D03*
X03814Y03246D02*
D03*
X03954Y03284D02*
D03*
X04434Y02342D02*
D03*
X04421Y0245D02*
D03*
X04166Y02665D02*
D03*
X042Y02988D02*
D03*
X04421Y02956D02*
D03*
X042314Y029223D02*
D03*
X03964Y02196D02*
D03*
X04032Y02197D02*
D03*
X037772Y03124D02*
D03*
X04288Y02775D02*
D03*
X04007Y02981D02*
D03*
X04113Y02668D02*
D03*
X0411Y0186D02*
D03*
X0427D02*
D03*
X044207Y029157D02*
D03*
X04201Y02904D02*
D03*
X04204Y02836D02*
D03*
X0416Y02847D02*
D03*
X04266Y03146D02*
D03*
X03982Y032114D02*
D03*
X0414Y01885D02*
D03*
X042Y019D02*
D03*
X04233Y03117D02*
D03*
X04062Y02575D02*
D03*
X0418Y025D02*
D03*
X04202Y02539D02*
D03*
X044986Y03315D02*
D03*
X041786D02*
D03*
X038376Y0331D02*
D03*
X03761Y028493D02*
D03*
X03875Y0245D02*
D03*
X043791Y031368D02*
D03*
Y030732D02*
D03*
X043155D02*
D03*
Y031368D02*
D03*
X043473Y0315D02*
D03*
X043923Y03105D02*
D03*
X043473Y0306D02*
D03*
X043023Y03105D02*
D03*
X04464Y039072D02*
D03*
X04498Y03938D02*
D03*
X041757Y039506D02*
D03*
X04141Y03906D02*
D03*
X0386Y039459D02*
D03*
X03825Y039145D02*
D03*
X0377Y04034D02*
D03*
X0441D02*
D03*
X0409D02*
D03*
X0443D02*
D03*
X0439D02*
D03*
X0411D02*
D03*
X0375D02*
D03*
X0407D02*
D03*
X0379D02*
D03*
X04005Y0396D02*
D03*
X04325D02*
D03*
X04645D02*
D03*
Y03935D02*
D03*
Y03985D02*
D03*
X04325Y03935D02*
D03*
Y03985D02*
D03*
X04005D02*
D03*
Y03935D02*
D03*
X0386Y0454D02*
D03*
X03905Y04495D02*
D03*
X0386Y0445D02*
D03*
X03815Y04495D02*
D03*
X038282Y045268D02*
D03*
X038918D02*
D03*
Y044632D02*
D03*
X038282D02*
D03*
X0418Y0454D02*
D03*
X04225Y04495D02*
D03*
X0418Y0445D02*
D03*
X04135Y04495D02*
D03*
X041482Y045268D02*
D03*
X042118D02*
D03*
Y044632D02*
D03*
X041482D02*
D03*
X045Y0454D02*
D03*
X04545Y04495D02*
D03*
X045Y0445D02*
D03*
X04455Y04495D02*
D03*
X044682Y045268D02*
D03*
X045318D02*
D03*
Y044632D02*
D03*
X044682D02*
D03*
X039874Y03105D02*
D03*
X040324Y0306D02*
D03*
X040774Y03105D02*
D03*
X040324Y0315D02*
D03*
X040005Y031368D02*
D03*
Y030732D02*
D03*
X040642D02*
D03*
Y031368D02*
D03*
D91*
X03865Y02772D02*
D03*
Y02706D02*
D03*
D92*
X03765Y020342D02*
D03*
Y023058D02*
D03*
D93*
X042544Y0201D02*
D03*
X041256D02*
D03*
D94*
X0381Y0244D02*
D03*
X0369D02*
D03*
D95*
X04015Y02035D02*
D03*
D96*
Y0226D02*
D03*
D97*
X044991Y033538D02*
D03*
X04155Y03355D02*
D03*
X038141Y033538D02*
D03*
D98*
X044991Y036438D02*
D03*
X04155Y03645D02*
D03*
X038141Y036438D02*
D03*
D99*
X044838Y027589D02*
D03*
Y028411D02*
D03*
X045966Y030801D02*
D03*
Y029979D02*
D03*
X044038Y028411D02*
D03*
Y027589D02*
D03*
X046766Y030801D02*
D03*
Y029979D02*
D03*
D100*
X04562Y028412D02*
D03*
X04612D02*
D03*
X04662D02*
D03*
X04712D02*
D03*
X04562Y026188D02*
D03*
X04612D02*
D03*
X04662D02*
D03*
X04712D02*
D03*
D101*
X04677Y02929D02*
D03*
X045963D02*
D03*
D102*
X038216Y0383D02*
D03*
X040184D02*
D03*
D103*
X040324Y03105D02*
X040642Y031368D01*
X045033Y031133D02*
X046138Y032238D01*
Y035991D01*
X043556Y031133D02*
X045033D01*
X040642Y031368D02*
X041484Y03221D01*
X043473Y03105D02*
X043556Y031133D01*
X045035Y036394D02*
X045735D01*
X046138Y035991D01*
X044991Y036438D02*
X045035Y036394D01*
X041484Y03221D02*
X044364D01*
X044986Y032833D01*
D104*
Y03315D01*
D105*
X04015Y02035D02*
X040177Y020323D01*
X03765Y020342D02*
X037658Y02035D01*
M02*
