G04*
G04 #@! TF.GenerationSoftware,Altium Limited,Altium Designer,21.3.2 (30)*
G04*
G04 Layer_Color=65535*
%FSTAX24Y24*%
%MOIN*%
G70*
G04*
G04 #@! TF.SameCoordinates,BF0EC633-498B-4F46-9C25-626D02BDF3A5*
G04*
G04*
G04 #@! TF.FilePolarity,Positive*
G04*
G01*
G75*
%ADD10C,0.0060*%
%ADD11C,0.0100*%
%ADD12C,0.0394*%
%ADD13C,0.0079*%
%ADD14C,0.0039*%
%ADD15C,0.0070*%
%ADD16C,0.0040*%
%ADD17C,0.0050*%
%ADD18C,0.0118*%
%ADD19R,0.0250X0.1020*%
%ADD20R,0.0250X0.0010*%
%ADD21R,0.0500X0.1000*%
G36*
X04626Y02464D02*
X04601Y02439D01*
Y02489D01*
X04626Y02464D01*
D02*
G37*
G36*
X04468Y0227D02*
Y0226D01*
X04459Y0227D01*
X04468Y0228D01*
Y0227D01*
D02*
G37*
G36*
X04468Y0221D02*
Y022D01*
X04459Y0221D01*
X04468Y0222D01*
Y0221D01*
D02*
G37*
G36*
X039359Y020397D02*
X039259Y020397D01*
X039159Y020397D01*
X039259Y020487D01*
X039359Y020397D01*
D02*
G37*
G36*
X04605Y01956D02*
X04585D01*
X04595Y01965D01*
X04605Y01956D01*
D02*
G37*
G36*
X044324Y024191D02*
X04433Y02419D01*
X044336Y024188D01*
X04434Y024186D01*
X044343Y024185D01*
X044345Y024183D01*
X044347Y024182D01*
X044347Y024182D01*
X04435Y024178D01*
X044352Y024174D01*
X044354Y02417D01*
X044355Y024167D01*
X044356Y024164D01*
X044356Y024161D01*
Y024074D01*
X044275D01*
Y024154D01*
X044276Y02416D01*
X044277Y024165D01*
X044278Y024169D01*
X044281Y024173D01*
X044282Y024176D01*
X044284Y024178D01*
X044286Y02418D01*
X044286Y02418D01*
X044291Y024184D01*
X044296Y024186D01*
X044301Y024189D01*
X044305Y02419D01*
X04431Y02419D01*
X044313Y024191D01*
X044315D01*
X044316D01*
X044316D01*
X044317D01*
X044324Y024191D01*
D02*
G37*
G36*
X04451Y02388D02*
X044239D01*
Y024031D01*
X044504D01*
Y024074D01*
X044393D01*
Y024146D01*
X044504Y0242D01*
Y024244D01*
X044387Y024186D01*
X044386Y024192D01*
X044384Y024198D01*
X044382Y024202D01*
X04438Y024207D01*
X044377Y02421D01*
X044375Y024212D01*
X044374Y024214D01*
X044373Y024215D01*
X04437Y024218D01*
X044365Y024221D01*
X04436Y024224D01*
X044356Y024227D01*
X044351Y024229D01*
X044347Y02423D01*
X044337Y024233D01*
X044333Y024233D01*
X044329Y024234D01*
X044326Y024235D01*
X044323Y024235D01*
X04432Y024235D01*
X044318D01*
X044317D01*
X044317D01*
X04431Y024235D01*
X044304Y024235D01*
X044298Y024233D01*
X044292Y024232D01*
X044287Y024231D01*
X044282Y024229D01*
X044278Y024227D01*
X044274Y024225D01*
X044271Y024223D01*
X044268Y024221D01*
X044265Y024219D01*
X044263Y024218D01*
X044262Y024216D01*
X044261Y024215D01*
X04426Y024215D01*
X04426Y024215D01*
X044256Y024211D01*
X044253Y024206D01*
X04425Y024202D01*
X044248Y024197D01*
X044244Y024189D01*
X044242Y024181D01*
X044241Y024177D01*
X04424Y024173D01*
X04424Y02417D01*
X04424Y024168D01*
X044239Y024165D01*
Y024244D01*
D01*
Y02506D01*
X04451D01*
Y02388D01*
D02*
G37*
G36*
X047326Y029765D02*
Y029704D01*
X047489Y029648D01*
Y029624D01*
X047326Y029679D01*
Y029618D01*
X047305Y029625D01*
Y029772D01*
X047326Y029765D01*
D02*
G37*
G36*
X047345Y029584D02*
X047349Y029584D01*
X047352Y029583D01*
X047356Y029582D01*
Y029557D01*
X047356D01*
X047356Y029557D01*
X047354Y029558D01*
X047351Y029558D01*
X047348Y029559D01*
X047345D01*
X047342Y029558D01*
X047338Y029557D01*
X047334Y029556D01*
X047334Y029555D01*
X047333Y029554D01*
X047331Y029552D01*
X04733Y02955D01*
X047329Y029548D01*
X047328Y029546D01*
X047327Y029544D01*
X047326Y029542D01*
X047325Y029539D01*
X047325Y029536D01*
X047325Y029532D01*
Y029525D01*
X047325Y029523D01*
X047325Y029521D01*
X047326Y029516D01*
X047327Y029511D01*
X047328Y029505D01*
X047331Y029499D01*
X047333Y029495D01*
X047334Y029494D01*
X047335Y029493D01*
X047336Y029491D01*
X047338Y029489D01*
X047341Y029487D01*
X047344Y029485D01*
X047347Y029483D01*
X047351Y029481D01*
X047351Y029481D01*
X047352Y029481D01*
X047354Y02948D01*
X047356Y02948D01*
X047358Y02948D01*
X047361D01*
X047363Y02948D01*
X047365Y029481D01*
X047365Y029481D01*
X047366Y029482D01*
X047367Y029483D01*
X047368Y029484D01*
X04737Y029486D01*
X047371Y029489D01*
X047373Y029493D01*
X047375Y029497D01*
Y029497D01*
X047376Y029498D01*
X047376Y029499D01*
X047377Y0295D01*
X047378Y029502D01*
X04738Y029505D01*
X047381Y029507D01*
X047383Y02951D01*
X047384Y029514D01*
X047386Y029517D01*
X047388Y029521D01*
X047391Y029525D01*
X047395Y029534D01*
X0474Y029544D01*
X0474Y029544D01*
X047401Y029545D01*
X047401Y029547D01*
X047403Y029548D01*
X047404Y02955D01*
X047406Y029552D01*
X047408Y029555D01*
X047411Y029557D01*
X047411D01*
X047411Y029557D01*
X047413Y029558D01*
X047415Y029559D01*
X047419Y02956D01*
X047423Y029561D01*
X047428Y029561D01*
X047433Y02956D01*
X047436Y02956D01*
X047439Y029559D01*
X047439D01*
X04744Y029559D01*
X047441Y029558D01*
X047443Y029557D01*
X047444Y029557D01*
X047447Y029556D01*
X047449Y029554D01*
X047451Y029553D01*
X047454Y029551D01*
X047457Y029549D01*
X04746Y029547D01*
X047463Y029544D01*
X047467Y029542D01*
X04747Y029538D01*
X047473Y029535D01*
X047475Y029531D01*
X047476Y029531D01*
X047476Y02953D01*
X047477Y029529D01*
X047478Y029527D01*
X047479Y029525D01*
X047481Y029523D01*
X047482Y02952D01*
X047483Y029516D01*
X047485Y029512D01*
X047486Y029508D01*
X047488Y029503D01*
X047489Y029498D01*
X04749Y029492D01*
X047491Y029486D01*
X047491Y02948D01*
X047491Y029473D01*
Y029472D01*
X047491Y02947D01*
Y029468D01*
X047491Y029465D01*
X04749Y029461D01*
X04749Y029458D01*
X047489Y029454D01*
X047488Y02945D01*
X047487Y029446D01*
X047485Y029442D01*
X047483Y029438D01*
X047481Y029434D01*
X047478Y029431D01*
X047475Y029428D01*
X047472Y029425D01*
X047472D01*
X047471Y029425D01*
X047471Y029424D01*
X04747Y029424D01*
X047468Y029423D01*
X047466Y029423D01*
X047464Y029422D01*
X047462Y029422D01*
X047459Y029421D01*
X047456Y029421D01*
X047453D01*
X047449Y029421D01*
X047445Y029422D01*
X047441Y029422D01*
X047436Y029423D01*
X047431Y029425D01*
Y02945D01*
X047432D01*
X047432Y029449D01*
X047433Y029449D01*
X047434Y029449D01*
X047436Y029448D01*
X047438Y029448D01*
X047442Y029447D01*
X047447Y029447D01*
X047451Y029446D01*
X047456Y029447D01*
X047458Y029448D01*
X047459Y029449D01*
X04746Y029449D01*
X047461Y02945D01*
X047462Y029451D01*
X047463Y029453D01*
X047464Y029454D01*
X047465Y029456D01*
X047466Y029458D01*
X047467Y02946D01*
X047468Y029463D01*
X047469Y029466D01*
X04747Y029469D01*
X047471Y029473D01*
X047471Y029477D01*
X047471Y029481D01*
Y029484D01*
X047471Y029485D01*
Y029487D01*
X047471Y029489D01*
X04747Y029492D01*
X04747Y029494D01*
X047469Y0295D01*
X047467Y029506D01*
X047464Y029512D01*
X04746Y029518D01*
Y029519D01*
X04746Y029519D01*
X047459Y02952D01*
X047457Y029522D01*
X047455Y029524D01*
X047452Y029527D01*
X047449Y029529D01*
X047446Y029531D01*
X047443Y029533D01*
X047443Y029533D01*
X047442Y029533D01*
X04744Y029533D01*
X047437Y029534D01*
X047435D01*
X047432Y029534D01*
X04743Y029533D01*
X047427Y029532D01*
X047427Y029532D01*
X047426Y029531D01*
X047425Y02953D01*
X047424Y029529D01*
X047422Y029527D01*
X04742Y029525D01*
X047418Y029522D01*
X047416Y029518D01*
X047416Y029518D01*
X047415Y029517D01*
X047414Y029515D01*
X047413Y029512D01*
X047411Y029509D01*
X047409Y029505D01*
X047406Y0295D01*
X047403Y029495D01*
Y029494D01*
X047403Y029494D01*
X047403Y029493D01*
X047402Y029492D01*
X0474Y029489D01*
X047398Y029485D01*
X047396Y029481D01*
X047394Y029476D01*
X047392Y029472D01*
X047389Y029468D01*
X047389Y029468D01*
X047389Y029467D01*
X047388Y029466D01*
X047387Y029464D01*
X047386Y029462D01*
X047384Y02946D01*
X047382Y029458D01*
X04738Y029456D01*
X047379Y029456D01*
X047378Y029455D01*
X047376Y029455D01*
X047373Y029454D01*
X047369Y029453D01*
X047365D01*
X04736Y029454D01*
X047357Y029455D01*
X047354Y029456D01*
X047354D01*
X047353Y029456D01*
X047352Y029456D01*
X04735Y029457D01*
X047349Y029458D01*
X047347Y029459D01*
X047342Y029461D01*
X047336Y029465D01*
X047333Y029467D01*
X04733Y02947D01*
X047327Y029473D01*
X047324Y029476D01*
X047321Y029479D01*
X047318Y029483D01*
X047318Y029483D01*
X047318Y029484D01*
X047317Y029485D01*
X047316Y029486D01*
X047315Y029488D01*
X047313Y029491D01*
X047312Y029493D01*
X047311Y029497D01*
X047309Y0295D01*
X047308Y029504D01*
X047307Y029508D01*
X047306Y029513D01*
X047305Y029518D01*
X047304Y029523D01*
X047304Y029528D01*
X047303Y029534D01*
Y029537D01*
X047304Y029539D01*
X047304Y029542D01*
X047304Y029545D01*
X047305Y029548D01*
X047305Y029552D01*
X047307Y02956D01*
X047309Y029563D01*
X04731Y029567D01*
X047312Y02957D01*
X047315Y029574D01*
X047317Y029576D01*
X04732Y029579D01*
X047321D01*
X047321Y029579D01*
X047322Y02958D01*
X047323Y02958D01*
X047324Y029581D01*
X047326Y029582D01*
X047328Y029582D01*
X047331Y029583D01*
X047336Y029584D01*
X047342Y029584D01*
X047345Y029584D01*
D02*
G37*
G36*
X047341Y029428D02*
X047344Y029427D01*
X047348Y029427D01*
X047353Y029425D01*
X047357Y029424D01*
X047357D01*
X047358Y029424D01*
X047359Y029423D01*
X047361Y029423D01*
X047363Y029422D01*
X047366Y029421D01*
X047368Y029419D01*
X047371Y029418D01*
X047378Y029414D01*
X047384Y029409D01*
X04739Y029404D01*
X047396Y029397D01*
X047396Y029397D01*
X047397Y029395D01*
X047398Y029393D01*
X0474Y02939D01*
X047401Y029387D01*
X047403Y029382D01*
X047405Y029378D01*
X047406Y029372D01*
X047488Y029386D01*
Y029359D01*
X047409Y029347D01*
Y029292D01*
X047488Y029265D01*
Y02924D01*
X047304Y029302D01*
Y029395D01*
X047305Y029396D01*
X047305Y029398D01*
X047305Y0294D01*
X047306Y029405D01*
X047308Y02941D01*
X04731Y029415D01*
X047312Y029417D01*
X047314Y029419D01*
X047316Y029422D01*
X047318Y029423D01*
X047319D01*
X047319Y029424D01*
X04732Y029424D01*
X047321Y029425D01*
X047322Y029425D01*
X047324Y029426D01*
X047326Y029427D01*
X047329Y029427D01*
X047331Y029428D01*
X047334Y029428D01*
X047337D01*
X047341Y029428D01*
D02*
G37*
G36*
X047396Y029232D02*
X0474Y029231D01*
X047489Y029201D01*
Y029179D01*
X047407Y029207D01*
X047406Y029208D01*
X047405Y029208D01*
X047403Y029208D01*
X047401Y029208D01*
X047398D01*
X047396Y029208D01*
X047393Y029208D01*
X047391Y029206D01*
X04739Y029206D01*
X047389Y029206D01*
X047388Y029204D01*
X047387Y029203D01*
X047386Y029201D01*
X047385Y029198D01*
X047384Y029194D01*
X047384Y02919D01*
Y02919D01*
X047384Y029188D01*
X047384Y029186D01*
X047385Y029183D01*
X047386Y029179D01*
X047388Y029175D01*
X047391Y02917D01*
X047393Y029168D01*
X047395Y029165D01*
X047395Y029165D01*
X047396Y029164D01*
X047396Y029163D01*
X047398Y029162D01*
X047399Y02916D01*
X047401Y029158D01*
X047403Y029156D01*
X047405Y029154D01*
X04741Y029149D01*
X047416Y029144D01*
X047419Y029142D01*
X047422Y02914D01*
X047426Y029139D01*
X047429Y029137D01*
X047489Y029117D01*
Y029095D01*
X047369Y029136D01*
Y029158D01*
X047391Y02915D01*
X04739Y029151D01*
X047389Y029152D01*
X047388Y029153D01*
X047387Y029155D01*
X047385Y029157D01*
X047383Y02916D01*
X047381Y029163D01*
X047379Y029167D01*
X047374Y029174D01*
X047372Y029178D01*
X04737Y029183D01*
X047369Y029187D01*
X047368Y029191D01*
X047367Y029195D01*
X047367Y029199D01*
Y029201D01*
X047367Y029203D01*
X047367Y029205D01*
X047368Y029207D01*
X047368Y029211D01*
X04737Y029216D01*
X047372Y029221D01*
X047374Y029224D01*
X047375Y029226D01*
X047378Y029228D01*
X04738Y029229D01*
X04738Y02923D01*
X047381Y02923D01*
X047383Y029231D01*
X047385Y029232D01*
X047388Y029232D01*
X047392Y029232D01*
X047396Y029232D01*
D02*
G37*
G36*
X04753Y02896D02*
Y028938D01*
X047257Y029031D01*
Y029053D01*
X04753Y02896D01*
D02*
G37*
G36*
X047379Y028806D02*
X047489Y028843D01*
Y028814D01*
X047396Y028783D01*
X047421Y02875D01*
X047489Y028727D01*
Y028702D01*
X047305Y028764D01*
Y028789D01*
X047389Y02876D01*
X047305Y028873D01*
Y028904D01*
X047379Y028806D01*
D02*
G37*
G36*
X047355Y028708D02*
X04736Y028708D01*
X047366Y028707D01*
X047371Y028705D01*
Y02868D01*
X047371D01*
X04737Y02868D01*
X047369Y02868D01*
X047367Y02868D01*
X047366Y028681D01*
X047363Y028681D01*
X047358Y028681D01*
X047353Y028682D01*
X047347Y028681D01*
X047344Y02868D01*
X047342Y02868D01*
X047339Y028679D01*
X047337Y028677D01*
X047336D01*
X047336Y028677D01*
X047335Y028676D01*
X047333Y028674D01*
X04733Y028671D01*
X047328Y028667D01*
X047326Y028663D01*
X047324Y028657D01*
X047324Y028654D01*
X047324Y028651D01*
Y028649D01*
X047324Y028647D01*
X047324Y028645D01*
X047324Y028643D01*
X047325Y028641D01*
X047325Y028638D01*
X047327Y028632D01*
X047329Y028629D01*
X04733Y028626D01*
X047332Y028622D01*
X047334Y028618D01*
X047336Y028615D01*
X047339Y028611D01*
X047339Y028611D01*
X04734Y02861D01*
X047341Y028608D01*
X047342Y028607D01*
X047344Y028605D01*
X047347Y028602D01*
X04735Y028599D01*
X047353Y028596D01*
X047357Y028593D01*
X047362Y02859D01*
X047367Y028587D01*
X047372Y028583D01*
X047378Y02858D01*
X047384Y028577D01*
X047391Y028574D01*
X047398Y028572D01*
X047398Y028571D01*
X0474Y028571D01*
X047402Y02857D01*
X047405Y02857D01*
X047408Y028569D01*
X047411Y028568D01*
X047416Y028567D01*
X04742Y028566D01*
X047425Y028566D01*
X04743Y028565D01*
X047435D01*
X04744D01*
X047444Y028566D01*
X047449Y028567D01*
X047453Y028569D01*
X047457Y028571D01*
X047457D01*
X047458Y028571D01*
X047459Y028573D01*
X047461Y028575D01*
X047464Y028578D01*
X047467Y028582D01*
X047469Y028587D01*
X04747Y02859D01*
X047471Y028593D01*
X047471Y028597D01*
X047471Y0286D01*
Y028602D01*
X047471Y028604D01*
Y028606D01*
X047471Y028608D01*
X04747Y028611D01*
X04747Y028613D01*
X047468Y028619D01*
X047466Y028625D01*
X047463Y028632D01*
X047461Y028635D01*
X047459Y028638D01*
X047459Y028638D01*
X047459Y028639D01*
X047458Y02864D01*
X047457Y028641D01*
X047455Y028643D01*
X047453Y028645D01*
X047451Y028647D01*
X047448Y028649D01*
X047445Y028651D01*
X047442Y028654D01*
X047439Y028656D01*
X047435Y028659D01*
X047431Y028661D01*
X047426Y028663D01*
X047421Y028666D01*
X047416Y028667D01*
Y028693D01*
X047417Y028693D01*
X047418Y028693D01*
X04742Y028692D01*
X047422Y028691D01*
X047425Y028689D01*
X047429Y028688D01*
X047433Y028685D01*
X047437Y028683D01*
X047442Y02868D01*
X047446Y028677D01*
X047451Y028674D01*
X047456Y02867D01*
X04746Y028666D01*
X047465Y028662D01*
X047469Y028657D01*
X047473Y028652D01*
X047474Y028652D01*
X047474Y028651D01*
X047475Y02865D01*
X047476Y028648D01*
X047477Y028646D01*
X047479Y028643D01*
X047481Y02864D01*
X047482Y028636D01*
X047484Y028632D01*
X047486Y028627D01*
X047487Y028622D01*
X047489Y028617D01*
X04749Y028612D01*
X047491Y028606D01*
X047491Y0286D01*
X047491Y028593D01*
Y028592D01*
X047491Y02859D01*
Y028588D01*
X047491Y028586D01*
X04749Y028582D01*
X04749Y028579D01*
X047489Y028576D01*
X047488Y028572D01*
X047486Y028568D01*
X047485Y028564D01*
X047483Y028561D01*
X047481Y028557D01*
X047478Y028554D01*
X047475Y028551D01*
X047471Y028548D01*
X047471Y028548D01*
X04747Y028547D01*
X047468Y028546D01*
X047466Y028545D01*
X047463Y028544D01*
X04746Y028543D01*
X047456Y028542D01*
X047452Y028541D01*
X047447Y02854D01*
X047442Y028539D01*
X047435Y028539D01*
X047429Y028539D01*
X047422Y02854D01*
X047414Y028541D01*
X047406Y028543D01*
X047398Y028546D01*
X047398D01*
X047397Y028546D01*
X047396Y028547D01*
X047393Y028548D01*
X04739Y028549D01*
X047386Y028551D01*
X047382Y028553D01*
X047376Y028555D01*
X047371Y028558D01*
X047365Y028562D01*
X047359Y028566D01*
X047353Y02857D01*
X047347Y028575D01*
X047341Y02858D01*
X047335Y028585D01*
X047329Y028591D01*
X047324Y028598D01*
X047323Y028598D01*
X047323Y028599D01*
X047322Y028601D01*
X04732Y028603D01*
X047319Y028605D01*
X047317Y028608D01*
X047315Y028612D01*
X047313Y028616D01*
X047312Y02862D01*
X04731Y028625D01*
X047308Y028629D01*
X047306Y028634D01*
X047305Y02864D01*
X047304Y028646D01*
X047304Y028652D01*
X047303Y028657D01*
Y028661D01*
X047304Y028663D01*
X047304Y028665D01*
X047304Y028668D01*
X047305Y028672D01*
X047306Y028675D01*
X047307Y028679D01*
X047308Y028682D01*
X047309Y028686D01*
X047311Y02869D01*
X047313Y028693D01*
X047316Y028696D01*
X047318Y028699D01*
X047322Y028702D01*
X047322Y028702D01*
X047322Y028702D01*
X047324Y028703D01*
X047325Y028704D01*
X047327Y028705D01*
X047329Y028705D01*
X047332Y028706D01*
X047335Y028707D01*
X047338Y028708D01*
X047342Y028708D01*
X047346Y028709D01*
X047351D01*
X047355Y028708D01*
D02*
G37*
G36*
X047345Y028529D02*
X047349Y028528D01*
X047352Y028528D01*
X047356Y028527D01*
Y028502D01*
X047356D01*
X047356Y028502D01*
X047354Y028502D01*
X047351Y028503D01*
X047348Y028503D01*
X047345D01*
X047342Y028503D01*
X047338Y028502D01*
X047334Y0285D01*
X047334Y0285D01*
X047333Y028499D01*
X047331Y028497D01*
X04733Y028495D01*
X047329Y028493D01*
X047328Y028491D01*
X047327Y028489D01*
X047326Y028486D01*
X047325Y028484D01*
X047325Y028481D01*
X047325Y028477D01*
Y02847D01*
X047325Y028468D01*
X047325Y028466D01*
X047326Y028461D01*
X047327Y028455D01*
X047328Y02845D01*
X047331Y028444D01*
X047333Y028439D01*
X047334Y028439D01*
X047335Y028438D01*
X047336Y028436D01*
X047338Y028434D01*
X047341Y028432D01*
X047344Y02843D01*
X047347Y028428D01*
X047351Y028426D01*
X047351Y028426D01*
X047352Y028426D01*
X047354Y028425D01*
X047356Y028425D01*
X047358Y028425D01*
X047361D01*
X047363Y028425D01*
X047365Y028426D01*
X047365Y028426D01*
X047366Y028426D01*
X047367Y028427D01*
X047368Y028429D01*
X04737Y028431D01*
X047371Y028434D01*
X047373Y028437D01*
X047375Y028441D01*
Y028442D01*
X047376Y028442D01*
X047376Y028443D01*
X047377Y028445D01*
X047378Y028447D01*
X04738Y028449D01*
X047381Y028452D01*
X047383Y028455D01*
X047384Y028459D01*
X047386Y028462D01*
X047388Y028466D01*
X047391Y02847D01*
X047395Y028479D01*
X0474Y028489D01*
X0474Y028489D01*
X047401Y02849D01*
X047401Y028492D01*
X047403Y028493D01*
X047404Y028495D01*
X047406Y028497D01*
X047408Y028499D01*
X047411Y028501D01*
X047411D01*
X047411Y028502D01*
X047413Y028503D01*
X047415Y028504D01*
X047419Y028505D01*
X047423Y028505D01*
X047428Y028506D01*
X047433Y028505D01*
X047436Y028505D01*
X047439Y028504D01*
X047439D01*
X04744Y028503D01*
X047441Y028503D01*
X047443Y028502D01*
X047444Y028501D01*
X047447Y0285D01*
X047449Y028499D01*
X047451Y028498D01*
X047454Y028496D01*
X047457Y028494D01*
X04746Y028492D01*
X047463Y028489D01*
X047467Y028486D01*
X04747Y028483D01*
X047473Y02848D01*
X047475Y028476D01*
X047476Y028476D01*
X047476Y028475D01*
X047477Y028474D01*
X047478Y028472D01*
X047479Y02847D01*
X047481Y028467D01*
X047482Y028464D01*
X047483Y028461D01*
X047485Y028457D01*
X047486Y028452D01*
X047488Y028448D01*
X047489Y028442D01*
X04749Y028437D01*
X047491Y028431D01*
X047491Y028425D01*
X047491Y028418D01*
Y028416D01*
X047491Y028415D01*
Y028412D01*
X047491Y028409D01*
X04749Y028406D01*
X04749Y028402D01*
X047489Y028399D01*
X047488Y028395D01*
X047487Y028391D01*
X047485Y028387D01*
X047483Y028383D01*
X047481Y028379D01*
X047478Y028376D01*
X047475Y028372D01*
X047472Y02837D01*
X047472D01*
X047471Y02837D01*
X047471Y028369D01*
X04747Y028369D01*
X047468Y028368D01*
X047466Y028368D01*
X047464Y028367D01*
X047462Y028366D01*
X047459Y028366D01*
X047456Y028366D01*
X047453D01*
X047449Y028366D01*
X047445Y028366D01*
X047441Y028367D01*
X047436Y028368D01*
X047431Y02837D01*
Y028395D01*
X047432D01*
X047432Y028394D01*
X047433Y028394D01*
X047434Y028394D01*
X047436Y028393D01*
X047438Y028393D01*
X047442Y028392D01*
X047447Y028391D01*
X047451Y028391D01*
X047456Y028392D01*
X047458Y028392D01*
X047459Y028394D01*
X04746Y028394D01*
X047461Y028395D01*
X047462Y028396D01*
X047463Y028397D01*
X047464Y028399D01*
X047465Y028401D01*
X047466Y028403D01*
X047467Y028405D01*
X047468Y028408D01*
X047469Y028411D01*
X04747Y028414D01*
X047471Y028418D01*
X047471Y028422D01*
X047471Y028426D01*
Y028428D01*
X047471Y02843D01*
Y028432D01*
X047471Y028434D01*
X04747Y028437D01*
X04747Y028439D01*
X047469Y028445D01*
X047467Y028451D01*
X047464Y028457D01*
X04746Y028463D01*
Y028463D01*
X04746Y028464D01*
X047459Y028465D01*
X047457Y028467D01*
X047455Y028469D01*
X047452Y028472D01*
X047449Y028474D01*
X047446Y028476D01*
X047443Y028477D01*
X047443Y028478D01*
X047442Y028478D01*
X04744Y028478D01*
X047437Y028479D01*
X047435D01*
X047432Y028478D01*
X04743Y028478D01*
X047427Y028477D01*
X047427Y028476D01*
X047426Y028476D01*
X047425Y028475D01*
X047424Y028474D01*
X047422Y028472D01*
X04742Y02847D01*
X047418Y028467D01*
X047416Y028463D01*
X047416Y028463D01*
X047415Y028462D01*
X047414Y02846D01*
X047413Y028457D01*
X047411Y028453D01*
X047409Y028449D01*
X047406Y028445D01*
X047403Y028439D01*
Y028439D01*
X047403Y028439D01*
X047403Y028438D01*
X047402Y028437D01*
X0474Y028434D01*
X047398Y02843D01*
X047396Y028426D01*
X047394Y028421D01*
X047392Y028417D01*
X047389Y028413D01*
X047389Y028413D01*
X047389Y028412D01*
X047388Y02841D01*
X047387Y028409D01*
X047386Y028407D01*
X047384Y028405D01*
X047382Y028403D01*
X04738Y028401D01*
X047379Y028401D01*
X047378Y0284D01*
X047376Y028399D01*
X047373Y028399D01*
X047369Y028398D01*
X047365D01*
X04736Y028399D01*
X047357Y028399D01*
X047354Y0284D01*
X047354D01*
X047353Y028401D01*
X047352Y028401D01*
X04735Y028402D01*
X047349Y028403D01*
X047347Y028404D01*
X047342Y028406D01*
X047336Y02841D01*
X047333Y028412D01*
X04733Y028415D01*
X047327Y028417D01*
X047324Y028421D01*
X047321Y028424D01*
X047318Y028427D01*
X047318Y028428D01*
X047318Y028428D01*
X047317Y028429D01*
X047316Y028431D01*
X047315Y028433D01*
X047313Y028435D01*
X047312Y028438D01*
X047311Y028441D01*
X047309Y028445D01*
X047308Y028449D01*
X047307Y028453D01*
X047306Y028458D01*
X047305Y028462D01*
X047304Y028467D01*
X047304Y028473D01*
X047303Y028479D01*
Y028482D01*
X047304Y028484D01*
X047304Y028487D01*
X047304Y02849D01*
X047305Y028493D01*
X047305Y028497D01*
X047307Y028504D01*
X047309Y028508D01*
X04731Y028512D01*
X047312Y028515D01*
X047315Y028518D01*
X047317Y028521D01*
X04732Y028524D01*
X047321D01*
X047321Y028524D01*
X047322Y028524D01*
X047323Y028525D01*
X047324Y028526D01*
X047326Y028526D01*
X047328Y028527D01*
X047331Y028528D01*
X047336Y028529D01*
X047342Y028529D01*
X047345Y028529D01*
D02*
G37*
G36*
X04753Y028214D02*
Y028193D01*
X047257Y028286D01*
Y028307D01*
X04753Y028214D01*
D02*
G37*
G36*
X047329Y028146D02*
Y028134D01*
X047466Y028088D01*
Y0281D01*
X047489Y028092D01*
Y028043D01*
X047466Y028051D01*
Y028063D01*
X047329Y02811D01*
Y028098D01*
X047305Y028106D01*
Y028154D01*
X047329Y028146D01*
D02*
G37*
G36*
X047345Y028063D02*
X047349Y028063D01*
X047352Y028062D01*
X047356Y028061D01*
Y028036D01*
X047356D01*
X047356Y028036D01*
X047354Y028037D01*
X047351Y028037D01*
X047348Y028038D01*
X047345D01*
X047342Y028037D01*
X047338Y028036D01*
X047334Y028034D01*
X047334Y028034D01*
X047333Y028033D01*
X047331Y028031D01*
X04733Y028029D01*
X047329Y028027D01*
X047328Y028025D01*
X047327Y028023D01*
X047326Y02802D01*
X047325Y028018D01*
X047325Y028015D01*
X047325Y028011D01*
Y028004D01*
X047325Y028002D01*
X047325Y028D01*
X047326Y027995D01*
X047327Y02799D01*
X047328Y027984D01*
X047331Y027978D01*
X047333Y027974D01*
X047334Y027973D01*
X047335Y027972D01*
X047336Y02797D01*
X047338Y027968D01*
X047341Y027966D01*
X047344Y027964D01*
X047347Y027962D01*
X047351Y02796D01*
X047351Y02796D01*
X047352Y02796D01*
X047354Y027959D01*
X047356Y027959D01*
X047358Y027959D01*
X047361D01*
X047363Y027959D01*
X047365Y02796D01*
X047365Y02796D01*
X047366Y027961D01*
X047367Y027962D01*
X047368Y027963D01*
X04737Y027965D01*
X047371Y027968D01*
X047373Y027971D01*
X047375Y027976D01*
Y027976D01*
X047376Y027977D01*
X047376Y027978D01*
X047377Y027979D01*
X047378Y027981D01*
X04738Y027983D01*
X047381Y027986D01*
X047383Y027989D01*
X047384Y027993D01*
X047386Y027996D01*
X047388Y028D01*
X047391Y028004D01*
X047395Y028013D01*
X0474Y028023D01*
X0474Y028023D01*
X047401Y028024D01*
X047401Y028026D01*
X047403Y028027D01*
X047404Y028029D01*
X047406Y028031D01*
X047408Y028033D01*
X047411Y028035D01*
X047411D01*
X047411Y028036D01*
X047413Y028037D01*
X047415Y028038D01*
X047419Y028039D01*
X047423Y02804D01*
X047428Y02804D01*
X047433Y028039D01*
X047436Y028039D01*
X047439Y028038D01*
X047439D01*
X04744Y028038D01*
X047441Y028037D01*
X047443Y028036D01*
X047444Y028035D01*
X047447Y028034D01*
X047449Y028033D01*
X047451Y028032D01*
X047454Y02803D01*
X047457Y028028D01*
X04746Y028026D01*
X047463Y028023D01*
X047467Y02802D01*
X04747Y028017D01*
X047473Y028014D01*
X047475Y02801D01*
X047476Y02801D01*
X047476Y028009D01*
X047477Y028008D01*
X047478Y028006D01*
X047479Y028004D01*
X047481Y028002D01*
X047482Y027999D01*
X047483Y027995D01*
X047485Y027991D01*
X047486Y027987D01*
X047488Y027982D01*
X047489Y027977D01*
X04749Y027971D01*
X047491Y027965D01*
X047491Y027959D01*
X047491Y027952D01*
Y027951D01*
X047491Y027949D01*
Y027947D01*
X047491Y027943D01*
X04749Y02794D01*
X04749Y027937D01*
X047489Y027933D01*
X047488Y027929D01*
X047487Y027925D01*
X047485Y027921D01*
X047483Y027917D01*
X047481Y027913D01*
X047478Y02791D01*
X047475Y027906D01*
X047472Y027904D01*
X047472D01*
X047471Y027904D01*
X047471Y027903D01*
X04747Y027903D01*
X047468Y027902D01*
X047466Y027902D01*
X047464Y027901D01*
X047462Y027901D01*
X047459Y0279D01*
X047456Y0279D01*
X047453D01*
X047449Y0279D01*
X047445Y027901D01*
X047441Y027901D01*
X047436Y027902D01*
X047431Y027904D01*
Y027929D01*
X047432D01*
X047432Y027928D01*
X047433Y027928D01*
X047434Y027928D01*
X047436Y027927D01*
X047438Y027927D01*
X047442Y027926D01*
X047447Y027926D01*
X047451Y027925D01*
X047456Y027926D01*
X047458Y027927D01*
X047459Y027928D01*
X04746Y027928D01*
X047461Y027929D01*
X047462Y02793D01*
X047463Y027931D01*
X047464Y027933D01*
X047465Y027935D01*
X047466Y027937D01*
X047467Y027939D01*
X047468Y027942D01*
X047469Y027945D01*
X04747Y027948D01*
X047471Y027952D01*
X047471Y027956D01*
X047471Y02796D01*
Y027963D01*
X047471Y027964D01*
Y027966D01*
X047471Y027968D01*
X04747Y027971D01*
X04747Y027973D01*
X047469Y027979D01*
X047467Y027985D01*
X047464Y027991D01*
X04746Y027997D01*
Y027998D01*
X04746Y027998D01*
X047459Y027999D01*
X047457Y028001D01*
X047455Y028003D01*
X047452Y028006D01*
X047449Y028008D01*
X047446Y02801D01*
X047443Y028012D01*
X047443Y028012D01*
X047442Y028012D01*
X04744Y028012D01*
X047437Y028013D01*
X047435D01*
X047432Y028013D01*
X04743Y028012D01*
X047427Y028011D01*
X047427Y02801D01*
X047426Y02801D01*
X047425Y028009D01*
X047424Y028008D01*
X047422Y028006D01*
X04742Y028004D01*
X047418Y028001D01*
X047416Y027997D01*
X047416Y027997D01*
X047415Y027996D01*
X047414Y027994D01*
X047413Y027991D01*
X047411Y027988D01*
X047409Y027983D01*
X047406Y027979D01*
X047403Y027974D01*
Y027973D01*
X047403Y027973D01*
X047403Y027972D01*
X047402Y027971D01*
X0474Y027968D01*
X047398Y027964D01*
X047396Y02796D01*
X047394Y027955D01*
X047392Y027951D01*
X047389Y027947D01*
X047389Y027947D01*
X047389Y027946D01*
X047388Y027944D01*
X047387Y027943D01*
X047386Y027941D01*
X047384Y027939D01*
X047382Y027937D01*
X04738Y027935D01*
X047379Y027935D01*
X047378Y027934D01*
X047376Y027933D01*
X047373Y027933D01*
X047369Y027932D01*
X047365D01*
X04736Y027933D01*
X047357Y027933D01*
X047354Y027935D01*
X047354D01*
X047353Y027935D01*
X047352Y027935D01*
X04735Y027936D01*
X047349Y027937D01*
X047347Y027938D01*
X047342Y02794D01*
X047336Y027944D01*
X047333Y027946D01*
X04733Y027949D01*
X047327Y027952D01*
X047324Y027955D01*
X047321Y027958D01*
X047318Y027962D01*
X047318Y027962D01*
X047318Y027963D01*
X047317Y027964D01*
X047316Y027965D01*
X047315Y027967D01*
X047313Y027969D01*
X047312Y027972D01*
X047311Y027976D01*
X047309Y027979D01*
X047308Y027983D01*
X047307Y027987D01*
X047306Y027992D01*
X047305Y027996D01*
X047304Y028002D01*
X047304Y028007D01*
X047303Y028013D01*
Y028016D01*
X047304Y028018D01*
X047304Y028021D01*
X047304Y028024D01*
X047305Y028027D01*
X047305Y028031D01*
X047307Y028039D01*
X047309Y028042D01*
X04731Y028046D01*
X047312Y028049D01*
X047315Y028053D01*
X047317Y028055D01*
X04732Y028058D01*
X047321D01*
X047321Y028058D01*
X047322Y028058D01*
X047323Y028059D01*
X047324Y02806D01*
X047326Y02806D01*
X047328Y028061D01*
X047331Y028062D01*
X047336Y028063D01*
X047342Y028063D01*
X047345Y028063D01*
D02*
G37*
G36*
X047367Y027888D02*
X047374Y027888D01*
X047381Y027886D01*
X047389Y027885D01*
X047397Y027882D01*
X047397Y027882D01*
X047399Y027881D01*
X047401Y02788D01*
X047404Y027879D01*
X047408Y027877D01*
X047412Y027875D01*
X047417Y027873D01*
X047423Y02787D01*
X047428Y027867D01*
X047434Y027863D01*
X04744Y027859D01*
X047446Y027854D01*
X047452Y02785D01*
X047457Y027844D01*
X047463Y027838D01*
X047468Y027832D01*
X047468Y027832D01*
X047469Y027831D01*
X04747Y027829D01*
X047471Y027827D01*
X047473Y027824D01*
X047475Y027821D01*
X047477Y027817D01*
X047479Y027813D01*
X047481Y027808D01*
X047483Y027803D01*
X047485Y027798D01*
X047487Y027793D01*
X047488Y027787D01*
X047489Y027782D01*
X04749Y027776D01*
X04749Y02777D01*
Y027768D01*
X04749Y027766D01*
Y027764D01*
X04749Y027762D01*
X047489Y027759D01*
X047489Y027755D01*
X047488Y027752D01*
X047486Y027748D01*
X047485Y027744D01*
X047483Y02774D01*
X047481Y027736D01*
X047478Y027732D01*
X047475Y027729D01*
X047472Y027725D01*
X047468Y027722D01*
X047468Y027722D01*
X047467Y027722D01*
X047465Y027721D01*
X047463Y02772D01*
X04746Y027719D01*
X047457Y027718D01*
X047453Y027717D01*
X047449Y027716D01*
X047445Y027715D01*
X047439Y027714D01*
X047433Y027714D01*
X047427Y027714D01*
X04742Y027715D01*
X047413Y027716D01*
X047405Y027718D01*
X047397Y027721D01*
X047397D01*
X047396Y027721D01*
X047395Y027721D01*
X047393Y027722D01*
X047389Y027724D01*
X047386Y027725D01*
X047381Y027727D01*
X047376Y02773D01*
X047371Y027733D01*
X047366Y027736D01*
X04736Y02774D01*
X047354Y027744D01*
X047348Y027748D01*
X047342Y027753D01*
X047336Y027759D01*
X047331Y027764D01*
X047326Y027771D01*
X047326Y027771D01*
X047325Y027772D01*
X047324Y027774D01*
X047322Y027776D01*
X047321Y027779D01*
X047319Y027782D01*
X047317Y027786D01*
X047315Y02779D01*
X047312Y027794D01*
X04731Y027799D01*
X047309Y027804D01*
X047307Y02781D01*
X047305Y027815D01*
X047304Y027821D01*
X047304Y027827D01*
X047303Y027833D01*
Y027835D01*
X047304Y027836D01*
Y027839D01*
X047304Y027841D01*
X047305Y027844D01*
X047305Y027848D01*
X047306Y027851D01*
X047307Y027855D01*
X047309Y027859D01*
X047311Y027863D01*
X047313Y027867D01*
X047316Y027871D01*
X047319Y027874D01*
X047322Y027877D01*
X047326Y02788D01*
X047326Y027881D01*
X047327Y027881D01*
X047329Y027882D01*
X047331Y027883D01*
X047333Y027884D01*
X047336Y027885D01*
X04734Y027886D01*
X047345Y027887D01*
X047349Y027888D01*
X047355Y027888D01*
X04736D01*
X047367Y027888D01*
D02*
G37*
G36*
X047489Y027654D02*
Y027629D01*
X047348Y027677D01*
X047489Y027579D01*
Y027562D01*
X047348Y027561D01*
X047489Y027513D01*
Y027488D01*
X047305Y02755D01*
Y027584D01*
X047449Y027585D01*
X047305Y027683D01*
Y027716D01*
X047489Y027654D01*
D02*
G37*
G36*
X04753Y027349D02*
Y027328D01*
X047257Y027421D01*
Y027442D01*
X04753Y027349D01*
D02*
G37*
G36*
X047367Y027256D02*
X047374Y027256D01*
X047381Y027255D01*
X047389Y027253D01*
X047397Y02725D01*
X047397Y02725D01*
X047399Y02725D01*
X047401Y027249D01*
X047404Y027248D01*
X047408Y027246D01*
X047412Y027244D01*
X047417Y027241D01*
X047423Y027238D01*
X047428Y027235D01*
X047434Y027231D01*
X04744Y027227D01*
X047446Y027223D01*
X047452Y027218D01*
X047457Y027213D01*
X047463Y027207D01*
X047468Y0272D01*
X047468Y0272D01*
X047469Y027199D01*
X04747Y027197D01*
X047471Y027195D01*
X047473Y027192D01*
X047475Y027189D01*
X047477Y027185D01*
X047479Y027181D01*
X047481Y027177D01*
X047483Y027172D01*
X047485Y027167D01*
X047487Y027161D01*
X047488Y027156D01*
X047489Y02715D01*
X04749Y027144D01*
X04749Y027138D01*
Y027137D01*
X04749Y027135D01*
Y027133D01*
X04749Y02713D01*
X047489Y027127D01*
X047489Y027124D01*
X047488Y02712D01*
X047486Y027116D01*
X047485Y027112D01*
X047483Y027108D01*
X047481Y027104D01*
X047478Y027101D01*
X047475Y027097D01*
X047472Y027094D01*
X047468Y027091D01*
X047468Y02709D01*
X047467Y02709D01*
X047465Y027089D01*
X047463Y027088D01*
X04746Y027087D01*
X047457Y027086D01*
X047453Y027085D01*
X047449Y027084D01*
X047445Y027083D01*
X047439Y027083D01*
X047433Y027083D01*
X047427Y027083D01*
X04742Y027083D01*
X047413Y027085D01*
X047405Y027086D01*
X047397Y027089D01*
X047397D01*
X047396Y027089D01*
X047395Y02709D01*
X047393Y027091D01*
X047389Y027092D01*
X047386Y027094D01*
X047381Y027096D01*
X047376Y027098D01*
X047371Y027101D01*
X047366Y027104D01*
X04736Y027108D01*
X047354Y027112D01*
X047348Y027116D01*
X047342Y027122D01*
X047336Y027127D01*
X047331Y027133D01*
X047326Y027139D01*
X047326Y027139D01*
X047325Y02714D01*
X047324Y027142D01*
X047322Y027144D01*
X047321Y027147D01*
X047319Y02715D01*
X047317Y027154D01*
X047315Y027158D01*
X047312Y027163D01*
X04731Y027167D01*
X047309Y027173D01*
X047307Y027178D01*
X047305Y027184D01*
X047304Y02719D01*
X047304Y027196D01*
X047303Y027202D01*
Y027203D01*
X047304Y027205D01*
Y027207D01*
X047304Y02721D01*
X047305Y027213D01*
X047305Y027216D01*
X047306Y027219D01*
X047307Y027223D01*
X047309Y027227D01*
X047311Y027231D01*
X047313Y027235D01*
X047316Y027239D01*
X047319Y027242D01*
X047322Y027246D01*
X047326Y027249D01*
X047326Y027249D01*
X047327Y02725D01*
X047329Y02725D01*
X047331Y027251D01*
X047333Y027252D01*
X047336Y027253D01*
X04734Y027254D01*
X047345Y027255D01*
X047349Y027256D01*
X047355Y027257D01*
X04736D01*
X047367Y027256D01*
D02*
G37*
G36*
X047345Y027071D02*
X047349Y02707D01*
X047352Y02707D01*
X047356Y027069D01*
Y027044D01*
X047356D01*
X047356Y027044D01*
X047354Y027044D01*
X047351Y027045D01*
X047348Y027045D01*
X047345D01*
X047342Y027045D01*
X047338Y027044D01*
X047334Y027042D01*
X047334Y027042D01*
X047333Y027041D01*
X047331Y027039D01*
X04733Y027037D01*
X047329Y027035D01*
X047328Y027033D01*
X047327Y027031D01*
X047326Y027028D01*
X047325Y027025D01*
X047325Y027023D01*
X047325Y027019D01*
Y027012D01*
X047325Y02701D01*
X047325Y027008D01*
X047326Y027003D01*
X047327Y026997D01*
X047328Y026992D01*
X047331Y026986D01*
X047333Y026981D01*
X047334Y026981D01*
X047335Y02698D01*
X047336Y026978D01*
X047338Y026976D01*
X047341Y026974D01*
X047344Y026972D01*
X047347Y02697D01*
X047351Y026968D01*
X047351Y026968D01*
X047352Y026968D01*
X047354Y026967D01*
X047356Y026967D01*
X047358Y026967D01*
X047361D01*
X047363Y026967D01*
X047365Y026968D01*
X047365Y026968D01*
X047366Y026968D01*
X047367Y026969D01*
X047368Y026971D01*
X04737Y026973D01*
X047371Y026976D01*
X047373Y026979D01*
X047375Y026983D01*
Y026984D01*
X047376Y026984D01*
X047376Y026985D01*
X047377Y026987D01*
X047378Y026989D01*
X04738Y026991D01*
X047381Y026994D01*
X047383Y026997D01*
X047384Y027D01*
X047386Y027004D01*
X047388Y027008D01*
X047391Y027012D01*
X047395Y027021D01*
X0474Y027031D01*
X0474Y027031D01*
X047401Y027032D01*
X047401Y027034D01*
X047403Y027035D01*
X047404Y027037D01*
X047406Y027039D01*
X047408Y027041D01*
X047411Y027043D01*
X047411D01*
X047411Y027044D01*
X047413Y027045D01*
X047415Y027046D01*
X047419Y027047D01*
X047423Y027047D01*
X047428Y027048D01*
X047433Y027047D01*
X047436Y027047D01*
X047439Y027046D01*
X047439D01*
X04744Y027045D01*
X047441Y027045D01*
X047443Y027044D01*
X047444Y027043D01*
X047447Y027042D01*
X047449Y027041D01*
X047451Y027039D01*
X047454Y027038D01*
X047457Y027036D01*
X04746Y027034D01*
X047463Y027031D01*
X047467Y027028D01*
X04747Y027025D01*
X047473Y027022D01*
X047475Y027018D01*
X047476Y027018D01*
X047476Y027017D01*
X047477Y027016D01*
X047478Y027014D01*
X047479Y027012D01*
X047481Y027009D01*
X047482Y027006D01*
X047483Y027003D01*
X047485Y026999D01*
X047486Y026994D01*
X047488Y02699D01*
X047489Y026984D01*
X04749Y026979D01*
X047491Y026973D01*
X047491Y026967D01*
X047491Y02696D01*
Y026958D01*
X047491Y026957D01*
Y026954D01*
X047491Y026951D01*
X04749Y026948D01*
X04749Y026944D01*
X047489Y026941D01*
X047488Y026937D01*
X047487Y026933D01*
X047485Y026929D01*
X047483Y026925D01*
X047481Y026921D01*
X047478Y026918D01*
X047475Y026914D01*
X047472Y026912D01*
X047472D01*
X047471Y026911D01*
X047471Y026911D01*
X04747Y02691D01*
X047468Y02691D01*
X047466Y026909D01*
X047464Y026909D01*
X047462Y026908D01*
X047459Y026908D01*
X047456Y026908D01*
X047453D01*
X047449Y026908D01*
X047445Y026908D01*
X047441Y026909D01*
X047436Y02691D01*
X047431Y026912D01*
Y026936D01*
X047432D01*
X047432Y026936D01*
X047433Y026936D01*
X047434Y026935D01*
X047436Y026935D01*
X047438Y026935D01*
X047442Y026934D01*
X047447Y026933D01*
X047451Y026933D01*
X047456Y026934D01*
X047458Y026934D01*
X047459Y026935D01*
X04746Y026936D01*
X047461Y026937D01*
X047462Y026938D01*
X047463Y026939D01*
X047464Y026941D01*
X047465Y026943D01*
X047466Y026945D01*
X047467Y026947D01*
X047468Y026949D01*
X047469Y026953D01*
X04747Y026956D01*
X047471Y02696D01*
X047471Y026964D01*
X047471Y026968D01*
Y02697D01*
X047471Y026972D01*
Y026974D01*
X047471Y026976D01*
X04747Y026979D01*
X04747Y026981D01*
X047469Y026987D01*
X047467Y026993D01*
X047464Y026999D01*
X04746Y027005D01*
Y027005D01*
X04746Y027006D01*
X047459Y027007D01*
X047457Y027009D01*
X047455Y027011D01*
X047452Y027013D01*
X047449Y027016D01*
X047446Y027018D01*
X047443Y027019D01*
X047443Y02702D01*
X047442Y02702D01*
X04744Y02702D01*
X047437Y027021D01*
X047435D01*
X047432Y02702D01*
X04743Y02702D01*
X047427Y027019D01*
X047427Y027018D01*
X047426Y027018D01*
X047425Y027017D01*
X047424Y027015D01*
X047422Y027014D01*
X04742Y027011D01*
X047418Y027009D01*
X047416Y027005D01*
X047416Y027005D01*
X047415Y027004D01*
X047414Y027001D01*
X047413Y026999D01*
X047411Y026995D01*
X047409Y026991D01*
X047406Y026987D01*
X047403Y026981D01*
Y026981D01*
X047403Y026981D01*
X047403Y02698D01*
X047402Y026979D01*
X0474Y026976D01*
X047398Y026972D01*
X047396Y026968D01*
X047394Y026963D01*
X047392Y026959D01*
X047389Y026955D01*
X047389Y026955D01*
X047389Y026954D01*
X047388Y026952D01*
X047387Y02695D01*
X047386Y026949D01*
X047384Y026947D01*
X047382Y026945D01*
X04738Y026943D01*
X047379Y026943D01*
X047378Y026942D01*
X047376Y026941D01*
X047373Y026941D01*
X047369Y02694D01*
X047365D01*
X04736Y026941D01*
X047357Y026941D01*
X047354Y026942D01*
X047354D01*
X047353Y026943D01*
X047352Y026943D01*
X04735Y026944D01*
X047349Y026945D01*
X047347Y026946D01*
X047342Y026948D01*
X047336Y026952D01*
X047333Y026954D01*
X04733Y026957D01*
X047327Y026959D01*
X047324Y026962D01*
X047321Y026966D01*
X047318Y026969D01*
X047318Y02697D01*
X047318Y02697D01*
X047317Y026971D01*
X047316Y026973D01*
X047315Y026975D01*
X047313Y026977D01*
X047312Y02698D01*
X047311Y026983D01*
X047309Y026987D01*
X047308Y026991D01*
X047307Y026995D01*
X047306Y026999D01*
X047305Y027004D01*
X047304Y027009D01*
X047304Y027015D01*
X047303Y027021D01*
Y027024D01*
X047304Y027026D01*
X047304Y027029D01*
X047304Y027032D01*
X047305Y027035D01*
X047305Y027039D01*
X047307Y027046D01*
X047309Y02705D01*
X04731Y027054D01*
X047312Y027057D01*
X047315Y02706D01*
X047317Y027063D01*
X04732Y027065D01*
X047321D01*
X047321Y027066D01*
X047322Y027066D01*
X047323Y027067D01*
X047324Y027068D01*
X047326Y027068D01*
X047328Y027069D01*
X047331Y02707D01*
X047336Y027071D01*
X047342Y027071D01*
X047345Y027071D01*
D02*
G37*
G36*
X047329Y02692D02*
Y026909D01*
X047466Y026862D01*
Y026874D01*
X047489Y026866D01*
Y026818D01*
X047466Y026826D01*
Y026837D01*
X047329Y026884D01*
Y026872D01*
X047305Y02688D01*
Y026929D01*
X047329Y02692D01*
D02*
G37*
G36*
X047489Y026788D02*
Y026764D01*
X047348Y026811D01*
X047489Y026714D01*
Y026697D01*
X047348Y026695D01*
X047489Y026648D01*
Y026623D01*
X047305Y026685D01*
Y026719D01*
X047449Y026719D01*
X047305Y026818D01*
Y026851D01*
X047489Y026788D01*
D02*
G37*
G36*
X04753Y026484D02*
Y026463D01*
X047257Y026555D01*
Y026577D01*
X04753Y026484D01*
D02*
G37*
G36*
X04749Y026293D02*
Y026274D01*
X047304Y026264D01*
Y02629D01*
X047454Y026296D01*
X047304Y026404D01*
Y02643D01*
X04749Y026293D01*
D02*
G37*
G36*
X047326Y026234D02*
Y026162D01*
X047329Y026161D01*
X047329D01*
X04733Y026161D01*
X047331Y02616D01*
X047333Y02616D01*
X047334Y026159D01*
X047336Y026158D01*
X047339Y026157D01*
X047342Y026156D01*
X047348Y026153D01*
X047355Y026151D01*
X047361Y026147D01*
X047369Y026144D01*
X047369D01*
X047369Y026144D01*
X047371Y026143D01*
X047373Y026142D01*
X047375Y026141D01*
X047375Y026141D01*
X047375Y026142D01*
X047374Y026143D01*
X047373Y026144D01*
X047372Y026146D01*
X047371Y026148D01*
X047369Y026152D01*
X047367Y026158D01*
X047365Y026163D01*
X047363Y026169D01*
X047363Y026172D01*
X047362Y026176D01*
Y026178D01*
X047363Y026179D01*
X047363Y026181D01*
X047363Y026183D01*
X047364Y026188D01*
X047366Y026192D01*
X047368Y026197D01*
X04737Y0262D01*
X047372Y026202D01*
X047374Y026204D01*
X047376Y026206D01*
X047377D01*
X047377Y026207D01*
X047378Y026207D01*
X047379Y026208D01*
X047381Y026208D01*
X047383Y026209D01*
X047385Y026209D01*
X047388Y02621D01*
X047391Y02621D01*
X047394Y02621D01*
X047397Y026211D01*
X047401Y02621D01*
X047406Y02621D01*
X04741Y026209D01*
X047415Y026208D01*
X047421Y026206D01*
X047421Y026206D01*
X047422Y026206D01*
X047424Y026205D01*
X047426Y026204D01*
X04743Y026203D01*
X047433Y026201D01*
X047437Y026199D01*
X047441Y026197D01*
X047446Y026194D01*
X04745Y026192D01*
X047455Y026188D01*
X04746Y026185D01*
X047464Y026181D01*
X047469Y026177D01*
X047473Y026173D01*
X047476Y026168D01*
X047477Y026168D01*
X047477Y026167D01*
X047478Y026166D01*
X047479Y026164D01*
X04748Y026163D01*
X047481Y02616D01*
X047483Y026158D01*
X047484Y026155D01*
X047485Y026152D01*
X047487Y026149D01*
X047489Y026141D01*
X04749Y026138D01*
X047491Y026133D01*
X047491Y026129D01*
X047491Y026125D01*
Y026123D01*
X047491Y026122D01*
X047491Y02612D01*
X047491Y026118D01*
X04749Y026113D01*
X047488Y026108D01*
X047486Y026103D01*
X047484Y026101D01*
X047482Y026099D01*
X04748Y026096D01*
X047477Y026094D01*
X047477D01*
X047477Y026094D01*
X047476Y026094D01*
X047475Y026093D01*
X047473Y026092D01*
X047472Y026092D01*
X04747Y026091D01*
X047467Y026091D01*
X047464Y02609D01*
X047461Y02609D01*
X047458Y026089D01*
X047454D01*
X04745D01*
X047446Y02609D01*
X047441Y02609D01*
X047436Y026091D01*
Y026116D01*
X047436D01*
X047436Y026116D01*
X047438D01*
X047439Y026116D01*
X047441Y026115D01*
X047443Y026115D01*
X047447Y026115D01*
X047452Y026114D01*
X047457Y026115D01*
X047461Y026116D01*
X047463Y026116D01*
X047465Y026117D01*
X047465Y026117D01*
X047466Y026118D01*
X047467Y026119D01*
X047468Y02612D01*
X047469Y026122D01*
X04747Y026125D01*
X047471Y026128D01*
X047471Y026131D01*
Y026133D01*
X047471Y026136D01*
X04747Y026139D01*
X047469Y026142D01*
X047468Y026146D01*
X047466Y02615D01*
X047464Y026154D01*
X047463Y026154D01*
X047463Y026155D01*
X047462Y026156D01*
X047461Y026157D01*
X04746Y026158D01*
X047458Y02616D01*
X047457Y026161D01*
X047454Y026163D01*
X047452Y026165D01*
X047449Y026167D01*
X047445Y026169D01*
X047442Y026171D01*
X047438Y026173D01*
X047433Y026176D01*
X047429Y026178D01*
X047424Y026179D01*
X047423D01*
X047422Y02618D01*
X047421Y02618D01*
X047419Y026181D01*
X047417Y026181D01*
X047415Y026182D01*
X047409Y026183D01*
X047403Y026184D01*
X047397Y026184D01*
X047394Y026184D01*
X047392Y026184D01*
X047389Y026183D01*
X047387Y026182D01*
X047387Y026182D01*
X047386Y026181D01*
X047385Y02618D01*
X047384Y026179D01*
X047383Y026177D01*
X047382Y026175D01*
X047381Y026172D01*
X047381Y026169D01*
Y026168D01*
X047381Y026167D01*
X047381Y026165D01*
X047382Y026161D01*
X047383Y026157D01*
X047385Y026153D01*
X047387Y026148D01*
X047391Y026143D01*
X047391Y026143D01*
X047392Y026142D01*
X047393Y026141D01*
X047394Y026139D01*
X047397Y026135D01*
X047399Y026133D01*
X0474Y026131D01*
Y02611D01*
X0474D01*
X047399Y02611D01*
X047399Y026111D01*
X047398Y026112D01*
X047395Y026113D01*
X047393Y026114D01*
X04731Y026147D01*
X047305Y026148D01*
Y026241D01*
X047326Y026234D01*
D02*
G37*
G36*
X047403Y026082D02*
Y026029D01*
X047456Y026011D01*
Y025993D01*
X047403Y026011D01*
Y025958D01*
X047386Y025964D01*
Y026017D01*
X047333Y026035D01*
Y026053D01*
X047386Y026035D01*
Y026088D01*
X047403Y026082D01*
D02*
G37*
G36*
X04753Y025802D02*
Y025781D01*
X047257Y025874D01*
Y025895D01*
X04753Y025802D01*
D02*
G37*
G36*
X047368Y02571D02*
X047375Y025709D01*
X047382Y025707D01*
X04739Y025705D01*
X047399Y025703D01*
X047399Y025703D01*
X047401Y025702D01*
X047403Y025701D01*
X047406Y0257D01*
X04741Y025698D01*
X047414Y025696D01*
X047419Y025694D01*
X047425Y025691D01*
X04743Y025688D01*
X047436Y025684D01*
X047442Y02568D01*
X047448Y025676D01*
X047453Y025671D01*
X047459Y025666D01*
X047464Y02566D01*
X047469Y025654D01*
X047469Y025654D01*
X04747Y025653D01*
X047471Y025652D01*
X047472Y025649D01*
X047474Y025647D01*
X047475Y025644D01*
X047477Y02564D01*
X047479Y025636D01*
X047481Y025632D01*
X047483Y025627D01*
X047485Y025622D01*
X047486Y025617D01*
X047488Y025611D01*
X047489Y025606D01*
X047489Y0256D01*
X047489Y025594D01*
Y025529D01*
X047305Y025592D01*
Y025658D01*
X047306Y025659D01*
Y025661D01*
X047306Y025664D01*
X047307Y025667D01*
X047307Y02567D01*
X047308Y025674D01*
X047309Y025678D01*
X047311Y025682D01*
X047313Y025686D01*
X047315Y025689D01*
X047318Y025693D01*
X047321Y025697D01*
X047324Y0257D01*
X047328Y025703D01*
X047328Y025704D01*
X047329Y025704D01*
X047331Y025705D01*
X047332Y025706D01*
X047335Y025706D01*
X047338Y025707D01*
X047342Y025708D01*
X047346Y025709D01*
X04735Y02571D01*
X047356Y02571D01*
X047362D01*
X047368Y02571D01*
D02*
G37*
G36*
X047489Y025491D02*
Y025464D01*
X047344Y025428D01*
X047489Y025378D01*
Y025354D01*
X047305Y025416D01*
Y025443D01*
X047451Y02548D01*
X047305Y025529D01*
Y025554D01*
X047489Y025491D01*
D02*
G37*
G36*
X047353Y025359D02*
X047357Y025359D01*
X047361Y025358D01*
X047366Y025357D01*
Y025331D01*
X047366D01*
X047365Y025331D01*
X047364Y025332D01*
X047363Y025332D01*
X047361Y025332D01*
X047359Y025332D01*
X047355Y025333D01*
X04735D01*
X047345Y025332D01*
X04734Y025331D01*
X047338Y02533D01*
X047336Y025328D01*
X047335D01*
X047335Y025328D01*
X047334Y025327D01*
X047332Y025325D01*
X04733Y025322D01*
X047328Y025318D01*
X047327Y025316D01*
X047325Y025313D01*
X047325Y02531D01*
X047324Y025307D01*
X047324Y025304D01*
Y025298D01*
X047324Y025297D01*
X047324Y025295D01*
X047324Y025293D01*
X047325Y02529D01*
X047325Y025288D01*
X047327Y025282D01*
X04733Y025275D01*
X047331Y025272D01*
X047333Y025268D01*
X047335Y025265D01*
X047338Y025261D01*
X047338Y025261D01*
X047339Y02526D01*
X04734Y025259D01*
X047341Y025257D01*
X047343Y025255D01*
X047346Y025252D01*
X047349Y025249D01*
X047353Y025246D01*
X047357Y025243D01*
X047361Y02524D01*
X047366Y025237D01*
X047371Y025233D01*
X047377Y02523D01*
X047384Y025227D01*
X047391Y025224D01*
X047398Y025221D01*
X047398Y025221D01*
X0474Y025221D01*
X047402Y02522D01*
X047404Y025219D01*
X047408Y025219D01*
X047411Y025218D01*
X047415Y025217D01*
X04742Y025216D01*
X047424Y025216D01*
X047429Y025215D01*
X047434D01*
X047439Y025216D01*
X047444Y025216D01*
X047449Y025218D01*
X047453Y025219D01*
X047457Y025222D01*
X047457D01*
X047458Y025222D01*
X047459Y025223D01*
X04746Y025224D01*
X047461Y025226D01*
X047463Y025227D01*
X047464Y025229D01*
X047465Y025232D01*
X047467Y025234D01*
X047468Y025237D01*
X047469Y02524D01*
X04747Y025243D01*
X047471Y025247D01*
X047471Y025251D01*
X047471Y025255D01*
Y025257D01*
X047471Y025259D01*
Y02526D01*
X047471Y025262D01*
X04747Y025267D01*
X047468Y025272D01*
X047466Y025278D01*
X047463Y025284D01*
X047461Y025287D01*
X047459Y02529D01*
X047459Y02529D01*
X047459Y02529D01*
X047458Y025291D01*
X047457Y025292D01*
X047455Y025295D01*
X047452Y025298D01*
X047448Y025302D01*
X047444Y025306D01*
X047439Y025309D01*
X047435Y025312D01*
X047417Y025318D01*
Y025287D01*
X047397Y025294D01*
Y02535D01*
X047491Y025317D01*
Y025299D01*
X047473Y025299D01*
X047474Y025299D01*
X047474Y025298D01*
X047475Y025296D01*
X047476Y025294D01*
X047477Y025292D01*
X047479Y02529D01*
X047481Y025287D01*
X047482Y025283D01*
X047484Y025279D01*
X047486Y025275D01*
X047487Y025271D01*
X047489Y025266D01*
X04749Y025262D01*
X047491Y025257D01*
X047491Y025251D01*
X047491Y025246D01*
Y025245D01*
X047491Y025243D01*
Y025241D01*
X047491Y025238D01*
X04749Y025235D01*
X04749Y025231D01*
X047489Y025227D01*
X047488Y025223D01*
X047486Y025219D01*
X047485Y025215D01*
X047483Y025211D01*
X04748Y025208D01*
X047477Y025204D01*
X047474Y025201D01*
X04747Y025198D01*
X04747Y025198D01*
X047469Y025197D01*
X047467Y025196D01*
X047465Y025195D01*
X047462Y025194D01*
X047459Y025193D01*
X047455Y025192D01*
X047451Y025191D01*
X047446Y02519D01*
X04744Y025189D01*
X047435Y025189D01*
X047428D01*
X047421Y02519D01*
X047414Y025191D01*
X047406Y025193D01*
X047398Y025195D01*
X047398D01*
X047397Y025196D01*
X047396Y025196D01*
X047393Y025197D01*
X04739Y025198D01*
X047386Y0252D01*
X047382Y025202D01*
X047377Y025205D01*
X047371Y025208D01*
X047366Y025211D01*
X04736Y025214D01*
X047354Y025219D01*
X047348Y025223D01*
X047342Y025228D01*
X047336Y025233D01*
X047331Y025238D01*
X047326Y025245D01*
X047326Y025245D01*
X047325Y025246D01*
X047324Y025248D01*
X047322Y02525D01*
X047321Y025253D01*
X047319Y025256D01*
X047317Y02526D01*
X047315Y025264D01*
X047312Y025268D01*
X04731Y025273D01*
X047309Y025278D01*
X047307Y025284D01*
X047305Y025289D01*
X047304Y025295D01*
X047304Y025301D01*
X047303Y025307D01*
Y02531D01*
X047304Y025313D01*
X047304Y025315D01*
X047304Y025318D01*
X047305Y025322D01*
X047306Y025325D01*
X047307Y025329D01*
X047308Y025332D01*
X04731Y025336D01*
X047312Y02534D01*
X047314Y025344D01*
X047317Y025347D01*
X04732Y02535D01*
X047324Y025353D01*
X047324Y025353D01*
X047324Y025353D01*
X047325Y025354D01*
X047327Y025355D01*
X047329Y025355D01*
X047331Y025356D01*
X047333Y025357D01*
X047335Y025358D01*
X047338Y025359D01*
X047342Y025359D01*
X047345Y025359D01*
X047349Y02536D01*
X047353Y025359D01*
D02*
G37*
G36*
X045021Y046199D02*
X045028Y046198D01*
X045036Y046197D01*
X045045Y046196D01*
X045055Y046194D01*
X045066Y046191D01*
X045077Y046188D01*
X045087Y046184D01*
X045098Y046179D01*
X04511Y046173D01*
X04512Y046167D01*
X045131Y04616D01*
X04514Y046151D01*
X04514Y04615D01*
X045142Y046148D01*
X045144Y046146D01*
X045148Y046142D01*
X045152Y046137D01*
X045156Y046131D01*
X045161Y046123D01*
X045165Y046115D01*
X045171Y046106D01*
X045175Y046095D01*
X04518Y046084D01*
X045184Y046072D01*
X045188Y046059D01*
X04519Y046045D01*
X045192Y04603D01*
X045194Y046015D01*
X045114D01*
Y046015D01*
Y046017D01*
X045113Y04602D01*
X045113Y046024D01*
X045112Y04603D01*
X045111Y046036D01*
X045108Y046049D01*
X045104Y046063D01*
X045098Y046078D01*
X04509Y046091D01*
X045086Y046098D01*
X045081Y046103D01*
X04508Y046104D01*
X045079Y046104D01*
X045077Y046106D01*
X045075Y046108D01*
X045069Y046113D01*
X04506Y046119D01*
X045049Y046124D01*
X045037Y046129D01*
X045023Y046133D01*
X045015Y046134D01*
X045003D01*
X044999Y046133D01*
X044995Y046133D01*
X044991Y046132D01*
X04498Y046129D01*
X044967Y046125D01*
X044953Y046119D01*
X044946Y046115D01*
X044939Y04611D01*
X044932Y046104D01*
X044925Y046098D01*
X044925Y046097D01*
X044923Y046096D01*
X044921Y046093D01*
X044918Y046089D01*
X044915Y046084D01*
X044911Y046078D01*
X044906Y046071D01*
X044902Y046062D01*
X044898Y046053D01*
X044893Y046042D01*
X044889Y04603D01*
X044886Y046017D01*
X044883Y046003D01*
X044881Y045988D01*
X044879Y045971D01*
X044879Y045954D01*
Y045952D01*
Y045949D01*
Y045944D01*
X044879Y045938D01*
X04488Y045929D01*
X044881Y04592D01*
X044883Y04591D01*
X044885Y045899D01*
X044887Y045887D01*
X04489Y045876D01*
X044894Y045864D01*
X044898Y045851D01*
X044904Y04584D01*
X04491Y045829D01*
X044917Y045818D01*
X044925Y045809D01*
X044926Y045809D01*
X044927Y045808D01*
X044928Y045806D01*
X044931Y045804D01*
X044934Y045801D01*
X044938Y045799D01*
X044948Y045793D01*
X04496Y045786D01*
X044974Y045781D01*
X04499Y045777D01*
X044998Y045776D01*
X045007Y045776D01*
X045012D01*
X045016Y045776D01*
X04502D01*
X045025Y045777D01*
X045036Y045779D01*
X045049Y045783D01*
X045062Y045788D01*
X045075Y045795D01*
X045081Y045799D01*
X045086Y045804D01*
X045087Y045805D01*
X045087Y045806D01*
X045089Y045808D01*
X045092Y045811D01*
X045094Y045815D01*
X045097Y045819D01*
X0451Y045825D01*
X045104Y045831D01*
X045108Y045838D01*
X045111Y045847D01*
X045113Y045856D01*
X045116Y045866D01*
X045119Y045876D01*
X045121Y045888D01*
X045121Y0459D01*
X045122Y045914D01*
X045201D01*
Y045913D01*
Y04591D01*
X045201Y045904D01*
X0452Y045897D01*
X045199Y045889D01*
X045197Y045879D01*
X045196Y045868D01*
X045194Y045856D01*
X04519Y045844D01*
X045186Y045832D01*
X045182Y045818D01*
X045176Y045805D01*
X04517Y045793D01*
X045163Y04578D01*
X045155Y045769D01*
X045145Y045759D01*
X045144Y045758D01*
X045143Y045757D01*
X04514Y045754D01*
X045136Y045752D01*
X045131Y045748D01*
X045125Y045744D01*
X045118Y045739D01*
X04511Y045735D01*
X0451Y045731D01*
X045091Y045726D01*
X045079Y045722D01*
X045067Y045718D01*
X045053Y045715D01*
X045039Y045713D01*
X045024Y045712D01*
X045007Y045711D01*
X045003D01*
X044999Y045712D01*
X044993D01*
X044986Y045713D01*
X044978Y045713D01*
X044968Y045715D01*
X044958Y045717D01*
X044947Y04572D01*
X044936Y045724D01*
X044925Y045728D01*
X044913Y045733D01*
X044902Y045739D01*
X04489Y045746D01*
X044879Y045755D01*
X044869Y045764D01*
X044868Y045765D01*
X044866Y045767D01*
X044862Y045771D01*
X044858Y045777D01*
X044852Y045784D01*
X044847Y045792D01*
X044841Y045803D01*
X044834Y045814D01*
X044827Y045827D01*
X044821Y045841D01*
X044815Y045856D01*
X04481Y045874D01*
X044805Y045892D01*
X044802Y045911D01*
X044799Y045932D01*
X044799Y045954D01*
Y045954D01*
Y045955D01*
Y045959D01*
X044799Y045965D01*
X0448Y045974D01*
X044801Y045984D01*
X044803Y045996D01*
X044805Y046009D01*
X044807Y046023D01*
X044811Y046038D01*
X044816Y046054D01*
X044822Y04607D01*
X044828Y046086D01*
X044836Y046102D01*
X044846Y046118D01*
X044856Y046132D01*
X044869Y046146D01*
X044869Y046146D01*
X044871Y046148D01*
X044874Y046151D01*
X044879Y046154D01*
X044884Y046158D01*
X04489Y046163D01*
X044898Y046167D01*
X044906Y046173D01*
X044916Y046178D01*
X044927Y046183D01*
X044938Y046187D01*
X04495Y046191D01*
X044963Y046194D01*
X044977Y046198D01*
X044991Y046199D01*
X045007Y0462D01*
X045015D01*
X045021Y046199D01*
D02*
G37*
G36*
X041851Y046188D02*
X041855Y046187D01*
X041861Y046186D01*
X041867Y046185D01*
X041874Y046184D01*
X041889Y046179D01*
X041896Y046177D01*
X041904Y046173D01*
X041913Y046168D01*
X04192Y046164D01*
X041928Y046158D01*
X041935Y046151D01*
X041936Y04615D01*
X041936Y04615D01*
X041938Y046148D01*
X04194Y046145D01*
X041943Y046141D01*
X041946Y046137D01*
X04195Y046133D01*
X041953Y046127D01*
X041955Y046121D01*
X041959Y046114D01*
X041965Y046098D01*
X041969Y04608D01*
X041969Y04607D01*
X04197Y04606D01*
Y046059D01*
Y046058D01*
Y046055D01*
X041969Y046052D01*
Y046048D01*
X041968Y046043D01*
X041966Y046032D01*
X041962Y04602D01*
X041956Y046007D01*
X041953Y046D01*
X041948Y045994D01*
X041944Y045987D01*
X041938Y045981D01*
X041937Y04598D01*
X041934Y045979D01*
X041931Y045976D01*
X041927Y045973D01*
X041921Y045969D01*
X041914Y045966D01*
X041907Y045963D01*
X041899Y045962D01*
X0419D01*
X041904Y045961D01*
X04191Y045959D01*
X041916Y045957D01*
X041924Y045954D01*
X041933Y04595D01*
X041941Y045944D01*
X041949Y045937D01*
X04195Y045937D01*
X04195Y045936D01*
X041952Y045934D01*
X041954Y045931D01*
X041957Y045927D01*
X04196Y045923D01*
X041963Y045919D01*
X041967Y045914D01*
X041973Y045901D01*
X041978Y045886D01*
X041982Y045869D01*
X041983Y04586D01*
X041984Y045851D01*
Y04585D01*
Y045848D01*
Y045845D01*
X041983Y04584D01*
X041982Y045835D01*
X041982Y045829D01*
X04198Y045822D01*
X041978Y045814D01*
X041973Y045797D01*
X04197Y045789D01*
X041965Y04578D01*
X041961Y045771D01*
X041955Y045763D01*
X041948Y045754D01*
X04194Y045746D01*
X04194Y045745D01*
X041939Y045744D01*
X041937Y045742D01*
X041934Y04574D01*
X041931Y045738D01*
X041926Y045734D01*
X041921Y045731D01*
X041915Y045729D01*
X041908Y045725D01*
X0419Y045722D01*
X041892Y045719D01*
X041883Y045716D01*
X041873Y045714D01*
X041862Y045712D01*
X041851Y045712D01*
X041838Y045711D01*
X041616D01*
Y046188D01*
X041846D01*
X041851Y046188D01*
D02*
G37*
G36*
X039261Y029772D02*
Y029772D01*
Y02977D01*
Y029769D01*
X03926Y029766D01*
X03926Y029763D01*
X039259Y02976D01*
X039259Y029756D01*
X039258Y029752D01*
X039255Y029743D01*
X039253Y029738D01*
X039251Y029733D01*
X039249Y029729D01*
X039246Y029724D01*
X039242Y029719D01*
X039238Y029715D01*
X039238Y029715D01*
X039237Y029714D01*
X039236Y029713D01*
X039234Y029711D01*
X039231Y029709D01*
X039228Y029707D01*
X039224Y029705D01*
X039219Y029703D01*
X039214Y0297D01*
X039208Y029698D01*
X039202Y029696D01*
X039195Y029694D01*
X039187Y029692D01*
X039179Y029691D01*
X03917Y02969D01*
X03916Y02969D01*
X039155D01*
X039152Y02969D01*
X039147Y029691D01*
X039142Y029691D01*
X039137Y029692D01*
X039131Y029693D01*
X039124Y029694D01*
X039118Y029696D01*
X039111Y029698D01*
X039105Y029701D01*
X039099Y029703D01*
X039093Y029707D01*
X039087Y029711D01*
X039082Y029715D01*
X039082Y029715D01*
X039081Y029716D01*
X03908Y029717D01*
X039079Y029719D01*
X039077Y029721D01*
X039075Y029724D01*
X039073Y029727D01*
X039071Y02973D01*
X039069Y029734D01*
X039067Y029739D01*
X039065Y029744D01*
X039064Y029749D01*
X039062Y029754D01*
X039061Y02976D01*
X03906Y029766D01*
X03906Y029772D01*
Y029958D01*
X039103D01*
Y029773D01*
Y029773D01*
Y029773D01*
Y029772D01*
X039103Y02977D01*
X039103Y029766D01*
X039104Y029762D01*
X039106Y029757D01*
X039108Y029752D01*
X039111Y029747D01*
X039115Y029742D01*
X039115D01*
X039116Y029741D01*
X039118Y029739D01*
X039122Y029737D01*
X039126Y029734D01*
X039133Y029731D01*
X03914Y029729D01*
X03915Y029727D01*
X039155Y029726D01*
X03916Y029726D01*
X039163D01*
X039166Y029726D01*
X039168D01*
X039171Y029727D01*
X039177Y029728D01*
X039184Y02973D01*
X039192Y029733D01*
X039199Y029737D01*
X039203Y029739D01*
X039206Y029742D01*
X039206Y029742D01*
X039207Y029744D01*
X03921Y029747D01*
X039212Y02975D01*
X039214Y029755D01*
X039216Y02976D01*
X039218Y029766D01*
X039218Y029773D01*
Y029958D01*
X039261D01*
Y029772D01*
D02*
G37*
G36*
X03944Y029958D02*
X039443Y029957D01*
X039446Y029957D01*
X03945Y029956D01*
X039454Y029955D01*
X039463Y029952D01*
X039468Y029951D01*
X039472Y029948D01*
X039477Y029946D01*
X039482Y029943D01*
X039486Y02994D01*
X039491Y029936D01*
X039491Y029935D01*
X039492Y029935D01*
X039493Y029934D01*
X039494Y029932D01*
X039496Y02993D01*
X039498Y029927D01*
X0395Y029923D01*
X039502Y02992D01*
X039504Y029916D01*
X039506Y029911D01*
X039508Y029906D01*
X03951Y0299D01*
X039511Y029895D01*
X039512Y029888D01*
X039512Y029882D01*
X039513Y029875D01*
Y029874D01*
Y029873D01*
Y029871D01*
X039512Y029868D01*
X039512Y029865D01*
X039512Y029861D01*
X039511Y029857D01*
X03951Y029852D01*
X039508Y029843D01*
X039506Y029838D01*
X039504Y029833D01*
X039502Y029828D01*
X039499Y029823D01*
X039496Y029818D01*
X039492Y029814D01*
X039492Y029814D01*
X039491Y029814D01*
X03949Y029813D01*
X039488Y029811D01*
X039486Y02981D01*
X039484Y029808D01*
X039481Y029806D01*
X039477Y029804D01*
X039473Y029802D01*
X039469Y0298D01*
X039464Y029798D01*
X039459Y029797D01*
X039453Y029796D01*
X039447Y029794D01*
X039441Y029794D01*
X039434Y029794D01*
X039352D01*
Y029693D01*
X039309D01*
Y029958D01*
X039437D01*
X03944Y029958D01*
D02*
G37*
G36*
X039761Y02511D02*
X039724D01*
X039675Y025319D01*
X039625Y02511D01*
X039589D01*
X039531Y025378D01*
X039571D01*
X039609Y025187D01*
X039655Y025378D01*
X039695D01*
X039741Y025187D01*
X039779Y025378D01*
X039819D01*
X039761Y02511D01*
D02*
G37*
G36*
X040048Y025113D02*
X040004D01*
X03989Y025316D01*
Y025113D01*
X039847D01*
Y025378D01*
X039891D01*
X040005Y025175D01*
Y025378D01*
X040048D01*
Y025113D01*
D02*
G37*
G36*
X039119Y025378D02*
X039122D01*
X039126Y025377D01*
X039131Y025376D01*
X039136Y025375D01*
X039142Y025374D01*
X039148Y025372D01*
X039154Y02537D01*
X039161Y025367D01*
X039168Y025364D01*
X039174Y02536D01*
X039181Y025356D01*
X039188Y025351D01*
X039194Y025345D01*
X039194Y025345D01*
X039195Y025344D01*
X039197Y025341D01*
X039199Y025339D01*
X039202Y025335D01*
X039205Y025331D01*
X039208Y025325D01*
X039211Y02532D01*
X039214Y025313D01*
X039217Y025305D01*
X03922Y025297D01*
X039223Y025288D01*
X039225Y025278D01*
X039227Y025267D01*
X039228Y025256D01*
X039228Y025243D01*
Y025243D01*
Y02524D01*
X039228Y025237D01*
Y025233D01*
X039227Y025227D01*
X039226Y025221D01*
X039225Y025214D01*
X039224Y025206D01*
X039222Y025198D01*
X03922Y02519D01*
X039217Y025182D01*
X039213Y025173D01*
X039209Y025165D01*
X039204Y025157D01*
X039199Y025149D01*
X039193Y025142D01*
X039192Y025142D01*
X039191Y025141D01*
X03919Y02514D01*
X039187Y025138D01*
X039184Y025135D01*
X039181Y025133D01*
X039177Y02513D01*
X039171Y025128D01*
X039166Y025125D01*
X039161Y025122D01*
X039154Y02512D01*
X039147Y025118D01*
X039139Y025116D01*
X039131Y025114D01*
X039123Y025113D01*
X039114Y025113D01*
X03902D01*
Y025378D01*
X039116D01*
X039119Y025378D01*
D02*
G37*
G36*
X039394Y025381D02*
X039397D01*
X039401Y02538D01*
X039406Y025379D01*
X039411Y025378D01*
X039417Y025377D01*
X039423Y025375D01*
X039429Y025373D01*
X039436Y025371D01*
X039443Y025367D01*
X039449Y025364D01*
X039456Y025359D01*
X039463Y025354D01*
X039469Y025348D01*
X039469Y025348D01*
X03947Y025347D01*
X039472Y025344D01*
X039475Y025341D01*
X039478Y025338D01*
X03948Y025333D01*
X039484Y025328D01*
X039487Y025321D01*
X039491Y025315D01*
X039494Y025307D01*
X039497Y025299D01*
X0395Y025289D01*
X039503Y02528D01*
X039505Y025269D01*
X039506Y025258D01*
X039506Y025246D01*
Y025245D01*
Y025243D01*
X039506Y02524D01*
X039505Y025236D01*
X039505Y02523D01*
X039504Y025224D01*
X039503Y025217D01*
X039501Y025209D01*
X039499Y025201D01*
X039497Y025193D01*
X039494Y025184D01*
X03949Y025176D01*
X039486Y025168D01*
X039481Y025159D01*
X039475Y025152D01*
X039469Y025144D01*
X039468Y025144D01*
X039467Y025143D01*
X039466Y025141D01*
X039463Y025139D01*
X03946Y025137D01*
X039456Y025134D01*
X039452Y025131D01*
X039447Y025128D01*
X039441Y025125D01*
X039435Y025122D01*
X039428Y025119D01*
X039422Y025117D01*
X039414Y025114D01*
X039406Y025113D01*
X039398Y025112D01*
X039389Y025111D01*
X039387D01*
X039385Y025112D01*
X039381D01*
X039377Y025113D01*
X039372Y025113D01*
X039367Y025114D01*
X039361Y025115D01*
X039355Y025117D01*
X039349Y025119D01*
X039343Y025122D01*
X039336Y025125D01*
X039329Y025129D01*
X039322Y025133D01*
X039316Y025138D01*
X039309Y025144D01*
X039309Y025145D01*
X039308Y025146D01*
X039306Y025148D01*
X039304Y025151D01*
X039301Y025155D01*
X039298Y025159D01*
X039294Y025165D01*
X039291Y025171D01*
X039288Y025178D01*
X039284Y025185D01*
X039281Y025194D01*
X039278Y025203D01*
X039276Y025213D01*
X039274Y025223D01*
X039273Y025234D01*
X039272Y025246D01*
Y025247D01*
Y025247D01*
Y025249D01*
X039273Y025252D01*
X039273Y025257D01*
X039273Y025262D01*
X039274Y025269D01*
X039276Y025276D01*
X039277Y025283D01*
X039279Y025291D01*
X039281Y0253D01*
X039284Y025308D01*
X039288Y025317D01*
X039292Y025325D01*
X039297Y025333D01*
X039303Y025341D01*
X039309Y025348D01*
X03931Y025349D01*
X039311Y02535D01*
X039313Y025351D01*
X039315Y025354D01*
X039319Y025356D01*
X039322Y025359D01*
X039327Y025362D01*
X039332Y025365D01*
X039337Y025368D01*
X039343Y025371D01*
X03935Y025374D01*
X039357Y025376D01*
X039364Y025378D01*
X039372Y02538D01*
X03938Y025381D01*
X039389Y025381D01*
X039391D01*
X039394Y025381D01*
D02*
G37*
G36*
X038819Y045711D02*
X038741D01*
X038684Y045852D01*
X038516D01*
X038459Y045711D01*
X038381D01*
X038568Y046194D01*
X038632D01*
X038819Y045711D01*
D02*
G37*
G36*
X039074Y018536D02*
X039077Y018536D01*
X03908Y018535D01*
X039083Y018535D01*
X039087Y018534D01*
X039095Y018531D01*
X039104Y018528D01*
X039109Y018526D01*
X039113Y018523D01*
X039117Y01852D01*
X039121Y018516D01*
X039122Y018516D01*
X039122Y018515D01*
X039123Y018514D01*
X039125Y018512D01*
X039126Y01851D01*
X039128Y018508D01*
X03913Y018504D01*
X039132Y018501D01*
X039134Y018497D01*
X039135Y018493D01*
X039137Y018488D01*
X039139Y018483D01*
X03914Y018478D01*
X039141Y018472D01*
X039142Y018465D01*
X039142Y018459D01*
Y018459D01*
Y018457D01*
Y018456D01*
X039142Y018453D01*
X039141Y01845D01*
X039141Y018447D01*
X03914Y018443D01*
X039139Y018438D01*
X039137Y018429D01*
X039135Y018424D01*
X039133Y01842D01*
X039131Y018415D01*
X039128Y018411D01*
X039125Y018406D01*
X039121Y018402D01*
X039121Y018402D01*
X039119Y0184D01*
X039117Y018398D01*
X039114Y018396D01*
X039109Y018394D01*
X039105Y018392D01*
X039099Y018389D01*
X039093Y018388D01*
X039151Y018271D01*
X039107D01*
X039053Y018383D01*
X038981D01*
Y018271D01*
X038938D01*
Y018536D01*
X039072D01*
X039074Y018536D01*
D02*
G37*
G36*
X038899Y018494D02*
X038882D01*
Y018311D01*
X038899D01*
Y01827D01*
X038823D01*
Y018311D01*
X03884D01*
Y018494D01*
X038823D01*
Y018535D01*
X038899D01*
Y018494D01*
D02*
G37*
G36*
X038679Y018535D02*
X038682D01*
X038686Y018534D01*
X038691Y018533D01*
X038696Y018532D01*
X038702Y018531D01*
X038708Y018529D01*
X038714Y018527D01*
X038721Y018524D01*
X038728Y018521D01*
X038734Y018518D01*
X038741Y018513D01*
X038748Y018508D01*
X038754Y018502D01*
X038754Y018502D01*
X038755Y018501D01*
X038757Y018499D01*
X038759Y018496D01*
X038762Y018492D01*
X038765Y018488D01*
X038768Y018483D01*
X038771Y018477D01*
X038774Y01847D01*
X038777Y018462D01*
X03878Y018454D01*
X038783Y018445D01*
X038785Y018435D01*
X038787Y018424D01*
X038788Y018413D01*
X038788Y0184D01*
Y0184D01*
Y018397D01*
X038788Y018394D01*
Y01839D01*
X038787Y018384D01*
X038786Y018378D01*
X038785Y018371D01*
X038784Y018364D01*
X038782Y018356D01*
X038779Y018347D01*
X038777Y018339D01*
X038773Y01833D01*
X038769Y018322D01*
X038764Y018314D01*
X038759Y018306D01*
X038753Y018299D01*
X038752Y018299D01*
X038751Y018298D01*
X03875Y018297D01*
X038747Y018295D01*
X038744Y018293D01*
X038741Y01829D01*
X038737Y018287D01*
X038731Y018285D01*
X038726Y018282D01*
X038721Y018279D01*
X038714Y018277D01*
X038707Y018275D01*
X038699Y018273D01*
X038691Y018271D01*
X038683Y01827D01*
X038674Y01827D01*
X03858D01*
Y018535D01*
X038676D01*
X038679Y018535D01*
D02*
G37*
G36*
X045702Y0185D02*
X045665D01*
X045616Y018709D01*
X045566Y0185D01*
X04553D01*
X045472Y018768D01*
X045512D01*
X04555Y018577D01*
X045596Y018768D01*
X045635D01*
X045682Y018577D01*
X04572Y018768D01*
X04576D01*
X045702Y0185D01*
D02*
G37*
G36*
X045929Y018769D02*
X045931Y018769D01*
X045935Y018768D01*
X045938Y018768D01*
X045942Y018767D01*
X04595Y018764D01*
X045959Y018761D01*
X045963Y018758D01*
X045967Y018756D01*
X045972Y018753D01*
X045976Y018749D01*
X045976Y018749D01*
X045977Y018748D01*
X045978Y018747D01*
X045979Y018745D01*
X045981Y018743D01*
X045982Y018741D01*
X045984Y018737D01*
X045986Y018734D01*
X045988Y01873D01*
X04599Y018726D01*
X045992Y018721D01*
X045993Y018716D01*
X045995Y018711D01*
X045996Y018705D01*
X045996Y018698D01*
X045997Y018692D01*
Y018691D01*
Y01869D01*
Y018689D01*
X045996Y018686D01*
X045996Y018683D01*
X045995Y018679D01*
X045995Y018675D01*
X045994Y018671D01*
X045991Y018662D01*
X04599Y018657D01*
X045988Y018653D01*
X045985Y018648D01*
X045983Y018643D01*
X045979Y018639D01*
X045976Y018635D01*
X045975Y018635D01*
X045974Y018633D01*
X045971Y018631D01*
X045968Y018629D01*
X045964Y018627D01*
X045959Y018624D01*
X045953Y018622D01*
X045947Y018621D01*
X046006Y018504D01*
X045961D01*
X045907Y018616D01*
X045836D01*
Y018504D01*
X045793D01*
Y018769D01*
X045926D01*
X045929Y018769D01*
D02*
G37*
G36*
X04538Y018768D02*
X045383Y018767D01*
X045387Y018767D01*
X045391Y018766D01*
X045395Y018765D01*
X045404Y018762D01*
X045408Y018761D01*
X045413Y018758D01*
X045418Y018756D01*
X045423Y018753D01*
X045427Y01875D01*
X045431Y018746D01*
X045432Y018745D01*
X045432Y018745D01*
X045433Y018744D01*
X045435Y018742D01*
X045436Y01874D01*
X045438Y018737D01*
X04544Y018733D01*
X045443Y01873D01*
X045444Y018726D01*
X045447Y018721D01*
X045448Y018716D01*
X04545Y01871D01*
X045451Y018705D01*
X045452Y018698D01*
X045453Y018692D01*
X045453Y018685D01*
Y018684D01*
Y018683D01*
Y018681D01*
X045453Y018678D01*
X045453Y018675D01*
X045452Y018671D01*
X045452Y018667D01*
X045451Y018662D01*
X045448Y018653D01*
X045447Y018648D01*
X045445Y018643D01*
X045442Y018638D01*
X04544Y018633D01*
X045436Y018628D01*
X045433Y018624D01*
X045432Y018624D01*
X045432Y018624D01*
X045431Y018623D01*
X045429Y018621D01*
X045427Y01862D01*
X045424Y018618D01*
X045421Y018616D01*
X045418Y018614D01*
X045414Y018612D01*
X045409Y01861D01*
X045405Y018608D01*
X0454Y018607D01*
X045394Y018606D01*
X045388Y018604D01*
X045381Y018604D01*
X045374Y018604D01*
X045293D01*
Y018503D01*
X04525D01*
Y018768D01*
X045378D01*
X04538Y018768D01*
D02*
G37*
G36*
X045657Y02206D02*
X045719Y02197D01*
X045678D01*
X045634Y022033D01*
X045592Y02197D01*
X045551D01*
X045613Y02206D01*
X045556Y022146D01*
X045596D01*
X045634Y022086D01*
X045673Y022146D01*
X045714D01*
X045657Y02206D01*
D02*
G37*
G36*
X045534Y022199D02*
X045448D01*
Y02197D01*
X045406D01*
Y022199D01*
X04532D01*
Y022235D01*
X045534D01*
Y022199D01*
D02*
G37*
G36*
X045679Y02264D02*
X045741Y02255D01*
X045701D01*
X045657Y022613D01*
X045614Y02255D01*
X045574D01*
X045635Y02264D01*
X045578Y022726D01*
X045619D01*
X045657Y022666D01*
X045696Y022726D01*
X045737D01*
X045679Y02264D01*
D02*
G37*
G36*
X045486Y022816D02*
X045489Y022816D01*
X045492Y022815D01*
X045495Y022815D01*
X045499Y022814D01*
X045507Y022811D01*
X045516Y022808D01*
X045521Y022806D01*
X045525Y022803D01*
X045529Y0228D01*
X045533Y022796D01*
X045533Y022796D01*
X045534Y022795D01*
X045535Y022794D01*
X045536Y022792D01*
X045538Y02279D01*
X04554Y022788D01*
X045541Y022784D01*
X045544Y022781D01*
X045545Y022777D01*
X045547Y022773D01*
X045549Y022768D01*
X045551Y022763D01*
X045552Y022758D01*
X045553Y022752D01*
X045553Y022745D01*
X045554Y022739D01*
Y022739D01*
Y022737D01*
Y022736D01*
X045553Y022733D01*
X045553Y02273D01*
X045553Y022727D01*
X045552Y022723D01*
X045551Y022718D01*
X045549Y022709D01*
X045547Y022704D01*
X045545Y0227D01*
X045543Y022695D01*
X04554Y02269D01*
X045537Y022686D01*
X045533Y022682D01*
X045533Y022682D01*
X045531Y02268D01*
X045529Y022678D01*
X045525Y022676D01*
X045521Y022674D01*
X045516Y022672D01*
X045511Y022669D01*
X045504Y022668D01*
X045563Y022551D01*
X045519D01*
X045465Y022663D01*
X045393D01*
Y022551D01*
X04535D01*
Y022816D01*
X045484D01*
X045486Y022816D01*
D02*
G37*
%LPC*%
G36*
X044509Y02496D02*
X04427D01*
Y024822D01*
D01*
Y024858D01*
X044329D01*
Y024822D01*
X044509D01*
X044361D01*
Y024858D01*
X044458D01*
X044462Y024858D01*
X044466Y024858D01*
X044472Y02486D01*
X044478Y024863D01*
X044483Y024866D01*
X044488Y024869D01*
X044491Y024871D01*
X044493Y024873D01*
X044494Y024874D01*
X044494D01*
X044497Y024877D01*
X044499Y02488D01*
X044502Y024887D01*
X044505Y024895D01*
X044507Y024902D01*
X044508Y024909D01*
X044508Y024912D01*
Y024915D01*
X044509Y024917D01*
Y02492D01*
X044508Y024928D01*
X044507Y024935D01*
X044505Y024942D01*
X044503Y024948D01*
X044501Y024953D01*
X044499Y024957D01*
X044499Y024959D01*
X044498Y02496D01*
X044498Y02496D01*
Y02496D01*
X044509D01*
D02*
G37*
G36*
Y024807D02*
X044326D01*
X044441D01*
Y024766D01*
X044446Y024766D01*
X044451Y024765D01*
X044456Y024763D01*
X044459Y024761D01*
X044462Y024759D01*
X044464Y024758D01*
X044466Y024757D01*
X044466Y024757D01*
X044468Y024753D01*
X044471Y024749D01*
X044472Y024745D01*
X044473Y02474D01*
X044474Y024736D01*
X044474Y024733D01*
Y02473D01*
X044474Y024723D01*
X044472Y024716D01*
X04447Y024711D01*
X044468Y024706D01*
X044466Y024703D01*
X044463Y0247D01*
X044462Y024698D01*
X044462Y024698D01*
X044456Y024693D01*
X04445Y02469D01*
X044443Y024687D01*
X044436Y024686D01*
X04443Y024684D01*
X044428Y024684D01*
X044426D01*
X044424Y024684D01*
X044422D01*
X044422D01*
X044421D01*
Y024806D01*
X044412Y024805D01*
X044404Y024805D01*
X044396Y024803D01*
X04439Y024802D01*
X044383Y024801D01*
X044377Y024799D01*
X044372Y024797D01*
X044367Y024795D01*
X044363Y024793D01*
X04436Y02479D01*
X044357Y024789D01*
X044355Y024787D01*
X044352Y024786D01*
X044351Y024785D01*
X044351Y024784D01*
X04435Y024783D01*
X044346Y024779D01*
X044342Y024774D01*
X044339Y024769D01*
X044336Y024765D01*
X044334Y02476D01*
X044332Y024755D01*
X044329Y024746D01*
X044328Y024742D01*
X044327Y024738D01*
X044327Y024735D01*
X044327Y024732D01*
X044326Y02473D01*
Y024732D01*
Y024726D01*
X044327Y02472D01*
X044327Y024714D01*
X044328Y024708D01*
X04433Y024703D01*
X044331Y024698D01*
X044333Y024693D01*
X044335Y024689D01*
X044337Y024685D01*
X04434Y024682D01*
X044341Y024678D01*
X044344Y024676D01*
X044345Y024674D01*
X044347Y024672D01*
X044348Y024671D01*
X044348Y02467D01*
X044349Y02467D01*
X044354Y024665D01*
X044359Y024661D01*
X044365Y024657D01*
X044371Y024654D01*
X044376Y024651D01*
X044382Y024649D01*
X044388Y024647D01*
X044393Y024646D01*
X044398Y024645D01*
X044403Y024644D01*
X044407Y024643D01*
X044411Y024643D01*
X044414D01*
X044416Y024643D01*
X044418D01*
X044425Y024643D01*
X044432Y024644D01*
X044439Y024645D01*
X044446Y024647D01*
X044452Y024648D01*
X044457Y024651D01*
X044462Y024653D01*
X044467Y024655D01*
X044471Y024657D01*
X044475Y02466D01*
X044478Y024662D01*
X04448Y024664D01*
X044482Y024666D01*
X044484Y024667D01*
X044485Y024667D01*
X044485Y024668D01*
X044489Y024672D01*
X044493Y024677D01*
X044496Y024682D01*
X044499Y024687D01*
X044501Y024692D01*
X044503Y024698D01*
X044506Y024707D01*
X044507Y024712D01*
X044507Y024716D01*
X044508Y02472D01*
X044508Y024723D01*
X044509Y024726D01*
Y024647D01*
Y02473D01*
X044508Y024736D01*
X044508Y024742D01*
X044507Y024748D01*
X044505Y024754D01*
X044504Y024759D01*
X044502Y024763D01*
X0445Y024768D01*
X044498Y024772D01*
X044497Y024775D01*
X044495Y024778D01*
X044493Y024781D01*
X044491Y024783D01*
X04449Y024784D01*
X044489Y024785D01*
X044489Y024786D01*
X044488Y024786D01*
X044485Y024789D01*
X044482Y024791D01*
X044475Y024796D01*
X044467Y024799D01*
X044459Y024802D01*
X044452Y024805D01*
X044449Y024805D01*
X044446Y024806D01*
X044444Y024806D01*
X044442Y024807D01*
X044441Y024807D01*
X044509D01*
D02*
G37*
G36*
X044455Y024611D02*
X044326D01*
Y024461D01*
Y024534D01*
X044327Y024528D01*
X044327Y024522D01*
X044328Y024516D01*
X044329Y024511D01*
X044331Y024506D01*
X044332Y024502D01*
X044334Y024498D01*
X044336Y024494D01*
X044337Y024491D01*
X044339Y024488D01*
X044341Y024486D01*
X044343Y024484D01*
X044344Y024482D01*
X044345Y024481D01*
X044345Y024481D01*
X044345Y02448D01*
X044351Y024476D01*
X044357Y024472D01*
X044363Y024469D01*
X044369Y024467D01*
X044374Y024466D01*
X044378Y024466D01*
X044379Y024466D01*
X04438D01*
X044381D01*
X044382D01*
X044388Y024466D01*
X044393Y024468D01*
X044399Y02447D01*
X044403Y024473D01*
X044407Y024476D01*
X04441Y024478D01*
X044412Y02448D01*
X044413Y02448D01*
X044416Y024484D01*
X044418Y024488D01*
X04442Y024492D01*
X044422Y024496D01*
X044424Y0245D01*
X044425Y024503D01*
X044425Y024505D01*
X044426Y024505D01*
Y024506D01*
X044427Y024512D01*
X044429Y024518D01*
X044431Y024525D01*
X044433Y024532D01*
X044434Y024537D01*
X044435Y02454D01*
X044435Y024542D01*
X044436Y024544D01*
X044436Y024546D01*
X044436Y024546D01*
Y024547D01*
X044438Y024551D01*
X044439Y024555D01*
X04444Y024558D01*
X044442Y02456D01*
X044443Y024562D01*
X044444Y024564D01*
X044444Y024564D01*
X044444Y024565D01*
X044447Y024567D01*
X044449Y024568D01*
X044451Y024569D01*
X044452Y02457D01*
X044454Y024571D01*
X044455D01*
X044455D01*
X044458Y024571D01*
X04446Y02457D01*
X044464Y024569D01*
X044466Y024568D01*
X044467Y024567D01*
X044467Y024567D01*
X044467Y024566D01*
X044469Y024564D01*
X04447Y024562D01*
X044472Y024558D01*
X044474Y024553D01*
X044474Y024547D01*
X044475Y024542D01*
X044475Y024538D01*
Y024534D01*
X044475Y024527D01*
X044474Y024521D01*
X044473Y024517D01*
X044471Y024513D01*
X044469Y024509D01*
X044467Y024507D01*
X044466Y024506D01*
X044466Y024505D01*
X044463Y024504D01*
X044461Y024502D01*
X044457Y024501D01*
X044454Y0245D01*
X04445Y0245D01*
X044448Y024499D01*
X044446Y024499D01*
X044445D01*
Y024461D01*
D01*
X04445Y024461D01*
X044455Y024462D01*
X044464Y024463D01*
X044471Y024466D01*
X044478Y024469D01*
X044483Y024472D01*
X044487Y024475D01*
X044488Y024476D01*
X044489Y024477D01*
X044489Y024477D01*
X04449D01*
X044493Y024481D01*
X044496Y024485D01*
X044498Y02449D01*
X044501Y024494D01*
X044504Y024504D01*
X044506Y024514D01*
X044507Y024518D01*
X044507Y024522D01*
X044508Y024526D01*
X044508Y024529D01*
X044509Y024532D01*
Y024536D01*
X044508Y024543D01*
X044508Y02455D01*
X044507Y024556D01*
X044506Y024562D01*
X044504Y024567D01*
X044503Y024572D01*
X044501Y024576D01*
X044499Y02458D01*
X044497Y024583D01*
X044495Y024586D01*
X044494Y024589D01*
X044493Y024591D01*
X044491Y024592D01*
X04449Y024593D01*
X04449Y024594D01*
X04449Y024594D01*
X044486Y024597D01*
X044483Y0246D01*
X044477Y024604D01*
X044471Y024607D01*
X044466Y024608D01*
X044461Y02461D01*
X044457Y02461D01*
X044455Y024611D01*
D02*
G37*
G36*
X044509Y024429D02*
X044326D01*
X044441D01*
Y024387D01*
X044446Y024387D01*
X044451Y024386D01*
X044456Y024385D01*
X044459Y024383D01*
X044462Y024381D01*
X044464Y024379D01*
X044466Y024378D01*
X044466Y024378D01*
X044468Y024375D01*
X044471Y024371D01*
X044472Y024366D01*
X044473Y024362D01*
X044474Y024358D01*
X044474Y024354D01*
Y024351D01*
X044474Y024344D01*
X044472Y024338D01*
X04447Y024332D01*
X044468Y024328D01*
X044466Y024324D01*
X044463Y024321D01*
X044462Y02432D01*
X044462Y024319D01*
X044456Y024314D01*
X04445Y024311D01*
X044443Y024308D01*
X044436Y024307D01*
X04443Y024306D01*
X044428Y024306D01*
X044426D01*
X044424Y024305D01*
X044422D01*
X044422D01*
X044421D01*
Y024427D01*
X044412Y024427D01*
X044404Y024426D01*
X044396Y024425D01*
X04439Y024424D01*
X044383Y024422D01*
X044377Y02442D01*
X044372Y024418D01*
X044367Y024416D01*
X044363Y024414D01*
X04436Y024412D01*
X044357Y02441D01*
X044355Y024409D01*
X044352Y024407D01*
X044351Y024406D01*
X044351Y024405D01*
X04435Y024405D01*
X044346Y024401D01*
X044342Y024396D01*
X044339Y024391D01*
X044336Y024386D01*
X044334Y024381D01*
X044332Y024376D01*
X044329Y024367D01*
X044328Y024363D01*
X044327Y02436D01*
X044327Y024356D01*
X044327Y024353D01*
X044326Y024351D01*
Y024353D01*
Y024348D01*
X044327Y024342D01*
X044327Y024335D01*
X044328Y02433D01*
X04433Y024324D01*
X044331Y024319D01*
X044333Y024315D01*
X044335Y02431D01*
X044337Y024306D01*
X04434Y024303D01*
X044341Y0243D01*
X044344Y024297D01*
X044345Y024295D01*
X044347Y024293D01*
X044348Y024292D01*
X044348Y024291D01*
X044349Y024291D01*
X044354Y024286D01*
X044359Y024282D01*
X044365Y024279D01*
X044371Y024275D01*
X044376Y024273D01*
X044382Y024271D01*
X044388Y024269D01*
X044393Y024267D01*
X044398Y024266D01*
X044403Y024265D01*
X044407Y024265D01*
X044411Y024264D01*
X044414D01*
X044416Y024264D01*
X044418D01*
X044425Y024264D01*
X044432Y024265D01*
X044439Y024266D01*
X044446Y024268D01*
X044452Y02427D01*
X044457Y024272D01*
X044462Y024274D01*
X044467Y024277D01*
X044471Y024279D01*
X044475Y024281D01*
X044478Y024283D01*
X04448Y024285D01*
X044482Y024287D01*
X044484Y024288D01*
X044485Y024289D01*
X044485Y024289D01*
X044489Y024294D01*
X044493Y024299D01*
X044496Y024304D01*
X044499Y024309D01*
X044501Y024314D01*
X044503Y024319D01*
X044506Y024329D01*
X044507Y024334D01*
X044507Y024338D01*
X044508Y024342D01*
X044508Y024345D01*
X044509Y024347D01*
Y024269D01*
Y024351D01*
X044508Y024358D01*
X044508Y024364D01*
X044507Y02437D01*
X044505Y024375D01*
X044504Y024381D01*
X044502Y024385D01*
X0445Y024389D01*
X044498Y024393D01*
X044497Y024397D01*
X044495Y024399D01*
X044493Y024402D01*
X044491Y024404D01*
X04449Y024406D01*
X044489Y024407D01*
X044489Y024407D01*
X044488Y024408D01*
X044485Y02441D01*
X044482Y024413D01*
X044475Y024417D01*
X044467Y024421D01*
X044459Y024424D01*
X044452Y024426D01*
X044449Y024427D01*
X044446Y024427D01*
X044444Y024428D01*
X044442Y024428D01*
X044441Y024429D01*
X044509D01*
D02*
G37*
%LPD*%
G36*
X044467Y024952D02*
X04447Y024945D01*
X044471Y024938D01*
X044473Y024932D01*
X044473Y024927D01*
X044474Y024922D01*
Y024919D01*
X044474Y024915D01*
X044473Y024911D01*
X044473Y024908D01*
X044471Y024906D01*
X04447Y024904D01*
X04447Y024903D01*
X044469Y024902D01*
X044469Y024902D01*
X044466Y0249D01*
X044464Y024898D01*
X044462Y024897D01*
X04446Y024897D01*
X044458Y024896D01*
X044456Y024896D01*
X044455D01*
X044455D01*
X044361D01*
Y024947D01*
X044329D01*
Y024896D01*
X04427D01*
Y02496D01*
X044463D01*
X044467Y024952D01*
D02*
G37*
G36*
X04439Y024685D02*
X044386Y024687D01*
X044383Y024688D01*
X04438Y02469D01*
X044377Y024692D01*
X044374Y024694D01*
X044372Y024696D01*
X044371Y024697D01*
X044371Y024698D01*
X044367Y024702D01*
X044364Y024706D01*
X044362Y024711D01*
X044361Y024715D01*
X04436Y024719D01*
X04436Y024722D01*
Y024725D01*
X04436Y024731D01*
X044361Y024736D01*
X044363Y024741D01*
X044364Y024745D01*
X044366Y024748D01*
X044368Y02475D01*
X044369Y024752D01*
X044369Y024752D01*
X044373Y024756D01*
X044377Y024758D01*
X04438Y024761D01*
X044383Y024762D01*
X044386Y024762D01*
X044388Y024763D01*
X044389D01*
X04439D01*
Y024685D01*
D02*
G37*
G36*
X044447Y02461D02*
X044441Y024608D01*
X044436Y024607D01*
X044431Y024604D01*
X044427Y024601D01*
X044425Y0246D01*
X044423Y024598D01*
X044422Y024597D01*
X04442Y024595D01*
X044418Y024592D01*
X044414Y024585D01*
X044413Y024582D01*
X044412Y02458D01*
X044411Y024578D01*
X044411Y024577D01*
X044409Y024572D01*
X044408Y024567D01*
X044406Y024561D01*
X044405Y024556D01*
X044403Y024551D01*
X044403Y024548D01*
X044402Y024546D01*
Y024545D01*
X044402Y024545D01*
Y024544D01*
X0444Y024539D01*
X044399Y024534D01*
X044398Y02453D01*
X044397Y024526D01*
X044396Y024522D01*
X044395Y02452D01*
X044394Y024517D01*
X044393Y024515D01*
X044391Y024512D01*
X04439Y02451D01*
X04439Y024509D01*
X044389Y024509D01*
X044387Y024506D01*
X044384Y024505D01*
X044382Y024505D01*
X044382D01*
X044382D01*
X044379Y024505D01*
X044376Y024506D01*
X044372Y024508D01*
X04437Y024509D01*
X044369Y02451D01*
X044368Y024511D01*
X044368Y024512D01*
X044365Y024515D01*
X044363Y024518D01*
X044361Y024522D01*
X044361Y024525D01*
X04436Y024528D01*
X04436Y02453D01*
Y024533D01*
X04436Y02454D01*
X044361Y024547D01*
X044362Y024552D01*
X044364Y024556D01*
X044365Y024559D01*
X044367Y024561D01*
X044367Y024562D01*
X044368Y024563D01*
X044369Y024564D01*
X044372Y024565D01*
X044374Y024566D01*
X044377Y024567D01*
X044379Y024568D01*
X044382Y024568D01*
X044383Y024568D01*
X044384D01*
Y024606D01*
X044379D01*
X044375Y024605D01*
X044368Y024604D01*
X044361Y024601D01*
X044355Y024598D01*
X044351Y024595D01*
X044347Y024592D01*
X044345Y024591D01*
X044344Y02459D01*
Y02459D01*
X044341Y024586D01*
X044338Y024582D01*
X044336Y024578D01*
X044334Y024573D01*
X044331Y024564D01*
X044328Y024555D01*
X044328Y024551D01*
X044327Y024547D01*
X044327Y024544D01*
Y02454D01*
X044326Y024538D01*
Y024611D01*
X044454D01*
X044447Y02461D01*
D02*
G37*
G36*
X04439Y024307D02*
X044386Y024308D01*
X044383Y02431D01*
X04438Y024312D01*
X044377Y024314D01*
X044374Y024316D01*
X044372Y024318D01*
X044371Y024319D01*
X044371Y024319D01*
X044367Y024323D01*
X044364Y024328D01*
X044362Y024332D01*
X044361Y024337D01*
X04436Y02434D01*
X04436Y024344D01*
Y024346D01*
X04436Y024352D01*
X044361Y024358D01*
X044363Y024363D01*
X044364Y024367D01*
X044366Y02437D01*
X044368Y024372D01*
X044369Y024373D01*
X044369Y024374D01*
X044373Y024377D01*
X044377Y02438D01*
X04438Y024382D01*
X044383Y024383D01*
X044386Y024384D01*
X044388Y024385D01*
X044389D01*
X04439D01*
Y024307D01*
D02*
G37*
%LPC*%
G36*
X047345Y029401D02*
X047341D01*
X047337Y029399D01*
X047333Y029398D01*
X047333Y029398D01*
X047332Y029397D01*
X047331Y029395D01*
X047329Y029394D01*
X047328Y029391D01*
X047326Y029388D01*
X047325Y029384D01*
X047325Y02938D01*
Y02932D01*
X047388Y029299D01*
Y029364D01*
X047388Y029366D01*
X047387Y029369D01*
X047386Y029372D01*
X047385Y029375D01*
X047383Y029379D01*
X047381Y029383D01*
X047381Y029383D01*
X047379Y029384D01*
X047378Y029386D01*
X047375Y029389D01*
X047372Y029391D01*
X047368Y029394D01*
X047363Y029396D01*
X047357Y029398D01*
X047357D01*
X047356Y029399D01*
X047356Y029399D01*
X047355Y029399D01*
X047352Y0294D01*
X047348Y0294D01*
X047345Y029401D01*
D02*
G37*
G36*
X047366Y027862D02*
X047361D01*
X047356D01*
X047352Y027862D01*
X047347Y027861D01*
X047343Y027859D01*
X04734Y027857D01*
X04734D01*
X047339Y027857D01*
X047338Y027856D01*
X047337Y027855D01*
X047335Y027853D01*
X047332Y027849D01*
X047329Y027845D01*
X047326Y02784D01*
X047325Y027837D01*
X047324Y027833D01*
X047324Y02783D01*
X047324Y027826D01*
Y027824D01*
X047324Y027823D01*
X047324Y027821D01*
X047324Y027818D01*
X047325Y027816D01*
X047326Y027813D01*
X047328Y027807D01*
X047329Y027803D01*
X047331Y0278D01*
X047332Y027796D01*
X047334Y027792D01*
X047337Y027788D01*
X04734Y027784D01*
X04734Y027784D01*
X047341Y027783D01*
X047342Y027782D01*
X047343Y02778D01*
X047345Y027778D01*
X047348Y027776D01*
X04735Y027773D01*
X047354Y02777D01*
X047358Y027767D01*
X047362Y027764D01*
X047367Y027761D01*
X047372Y027758D01*
X047377Y027755D01*
X047383Y027752D01*
X04739Y027749D01*
X047397Y027747D01*
X047397Y027746D01*
X047399Y027746D01*
X0474Y027746D01*
X047403Y027745D01*
X047406Y027744D01*
X04741Y027743D01*
X047414Y027742D01*
X047419Y027741D01*
X047428Y02774D01*
X047433Y02774D01*
X047437Y02774D01*
X047442Y027741D01*
X047446Y027742D01*
X04745Y027743D01*
X047454Y027745D01*
X047454Y027746D01*
X047455Y027746D01*
X047456Y027746D01*
X047457Y027747D01*
X047459Y02775D01*
X047462Y027753D01*
X047465Y027758D01*
X047468Y027763D01*
X047469Y027766D01*
X047469Y027769D01*
X04747Y027773D01*
X04747Y027776D01*
Y027778D01*
X04747Y02778D01*
X04747Y027782D01*
X047469Y027784D01*
X047469Y027787D01*
X047468Y027789D01*
X047466Y027796D01*
X047465Y027799D01*
X047463Y027803D01*
X047461Y027806D01*
X047459Y027811D01*
X047457Y027814D01*
X047454Y027818D01*
X047454Y027819D01*
X047453Y02782D01*
X047452Y027821D01*
X04745Y027823D01*
X047449Y027825D01*
X047446Y027827D01*
X047443Y027829D01*
X04744Y027833D01*
X047436Y027835D01*
X047432Y027838D01*
X047427Y027842D01*
X047422Y027845D01*
X047417Y027848D01*
X04741Y027851D01*
X047404Y027854D01*
X047397Y027856D01*
X047396Y027856D01*
X047395Y027857D01*
X047393Y027857D01*
X047391Y027858D01*
X047387Y027859D01*
X047384Y02786D01*
X04738Y027861D01*
X047375Y027861D01*
X047371Y027862D01*
X047366Y027862D01*
D02*
G37*
G36*
Y027231D02*
X047361D01*
X047356D01*
X047352Y02723D01*
X047347Y027229D01*
X047343Y027228D01*
X04734Y027226D01*
X04734D01*
X047339Y027225D01*
X047338Y027225D01*
X047337Y027224D01*
X047335Y027221D01*
X047332Y027218D01*
X047329Y027213D01*
X047326Y027208D01*
X047325Y027205D01*
X047324Y027202D01*
X047324Y027198D01*
X047324Y027194D01*
Y027192D01*
X047324Y027191D01*
X047324Y027189D01*
X047324Y027187D01*
X047325Y027184D01*
X047326Y027181D01*
X047328Y027175D01*
X047329Y027172D01*
X047331Y027168D01*
X047332Y027164D01*
X047334Y027161D01*
X047337Y027157D01*
X04734Y027152D01*
X04734Y027152D01*
X047341Y027151D01*
X047342Y02715D01*
X047343Y027148D01*
X047345Y027146D01*
X047348Y027144D01*
X04735Y027141D01*
X047354Y027139D01*
X047358Y027136D01*
X047362Y027133D01*
X047367Y027129D01*
X047372Y027126D01*
X047377Y027123D01*
X047383Y02712D01*
X04739Y027117D01*
X047397Y027115D01*
X047397Y027115D01*
X047399Y027114D01*
X0474Y027114D01*
X047403Y027113D01*
X047406Y027112D01*
X04741Y027111D01*
X047414Y027111D01*
X047419Y02711D01*
X047428Y027109D01*
X047433Y027109D01*
X047437Y027109D01*
X047442Y027109D01*
X047446Y02711D01*
X04745Y027112D01*
X047454Y027114D01*
X047454Y027114D01*
X047455Y027114D01*
X047456Y027115D01*
X047457Y027116D01*
X047459Y027118D01*
X047462Y027122D01*
X047465Y027126D01*
X047468Y027131D01*
X047469Y027134D01*
X047469Y027138D01*
X04747Y027141D01*
X04747Y027145D01*
Y027147D01*
X04747Y027148D01*
X04747Y02715D01*
X047469Y027152D01*
X047469Y027155D01*
X047468Y027158D01*
X047466Y027164D01*
X047465Y027167D01*
X047463Y027171D01*
X047461Y027175D01*
X047459Y027179D01*
X047457Y027183D01*
X047454Y027187D01*
X047454Y027187D01*
X047453Y027188D01*
X047452Y027189D01*
X04745Y027191D01*
X047449Y027193D01*
X047446Y027195D01*
X047443Y027198D01*
X04744Y027201D01*
X047436Y027204D01*
X047432Y027207D01*
X047427Y02721D01*
X047422Y027213D01*
X047417Y027216D01*
X04741Y027219D01*
X047404Y027222D01*
X047397Y027225D01*
X047396Y027225D01*
X047395Y027225D01*
X047393Y027226D01*
X047391Y027226D01*
X047387Y027227D01*
X047384Y027228D01*
X04738Y027229D01*
X047375Y02723D01*
X047371Y02723D01*
X047366Y027231D01*
D02*
G37*
G36*
X047368Y025683D02*
X047363D01*
X047358Y025683D01*
X047354Y025682D01*
X047349Y025681D01*
X047345Y025679D01*
X047341Y025677D01*
X047341D01*
X04734Y025677D01*
X04734Y025676D01*
X047339Y025675D01*
X047336Y025673D01*
X047333Y02567D01*
X047331Y025666D01*
X047328Y025661D01*
X047327Y025658D01*
X047327Y025655D01*
X047326Y025652D01*
X047326Y025648D01*
Y025609D01*
X047469Y025561D01*
Y025602D01*
X047469Y025603D01*
X047469Y025605D01*
X047468Y025607D01*
X047468Y025609D01*
X047468Y025612D01*
X047466Y025618D01*
X047463Y025624D01*
X047462Y025627D01*
X04746Y025631D01*
X047458Y025634D01*
X047456Y025637D01*
X047456Y025637D01*
X047455Y025638D01*
X047454Y02564D01*
X047452Y025642D01*
X04745Y025644D01*
X047448Y025646D01*
X047445Y025649D01*
X047441Y025653D01*
X047437Y025656D01*
X047433Y025659D01*
X047429Y025662D01*
X047423Y025666D01*
X047418Y025669D01*
X047412Y025672D01*
X047406Y025674D01*
X047399Y025677D01*
X047398Y025677D01*
X047397Y025678D01*
X047395Y025678D01*
X047393Y025679D01*
X047389Y02568D01*
X047386Y025681D01*
X047382Y025681D01*
X047377Y025682D01*
X047373Y025682D01*
X047368Y025683D01*
D02*
G37*
G36*
X041838Y046123D02*
X041693D01*
Y045993D01*
X041836D01*
X041841Y045994D01*
X041847Y045995D01*
X041853Y045997D01*
X04186Y046D01*
X041867Y046004D01*
X041873Y04601D01*
X041874Y046011D01*
X041877Y046014D01*
X04188Y046018D01*
X041883Y046024D01*
X041887Y046032D01*
X04189Y04604D01*
X041892Y046051D01*
X041893Y046062D01*
Y046064D01*
Y046067D01*
X041892Y046072D01*
X041891Y046078D01*
X041889Y046085D01*
X041885Y046093D01*
X04188Y046101D01*
X041873Y046109D01*
X041873Y04611D01*
X041871Y046111D01*
X041868Y046114D01*
X041864Y046116D01*
X041858Y046119D01*
X041852Y046122D01*
X041846Y046123D01*
X041838Y046123D01*
D02*
G37*
G36*
X041824Y045928D02*
X041693D01*
Y045776D01*
X041828D01*
X04183Y045777D01*
X041837Y045778D01*
X041845Y045779D01*
X041854Y045781D01*
X041864Y045785D01*
X041873Y04579D01*
X041881Y045796D01*
X041882Y045797D01*
X041885Y0458D01*
X041889Y045805D01*
X041892Y045811D01*
X041896Y045819D01*
X0419Y045828D01*
X041903Y045839D01*
X041904Y045851D01*
Y045851D01*
Y045852D01*
Y045854D01*
Y045856D01*
X041902Y045863D01*
X041901Y045871D01*
X041899Y045879D01*
X041895Y045889D01*
X041891Y045898D01*
X041884Y045906D01*
X041883Y045906D01*
X04188Y045909D01*
X041875Y045913D01*
X041868Y045917D01*
X04186Y045921D01*
X041849Y045925D01*
X041837Y045927D01*
X041824Y045928D01*
D02*
G37*
G36*
X039426Y029922D02*
X039352D01*
Y02983D01*
X039428D01*
X039429Y029831D01*
X039433Y029831D01*
X039437Y029832D01*
X039442Y029833D01*
X039447Y029835D01*
X039452Y029837D01*
X039456Y029841D01*
X039457Y029842D01*
X039458Y029843D01*
X03946Y029846D01*
X039463Y02985D01*
X039465Y029855D01*
X039467Y02986D01*
X039468Y029867D01*
X039469Y029875D01*
Y029875D01*
Y029876D01*
Y029877D01*
Y029879D01*
X039468Y029883D01*
X039467Y029888D01*
X039466Y029893D01*
X039464Y029899D01*
X039461Y029904D01*
X039458Y029909D01*
X039457Y02991D01*
X039456Y029911D01*
X039453Y029913D01*
X039449Y029916D01*
X039445Y029918D01*
X039439Y02992D01*
X039433Y029922D01*
X039426Y029922D01*
D02*
G37*
G36*
X039113Y025342D02*
X039063D01*
Y025149D01*
X039115D01*
X039117Y02515D01*
X03912D01*
X039122Y02515D01*
X039128Y025152D01*
X039135Y025153D01*
X039143Y025156D01*
X03915Y025161D01*
X039153Y025163D01*
X039157Y025166D01*
X039157Y025166D01*
X039158Y025168D01*
X039159Y025169D01*
X039161Y025171D01*
X039163Y025174D01*
X039165Y025177D01*
X039168Y025181D01*
X03917Y025186D01*
X039173Y025191D01*
X039175Y025197D01*
X039178Y025204D01*
X03918Y02521D01*
X039182Y025218D01*
X039183Y025226D01*
X039184Y025234D01*
X039184Y025243D01*
Y025244D01*
Y025245D01*
Y025248D01*
X039184Y025252D01*
X039183Y025256D01*
X039183Y025261D01*
X039182Y025267D01*
X039181Y025273D01*
X039179Y025279D01*
X039178Y025285D01*
X039176Y025292D01*
X039173Y025299D01*
X03917Y025305D01*
X039167Y025311D01*
X039163Y025317D01*
X039158Y025322D01*
X039158Y025322D01*
X039157Y025323D01*
X039156Y025324D01*
X039154Y025325D01*
X039153Y025327D01*
X03915Y025328D01*
X039145Y025332D01*
X039138Y025336D01*
X039131Y025339D01*
X039122Y025341D01*
X039118Y025341D01*
X039113Y025342D01*
D02*
G37*
G36*
X039389Y025345D02*
X039387D01*
X039385Y025344D01*
X039382Y025344D01*
X03938Y025344D01*
X039373Y025342D01*
X039365Y02534D01*
X039361Y025338D01*
X039357Y025336D01*
X039353Y025333D01*
X039349Y025331D01*
X039345Y025327D01*
X039341Y025323D01*
X03934Y025323D01*
X03934Y025322D01*
X039339Y025321D01*
X039337Y025319D01*
X039335Y025316D01*
X039333Y025313D01*
X039331Y025309D01*
X039329Y025304D01*
X039326Y025299D01*
X039324Y025294D01*
X039322Y025287D01*
X03932Y02528D01*
X039319Y025273D01*
X039317Y025265D01*
X039317Y025256D01*
X039316Y025246D01*
Y025245D01*
Y025244D01*
Y025241D01*
X039317Y025237D01*
X039317Y025233D01*
X039318Y025228D01*
X039319Y025222D01*
X039319Y025217D01*
X039322Y025204D01*
X039324Y025198D01*
X039327Y025191D01*
X039329Y025185D01*
X039333Y025179D01*
X039336Y025174D01*
X039341Y025169D01*
X039341Y025169D01*
X039342Y025168D01*
X039343Y025167D01*
X039344Y025166D01*
X039347Y025164D01*
X039349Y025162D01*
X039355Y025158D01*
X039362Y025154D01*
X03937Y025151D01*
X039375Y025149D01*
X039379Y025149D01*
X039384Y025148D01*
X039389Y025147D01*
X039392D01*
X039394Y025148D01*
X039396Y025148D01*
X039399Y025149D01*
X039405Y02515D01*
X039413Y025153D01*
X039417Y025154D01*
X039421Y025157D01*
X039425Y025159D01*
X039429Y025162D01*
X039434Y025165D01*
X039438Y025169D01*
X039438Y025169D01*
X039439Y02517D01*
X03944Y025172D01*
X039442Y025174D01*
X039443Y025176D01*
X039445Y02518D01*
X039447Y025184D01*
X03945Y025188D01*
X039452Y025193D01*
X039454Y025199D01*
X039456Y025205D01*
X039458Y025212D01*
X03946Y02522D01*
X039461Y025228D01*
X039462Y025237D01*
X039462Y025246D01*
Y025247D01*
Y025248D01*
Y025251D01*
X039462Y025255D01*
X039461Y025259D01*
X03946Y025264D01*
X03946Y02527D01*
X039459Y025276D01*
X039456Y025288D01*
X039454Y025295D01*
X039452Y025301D01*
X039449Y025307D01*
X039446Y025313D01*
X039442Y025319D01*
X039438Y025323D01*
X039437Y025324D01*
X039436Y025324D01*
X039435Y025325D01*
X039434Y025327D01*
X039432Y025328D01*
X039429Y02533D01*
X039423Y025334D01*
X039416Y025338D01*
X039408Y025341D01*
X039403Y025343D01*
X039399Y025344D01*
X039394Y025344D01*
X039389Y025345D01*
D02*
G37*
G36*
X0386Y046091D02*
X038537Y045918D01*
X038663D01*
X0386Y046091D01*
D02*
G37*
G36*
X039061Y0185D02*
X038981D01*
Y018419D01*
X039068D01*
X039071Y01842D01*
X039074Y01842D01*
X039077Y018421D01*
X039081Y018423D01*
X039085Y018425D01*
X039089Y018429D01*
X039089Y018429D01*
X03909Y018431D01*
X039091Y018433D01*
X039093Y018436D01*
X039095Y01844D01*
X039097Y018445D01*
X039098Y018452D01*
X039098Y018459D01*
Y018459D01*
Y01846D01*
Y018461D01*
Y018462D01*
X039097Y018466D01*
X039097Y01847D01*
X039095Y018475D01*
X039093Y01848D01*
X039091Y018485D01*
X039087Y018489D01*
X039087Y01849D01*
X039085Y018491D01*
X039083Y018493D01*
X03908Y018495D01*
X039076Y018497D01*
X039071Y018499D01*
X039067Y0185D01*
X039061Y0185D01*
D02*
G37*
G36*
X038673Y018499D02*
X038623D01*
Y018306D01*
X038675D01*
X038677Y018307D01*
X03868D01*
X038682Y018307D01*
X038688Y018309D01*
X038695Y01831D01*
X038703Y018313D01*
X03871Y018318D01*
X038713Y01832D01*
X038716Y018323D01*
X038717Y018324D01*
X038718Y018325D01*
X038719Y018326D01*
X038721Y018328D01*
X038723Y018331D01*
X038725Y018334D01*
X038728Y018338D01*
X03873Y018343D01*
X038733Y018348D01*
X038735Y018354D01*
X038738Y018361D01*
X03874Y018368D01*
X038742Y018375D01*
X038743Y018383D01*
X038744Y018391D01*
X038744Y0184D01*
Y018401D01*
Y018403D01*
Y018405D01*
X038744Y018409D01*
X038743Y018413D01*
X038743Y018418D01*
X038742Y018424D01*
X038741Y01843D01*
X038739Y018436D01*
X038738Y018443D01*
X038736Y018449D01*
X038733Y018456D01*
X03873Y018462D01*
X038727Y018468D01*
X038723Y018474D01*
X038718Y018479D01*
X038718Y018479D01*
X038717Y01848D01*
X038716Y018481D01*
X038714Y018482D01*
X038712Y018484D01*
X03871Y018485D01*
X038705Y018489D01*
X038698Y018493D01*
X038691Y018496D01*
X038682Y018498D01*
X038678Y018499D01*
X038673Y018499D01*
D02*
G37*
G36*
X045916Y018733D02*
X045836D01*
Y018652D01*
X045923D01*
X045925Y018653D01*
X045928Y018653D01*
X045932Y018654D01*
X045935Y018656D01*
X045939Y018658D01*
X045943Y018662D01*
X045943Y018662D01*
X045945Y018663D01*
X045946Y018666D01*
X045948Y018669D01*
X04595Y018673D01*
X045951Y018678D01*
X045952Y018685D01*
X045953Y018692D01*
Y018692D01*
Y018693D01*
Y018694D01*
Y018695D01*
X045952Y018699D01*
X045951Y018703D01*
X04595Y018708D01*
X045948Y018713D01*
X045945Y018718D01*
X045942Y018722D01*
X045941Y018723D01*
X04594Y018724D01*
X045937Y018726D01*
X045934Y018728D01*
X045931Y01873D01*
X045926Y018731D01*
X045921Y018733D01*
X045916Y018733D01*
D02*
G37*
G36*
X045367Y018732D02*
X045293D01*
Y01864D01*
X045369D01*
X04537Y018641D01*
X045373Y018641D01*
X045378Y018642D01*
X045383Y018643D01*
X045388Y018645D01*
X045393Y018647D01*
X045397Y018651D01*
X045397Y018652D01*
X045399Y018653D01*
X045401Y018656D01*
X045403Y01866D01*
X045405Y018665D01*
X045408Y01867D01*
X045409Y018677D01*
X045409Y018685D01*
Y018685D01*
Y018686D01*
Y018687D01*
Y018689D01*
X045409Y018693D01*
X045408Y018698D01*
X045407Y018703D01*
X045405Y018709D01*
X045402Y018714D01*
X045399Y018719D01*
X045398Y01872D01*
X045396Y018721D01*
X045393Y018723D01*
X04539Y018726D01*
X045385Y018728D01*
X04538Y01873D01*
X045374Y018731D01*
X045367Y018732D01*
D02*
G37*
G36*
X045473Y02278D02*
X045393D01*
Y022699D01*
X04548D01*
X045483Y0227D01*
X045485Y0227D01*
X045489Y022701D01*
X045493Y022703D01*
X045497Y022705D01*
X0455Y022709D01*
X045501Y022709D01*
X045502Y022711D01*
X045503Y022713D01*
X045505Y022716D01*
X045507Y02272D01*
X045508Y022725D01*
X045509Y022732D01*
X04551Y022739D01*
Y022739D01*
Y02274D01*
Y022741D01*
Y022742D01*
X045509Y022746D01*
X045508Y02275D01*
X045507Y022755D01*
X045505Y02276D01*
X045503Y022765D01*
X045499Y022769D01*
X045499Y02277D01*
X045497Y022771D01*
X045495Y022773D01*
X045492Y022775D01*
X045488Y022777D01*
X045483Y022779D01*
X045478Y02278D01*
X045473Y02278D01*
D02*
G37*
%LPD*%
D10*
X0382Y02085D02*
G03*
X0382Y02085I-0006J0D01*
G01*
Y0298D02*
G03*
X0382Y0298I-0006J0D01*
G01*
Y0254D02*
G03*
X0382Y0254I-0006J0D01*
G01*
X03635Y0196D02*
X03885D01*
Y0221D01*
X03635D02*
X03635Y0196D01*
X03635Y0221D02*
X03885D01*
X03635Y02855D02*
X03885D01*
Y03105D01*
X03635Y02855D02*
Y03105D01*
X03885D01*
X03635Y02665D02*
X03885D01*
X03635Y02415D02*
Y02665D01*
X03885Y02415D02*
Y02665D01*
X03635Y02415D02*
X03885D01*
D11*
X0397Y0214D02*
G03*
X0397Y0214I-00005J0D01*
G01*
X041Y03435D02*
G03*
X041Y03435I-00005J0D01*
G01*
X0442D02*
G03*
X0442Y03435I-00005J0D01*
G01*
X03759Y0343D02*
G03*
X03759Y0343I-00005J0D01*
G01*
X04573Y02611D02*
X04618D01*
X04472D02*
X04517D01*
X0452Y0245D02*
X0457D01*
Y0255D01*
X0452D02*
X0457D01*
X0452Y0245D02*
Y0255D01*
X04472Y02389D02*
Y02611D01*
X04618Y02389D02*
Y02611D01*
X04573Y02389D02*
X04618D01*
X04472D02*
X04517D01*
X037036Y032835D02*
Y034678D01*
Y032835D02*
X037744D01*
Y034678D01*
X037036D02*
X037744D01*
X040446Y032879D02*
Y034721D01*
Y032879D02*
X041154D01*
Y034721D01*
X040446D02*
X041154D01*
X043646Y032885D02*
Y034728D01*
Y032885D02*
X044354D01*
Y034728D01*
X043646D02*
X044354D01*
D12*
X047536Y017828D02*
G03*
X047536Y017828I-00068J0D01*
G01*
X037627Y017822D02*
G03*
X037627Y017822I-00068J0D01*
G01*
X037621Y045644D02*
G03*
X037621Y045644I-00068J0D01*
G01*
X04753Y04565D02*
G03*
X04753Y04565I-00068J0D01*
G01*
D13*
X040451Y019978D02*
G03*
X040451Y019978I-000039J0D01*
G01*
X0457Y019D02*
X04575D01*
X047561Y02517D02*
Y03003D01*
X047217D02*
X047561D01*
X047217Y02516D02*
Y03003D01*
X03938Y01971D02*
X03952Y01985D01*
X039D02*
X03913Y01972D01*
X03938Y01813D02*
Y01971D01*
X03837Y01813D02*
X03938D01*
X03837D02*
Y01869D01*
X03913D01*
Y01972D01*
X0451Y0189D02*
X04575D01*
X0451Y01835D02*
X04615D01*
X0451D02*
Y0189D01*
X04615Y01835D02*
Y019D01*
X04575Y0189D02*
Y019D01*
X04525Y02185D02*
X0459D01*
Y02235D01*
X04525D02*
X0459D01*
X04525Y02245D02*
X0459D01*
Y02295D01*
X04525D02*
X0459D01*
X044695Y020664D02*
Y021136D01*
X044105Y020664D02*
Y021136D01*
X041643Y02443D02*
Y02447D01*
X041957Y02443D02*
Y02447D01*
X03995Y0214D02*
Y0227D01*
X04385Y0227D01*
Y0214D02*
Y0227D01*
X03995Y0214D02*
X04385Y0214D01*
X04125Y03435D02*
X04315D01*
Y03545D01*
X04125Y03545D02*
X04315Y03545D01*
X04125Y03435D02*
X04125Y03545D01*
X04445Y03435D02*
X04635D01*
X04635Y03545D02*
X04635Y03435D01*
X04445Y03545D02*
X04635Y03545D01*
X04445Y03435D02*
Y03545D01*
X04014Y017214D02*
X04014Y016628D01*
X04366D01*
Y017214D01*
X04014Y018761D02*
X04014Y018285D01*
X04366D02*
X04366Y018761D01*
X03784Y0343D02*
X03974D01*
Y0354D01*
X03784Y0354D02*
X03974Y0354D01*
X03784Y0343D02*
X03784Y0354D01*
D14*
X04635Y03258D02*
Y03288D01*
X04675Y03288D01*
Y03258D02*
Y03288D01*
X04635Y03258D02*
X04675Y03258D01*
X0463Y03328D02*
X0463Y03218D01*
X0463Y03328D02*
X0468Y03328D01*
X0468Y03308D02*
X0468Y03328D01*
X0468Y03218D02*
Y03308D01*
X0463Y03218D02*
X0468Y03218D01*
X04668Y03164D02*
X04698D01*
X04668Y03204D02*
X04668Y03164D01*
X04668Y03204D02*
X04698Y03204D01*
Y03164D02*
Y03204D01*
X04628Y03159D02*
X04738Y03159D01*
X04628Y03209D02*
X04628Y03159D01*
X04628Y03209D02*
X04648Y03209D01*
X04738D01*
Y03159D02*
Y03209D01*
X0451Y02015D02*
X0456D01*
X0451Y01925D02*
Y02015D01*
Y01905D02*
Y01925D01*
Y01905D02*
X0456D01*
Y02015D01*
X04515Y01975D02*
X04555D01*
X04515Y01945D02*
Y01975D01*
Y01945D02*
X04555D01*
Y01975D01*
X04515Y0208D02*
Y0211D01*
X04555D01*
Y0208D02*
Y0211D01*
X04515Y0208D02*
X04555D01*
X0451Y0204D02*
Y0215D01*
X0456D01*
Y0213D02*
Y0215D01*
Y0204D02*
Y0213D01*
X0451Y0204D02*
X0456D01*
X04575Y0208D02*
Y0211D01*
X04615Y0211D01*
Y0208D02*
Y0211D01*
X04575Y0208D02*
X04615Y0208D01*
X0457Y0215D02*
X0457Y0204D01*
X0457Y0215D02*
X0462Y0215D01*
X0462Y0213D02*
X0462Y0215D01*
X0462Y0204D02*
Y0213D01*
X0457Y0204D02*
X0462D01*
X0403Y03255D02*
Y03285D01*
X0399Y03255D02*
X0403D01*
X0399D02*
Y03285D01*
X0403D01*
X04035Y03215D02*
Y03325D01*
X03985Y03215D02*
X04035D01*
X03985D02*
Y03235D01*
Y03325D01*
X04035D01*
X04365Y03255D02*
Y03285D01*
X04325Y03255D02*
X04365D01*
X04325D02*
Y03285D01*
X04365D01*
X0437Y03215D02*
Y03325D01*
X0432Y03215D02*
X0437D01*
X0432D02*
Y03235D01*
Y03325D01*
X0437D01*
X04731Y03258D02*
Y03288D01*
X04691Y03258D02*
X04731D01*
X04691D02*
Y03288D01*
X04731D01*
X04736Y03218D02*
Y03328D01*
X04686Y03218D02*
X04736D01*
X04686D02*
Y03238D01*
Y03328D01*
X04736D01*
X0426Y0243D02*
Y0246D01*
X0422Y0243D02*
X0426D01*
X0422D02*
Y0246D01*
X0426D01*
X04265Y0239D02*
Y025D01*
X04215Y0239D02*
X04265D01*
X04215D02*
Y0241D01*
Y025D01*
X04265D01*
X039049Y021412D02*
Y021712D01*
X039449D01*
Y021412D02*
Y021712D01*
X039049Y021412D02*
X039449D01*
X038999Y021012D02*
Y022112D01*
X039499D01*
Y021912D02*
Y022112D01*
Y021012D02*
Y021912D01*
X038999Y021012D02*
X039499D01*
X03751Y02795D02*
X03781D01*
X03751D02*
Y02835D01*
X03781D01*
Y02795D02*
Y02835D01*
X03711Y0279D02*
X03821D01*
X03711D02*
Y0284D01*
X03731D01*
X03821D01*
Y0279D02*
Y0284D01*
X03751Y0223D02*
X03781D01*
X03751D02*
Y0227D01*
X03781D01*
Y0223D02*
Y0227D01*
X03711Y02225D02*
X03821D01*
X03711D02*
Y02275D01*
X03731D01*
X03821D01*
Y02225D02*
Y02275D01*
X03751Y02685D02*
X03781D01*
X03751D02*
Y02725D01*
X03781D01*
Y02685D02*
Y02725D01*
X03711Y0268D02*
X03821D01*
X03711D02*
Y0273D01*
X03731D01*
X03821D01*
Y0268D02*
Y0273D01*
X040847Y024302D02*
Y024602D01*
X040447Y024302D02*
X040847D01*
X040447D02*
Y024602D01*
X040847D01*
X040897Y025002D02*
X040897Y023902D01*
X040397D02*
X040897D01*
X040397D02*
X040397Y024102D01*
X040397Y025002D01*
X040897D01*
X041Y0243D02*
Y0246D01*
X0414D01*
Y0243D02*
Y0246D01*
X041Y0243D02*
X0414D01*
X04095Y0239D02*
X04095Y025D01*
X04145D01*
Y0248D02*
Y025D01*
X04145Y0239D02*
X04145Y0248D01*
X04095Y0239D02*
X04145D01*
D15*
X04643Y02414D02*
X04756D01*
X04758Y01909D02*
Y02515D01*
X04643Y01909D02*
Y02515D01*
X04758D01*
X04643Y01909D02*
X04758D01*
D16*
X04418Y02296D02*
X04508D01*
X04416Y02244D02*
X04506D01*
X04418Y02236D02*
X04508Y02236D01*
X04416Y02184D02*
X04506Y02184D01*
X04621Y01916D02*
Y02006D01*
X04569Y01918D02*
Y02008D01*
X039519Y019997D02*
Y020897D01*
X038999Y020017D02*
Y020917D01*
X03794Y03251D02*
Y03285D01*
X03834Y03251D02*
Y03285D01*
X038Y03703D02*
Y03737D01*
X0385Y03703D02*
Y03737D01*
X0393Y03703D02*
Y03737D01*
X0398Y03703D02*
Y03737D01*
X0432Y03703D02*
Y03737D01*
X0427Y03703D02*
Y03737D01*
X0452Y03703D02*
Y03737D01*
X0447Y03703D02*
Y03737D01*
X0464Y03703D02*
Y03737D01*
X0459Y03703D02*
Y03737D01*
X04195Y03703D02*
Y03737D01*
X04145Y03703D02*
Y03737D01*
X04175Y03256D02*
Y0329D01*
X04135Y03256D02*
Y0329D01*
X04495Y03256D02*
Y0329D01*
X04455Y03256D02*
Y0329D01*
D17*
X04203Y02395D02*
Y02495D01*
X04157Y02395D02*
Y02495D01*
Y02395D02*
X04203D01*
X04157Y02495D02*
X04203D01*
X03916Y02359D02*
X03984D01*
Y02221D02*
Y02359D01*
X03916Y02221D02*
X03984D01*
X03916D02*
Y02359D01*
X03844Y0321D02*
Y0333D01*
X03784D02*
X03844D01*
X03784Y0321D02*
Y0333D01*
Y0321D02*
X03844D01*
X03791Y0379D02*
X03858D01*
Y0365D02*
Y0379D01*
X03791Y0365D02*
X03858D01*
X03791D02*
Y0379D01*
X03921D02*
X03988D01*
Y0365D02*
Y0379D01*
X03921Y0365D02*
X03988D01*
X03921D02*
Y0379D01*
X04261Y0365D02*
Y0379D01*
Y0365D02*
X04328D01*
Y0379D01*
X04261D02*
X04328D01*
X04461Y0365D02*
Y0379D01*
Y0365D02*
X04528D01*
Y0379D01*
X04461D02*
X04528D01*
X04581Y0365D02*
Y0379D01*
Y0365D02*
X04648D01*
Y0379D01*
X04581D02*
X04648D01*
X04136Y0365D02*
Y0379D01*
Y0365D02*
X04203D01*
Y0379D01*
X04136D02*
X04203D01*
X03705Y03481D02*
Y03619D01*
Y03481D02*
X03773D01*
Y03619D01*
X03705D02*
X03773D01*
X04046Y03486D02*
Y03624D01*
Y03486D02*
X04114D01*
Y03624D01*
X04046D02*
X04114D01*
X04125Y03215D02*
X04185D01*
X04125D02*
Y03335D01*
X04185D01*
Y03215D02*
Y03335D01*
X04366Y034864D02*
Y036244D01*
Y034864D02*
X04434D01*
Y036244D01*
X04366D02*
X04434D01*
X04445Y03215D02*
X04505D01*
X04445D02*
Y03335D01*
X04505D01*
Y03215D02*
Y03335D01*
X043653Y024972D02*
X044628Y025947D01*
X044147Y026428D02*
X044628Y025947D01*
X043172Y025453D02*
X044147Y026428D01*
X043172Y025453D02*
X043653Y024972D01*
D18*
X042328Y02573D02*
X043999Y0274D01*
X040101Y0274D02*
X041772Y02573D01*
X042328Y02573D01*
X040101Y0274D02*
X04205Y029349D01*
X043999Y0274D01*
D19*
X039255Y0192D02*
D03*
D20*
Y019715D02*
D03*
D21*
X04545Y025D02*
D03*
M02*
