G04*
G04 #@! TF.GenerationSoftware,Altium Limited,Altium Designer,21.3.2 (30)*
G04*
G04 Layer_Color=16711935*
%FSTAX24Y24*%
%MOIN*%
G70*
G04*
G04 #@! TF.SameCoordinates,BF0EC633-498B-4F46-9C25-626D02BDF3A5*
G04*
G04*
G04 #@! TF.FilePolarity,Negative*
G04*
G01*
G75*
%ADD12C,0.0394*%
%ADD48R,0.0434X0.0316*%
%ADD49R,0.0316X0.0434*%
%ADD53R,0.0474X0.0434*%
%ADD54R,0.0474X0.0395*%
%ADD56R,0.0631X0.0513*%
%ADD62R,0.0363X0.0781*%
%ADD66R,0.0552X0.0946*%
%ADD67R,0.2363X0.2600*%
%ADD70C,0.1261*%
%ADD71O,0.0930X0.0730*%
%ADD72R,0.0930X0.0730*%
%ADD73C,0.1222*%
%ADD74C,0.0336*%
%ADD75O,0.0474X0.0867*%
%ADD76O,0.0493X0.0907*%
%ADD106C,0.0315*%
%ADD107C,0.0472*%
%ADD108C,0.0512*%
%ADD109R,0.0513X0.0395*%
%ADD110R,0.1458X0.1104*%
%ADD111R,0.0426X0.0482*%
%ADD112R,0.0680X0.0730*%
%ADD113R,0.0430X0.0880*%
%ADD114O,0.0430X0.0880*%
%ADD115R,0.0671X0.1480*%
%ADD116O,0.0671X0.1480*%
%ADD117R,0.0630X0.0533*%
%ADD118O,0.0316X0.0789*%
%ADD119R,0.0513X0.0631*%
%ADD120R,0.0671X0.1143*%
D12*
X038141Y036438D02*
X044991Y036447D01*
X038148Y037768D02*
X03815Y036615D01*
D48*
X03995Y02351D02*
D03*
X03995Y024225D02*
D03*
X03935Y02275D02*
D03*
X03935Y023465D02*
D03*
D49*
X038195Y03067D02*
D03*
X03891Y03067D02*
D03*
X036635Y03067D02*
D03*
X03735Y03067D02*
D03*
X038655Y02531D02*
D03*
X03937Y02531D02*
D03*
X038907Y03124D02*
D03*
X038192Y03124D02*
D03*
X037344Y031249D02*
D03*
X036629Y031249D02*
D03*
D53*
X04175Y028345D02*
D03*
Y027715D02*
D03*
D54*
X03871Y025853D02*
D03*
X03871Y026467D02*
D03*
X0381Y028493D02*
D03*
X0381Y029107D02*
D03*
X036597Y029107D02*
D03*
X036597Y028493D02*
D03*
X03715Y029107D02*
D03*
X03715Y028493D02*
D03*
X0393Y024657D02*
D03*
X0393Y024043D02*
D03*
D56*
X04405Y026096D02*
D03*
Y026904D02*
D03*
X04485Y026904D02*
D03*
Y026096D02*
D03*
D62*
X0381Y025662D02*
D03*
X0376D02*
D03*
X0371D02*
D03*
X0366D02*
D03*
X0366Y027638D02*
D03*
X0371Y027638D02*
D03*
X0376Y027638D02*
D03*
X0381Y027638D02*
D03*
D66*
X039498Y03961D02*
D03*
X037702D02*
D03*
X042698D02*
D03*
X040902D02*
D03*
X045898D02*
D03*
X044102D02*
D03*
D67*
X0386Y042091D02*
D03*
X0418D02*
D03*
X045D02*
D03*
D70*
X04685Y04565D02*
D03*
X046856Y017828D02*
D03*
X036947Y017822D02*
D03*
X036941Y045644D02*
D03*
D71*
X047Y02065D02*
D03*
Y02365D02*
D03*
Y02265D02*
D03*
Y02165D02*
D03*
Y01965D02*
D03*
D72*
Y02465D02*
D03*
D73*
X043473Y03105D02*
D03*
X040324D02*
D03*
X0386Y04495D02*
D03*
X0418D02*
D03*
X045D02*
D03*
D74*
X040762Y0191D02*
D03*
X043038D02*
D03*
D75*
X040139Y017651D02*
D03*
X043661D02*
D03*
D76*
X040149Y019297D02*
D03*
X043651D02*
D03*
D106*
X046435Y038825D02*
Y03985D01*
X046374Y038764D02*
X046435Y038825D01*
X04005Y03935D02*
Y03985D01*
X04325Y03935D02*
Y03985D01*
X04005Y038447D02*
Y03935D01*
X04325Y038385D02*
Y03935D01*
X04005Y038447D02*
X040112Y038385D01*
D107*
X045995D02*
X046374Y038764D01*
X038135Y033531D02*
X044991Y033538D01*
X038135Y033531D02*
X038141Y033538D01*
X0373Y033531D02*
X038135D01*
X03673Y034101D02*
X0373Y033531D01*
X03673Y04158D02*
X037241Y042091D01*
X03673Y034101D02*
Y04158D01*
X037241Y042091D02*
X0386D01*
D108*
X040112Y038385D02*
X043085D01*
X045995D01*
D109*
X03865Y02772D02*
D03*
Y02706D02*
D03*
D110*
X03765Y020342D02*
D03*
Y023058D02*
D03*
D111*
X042544Y0201D02*
D03*
X041256D02*
D03*
D112*
X0381Y0244D02*
D03*
X0369D02*
D03*
D113*
X04015Y02035D02*
D03*
D114*
Y0226D02*
D03*
D115*
X044991Y033538D02*
D03*
X04155Y03355D02*
D03*
X038141Y033538D02*
D03*
D116*
X044991Y036438D02*
D03*
X04155Y03645D02*
D03*
X038141Y036438D02*
D03*
D117*
X044838Y027589D02*
D03*
Y028411D02*
D03*
X045966Y030801D02*
D03*
Y029979D02*
D03*
X044038Y028411D02*
D03*
Y027589D02*
D03*
X046766Y030801D02*
D03*
Y029979D02*
D03*
D118*
X04562Y028412D02*
D03*
X04612D02*
D03*
X04662D02*
D03*
X04712D02*
D03*
X04562Y026188D02*
D03*
X04612D02*
D03*
X04662D02*
D03*
X04712D02*
D03*
D119*
X04677Y02929D02*
D03*
X045963D02*
D03*
D120*
X038216Y0383D02*
D03*
X040184D02*
D03*
M02*
