M48
;Layer_Color=9474304
;FILE_FORMAT=2:4
INCH,LZ
;TYPE=PLATED
T1F00S00C0.0118
T3F00S00C0.0360
T4F00S00C0.0394
T5F00S00C0.0787
;TYPE=NON_PLATED
T6F00S00C0.0256
%
T01
X03817Y017582
X03855Y017572
X03895
X03923Y01859
X04047Y01884
X0411Y0186
X0414Y01885
X042Y019
X0427Y0186
X043348Y01884
X0436Y02024
X04486Y0198
X04485Y01773
X04525
X04563Y01772
X04633Y0221
X04555Y02311
X04475Y02323
X04434Y02342
X04421Y0245
X04463
X0451Y02479
X045426Y024976
X045099Y02581
X04451Y02554
X04202Y02539
X04209Y02581
X0418Y025
X042268Y0239
X04137Y02373
X0409Y02375
X039743Y023087
X04007Y02232
X04032Y02197
X03964Y02196
X04182Y02216
X04222Y0218
X04035Y02531
X04062Y02575
X04018Y02602
X03988Y02621
X04113Y02668
X04166Y02665
X041839Y027409
X04151Y02771
X0416Y02847
X04204Y02836
X04201Y02904
X042314Y029223
X042Y02988
X04233Y03117
X043023Y03105
X043155Y030732
X043473Y0306
X043791Y030732
X043923Y03105
X04492Y03045
Y02987
X04421Y02956
X044207Y029157
X04288Y02775
X039121Y02738
X03866Y02905
X03803Y02955
X03761Y0299
X03779Y03024
X037772Y03124
X03888Y03035
X040005Y030732
X039874Y03105
X040324Y0306
X040642Y030732
X040774Y03105
X04007Y02981
X03663Y02972
X03761Y028493
X03671Y02426
X03875Y0245
X03776Y01933
X03773Y0186
X046406Y024046
X04544Y03202
X044986Y03315
X04616Y0331
Y03354
X04299Y03281
X04209Y03282
X041786Y03315
X03954Y03284
X03982Y032114
X040005Y031368
X040324Y0315
X040642Y031368
X04266Y03146
X043155Y031368
X043473Y0315
X043791Y031368
X03814Y03246
X038376Y0331
X03825Y039145
X0386Y039459
X04005Y03935
Y0396
Y03985
X0407Y04034
X0409
X0411
X041757Y039506
X04141Y03906
X04325Y03935
Y0396
Y03985
X0439Y04034
X0441
X0443
X04464Y039072
X04498Y03938
X04645Y03935
Y0396
Y03985
X045318Y044632
X04545Y04495
X045318Y045268
X045Y0454
X044682Y045268
X04455Y04495
X044682Y044632
X045Y0445
X042118Y044632
X04225Y04495
X042118Y045268
X0418Y0454
X041482Y045268
X04135Y04495
X041482Y044632
X0418Y0445
X038918Y044632
X03905Y04495
X038918Y045268
X0386Y0454
X038282Y045268
X03815Y04495
X038282Y044632
X0386Y0445
X0379Y04034
X0377
X0375
T03
X047Y01965
Y02065
Y02165
Y02265
Y02365
Y02465
T04
X040324Y03105
X043473
X045Y04495
X0418
X0386
T05
X036947Y017822
X046856Y017828
X04685Y04565
X036941Y045644
T06
X040762Y0191
X043038
M30
