G04*
G04 #@! TF.GenerationSoftware,Altium Limited,Altium Designer,21.3.2 (30)*
G04*
G04 Layer_Color=255*
%FSTAX24Y24*%
%MOIN*%
G70*
G04*
G04 #@! TF.SameCoordinates,BF0EC633-498B-4F46-9C25-626D02BDF3A5*
G04*
G04*
G04 #@! TF.FilePolarity,Positive*
G04*
G01*
G75*
%ADD22R,0.0591X0.0709*%
%ADD23R,0.0354X0.0236*%
%ADD24R,0.0236X0.0354*%
%ADD25R,0.0709X0.0394*%
%ADD26R,0.0315X0.0472*%
%ADD27R,0.0315X0.0394*%
%ADD28R,0.0394X0.0354*%
%ADD29R,0.0394X0.0315*%
G04:AMPARAMS|DCode=30|XSize=51.2mil|YSize=15.7mil|CornerRadius=0mil|HoleSize=0mil|Usage=FLASHONLY|Rotation=135.000|XOffset=0mil|YOffset=0mil|HoleType=Round|Shape=Rectangle|*
%AMROTATEDRECTD30*
4,1,4,0.0237,-0.0125,0.0125,-0.0237,-0.0237,0.0125,-0.0125,0.0237,0.0237,-0.0125,0.0*
%
%ADD30ROTATEDRECTD30*%

%ADD31R,0.0551X0.0433*%
%ADD32R,0.0236X0.0701*%
%ADD33R,0.0492X0.0453*%
G04:AMPARAMS|DCode=34|XSize=51.2mil|YSize=15.7mil|CornerRadius=0mil|HoleSize=0mil|Usage=FLASHONLY|Rotation=225.000|XOffset=0mil|YOffset=0mil|HoleType=Round|Shape=Rectangle|*
%AMROTATEDRECTD34*
4,1,4,0.0125,0.0237,0.0237,0.0125,-0.0125,-0.0237,-0.0237,-0.0125,0.0125,0.0237,0.0*
%
%ADD34ROTATEDRECTD34*%

%ADD35R,0.0472X0.0300*%
%ADD36R,0.0550X0.0394*%
%ADD37R,0.0283X0.0701*%
%ADD38R,0.0118X0.0591*%
%ADD39R,0.0236X0.0591*%
%ADD40R,0.0858X0.0787*%
%ADD41R,0.0472X0.0866*%
%ADD42R,0.2283X0.2520*%
%ADD43R,0.0402X0.0346*%
G04:AMPARAMS|DCode=44|XSize=43.3mil|YSize=55.1mil|CornerRadius=0mil|HoleSize=0mil|Usage=FLASHONLY|Rotation=45.000|XOffset=0mil|YOffset=0mil|HoleType=Round|Shape=Rectangle|*
%AMROTATEDRECTD44*
4,1,4,0.0042,-0.0348,-0.0348,0.0042,-0.0042,0.0348,0.0348,-0.0042,0.0042,-0.0348,0.0*
%
%ADD44ROTATEDRECTD44*%

%ADD83C,0.1181*%
%ADD84O,0.0850X0.0650*%
%ADD85R,0.0850X0.0650*%
%ADD86C,0.1142*%
%ADD87C,0.0256*%
%ADD88O,0.0394X0.0787*%
%ADD89O,0.0413X0.0827*%
D22*
X0367Y0192D02*
D03*
X0385D02*
D03*
X0367Y0225D02*
D03*
X0385Y0225D02*
D03*
X0367Y02815D02*
D03*
X0385D02*
D03*
X0367Y03145D02*
D03*
X0385D02*
D03*
X0385Y02705D02*
D03*
X0367Y02705D02*
D03*
X0385Y02375D02*
D03*
X0367D02*
D03*
D23*
X04655Y033095D02*
D03*
X04655Y03238D02*
D03*
X04535Y01995D02*
D03*
X04535Y019235D02*
D03*
X04535Y021315D02*
D03*
X04535Y0206D02*
D03*
X04595Y021315D02*
D03*
X04595Y0206D02*
D03*
X0401Y032335D02*
D03*
X0401Y03305D02*
D03*
X04345Y032335D02*
D03*
X04345Y03305D02*
D03*
X04711Y032365D02*
D03*
X04711Y03308D02*
D03*
X0424Y024085D02*
D03*
X0424Y0248D02*
D03*
X039249Y021927D02*
D03*
X039249Y021212D02*
D03*
X040647Y024087D02*
D03*
X040647Y024802D02*
D03*
X0412Y024815D02*
D03*
X0412Y0241D02*
D03*
D24*
X046465Y03184D02*
D03*
X04718Y03184D02*
D03*
X037295Y02815D02*
D03*
X03801Y02815D02*
D03*
X037295Y0225D02*
D03*
X03801Y0225D02*
D03*
X037295Y02705D02*
D03*
X03801Y02705D02*
D03*
D25*
X0444Y021392D02*
D03*
Y020408D02*
D03*
D26*
X04545Y026378D02*
D03*
Y023622D02*
D03*
D27*
X04432Y0227D02*
D03*
X04498D02*
D03*
X04432Y0221D02*
D03*
X04498D02*
D03*
D28*
X0418Y024135D02*
D03*
Y024765D02*
D03*
D29*
X04595Y01992D02*
D03*
Y01926D02*
D03*
X039259Y020757D02*
D03*
X039259Y020097D02*
D03*
D30*
X040268Y028068D02*
D03*
X040046Y027845D02*
D03*
X040491Y028291D02*
D03*
X040714Y028514D02*
D03*
X040936Y028736D02*
D03*
X041159Y028959D02*
D03*
X041382Y029182D02*
D03*
X041605Y029404D02*
D03*
X044054Y026955D02*
D03*
X043832Y026732D02*
D03*
X043609Y026509D02*
D03*
X043386Y026286D02*
D03*
X043164Y026064D02*
D03*
X042941Y025841D02*
D03*
X042718Y025618D02*
D03*
X042495Y025396D02*
D03*
D31*
X0395Y022496D02*
D03*
Y023304D02*
D03*
X03739Y035904D02*
D03*
Y035096D02*
D03*
X0408Y035954D02*
D03*
Y035146D02*
D03*
X044Y035957D02*
D03*
Y03515D02*
D03*
D32*
X04065Y02095D02*
D03*
X04115D02*
D03*
X04165D02*
D03*
X04315D02*
D03*
X04365Y02095D02*
D03*
X04015Y02315D02*
D03*
X04065D02*
D03*
X04115D02*
D03*
X04165D02*
D03*
X04215Y02315D02*
D03*
X04265Y02315D02*
D03*
X04315D02*
D03*
X04365D02*
D03*
X04015Y02095D02*
D03*
X04265D02*
D03*
X04215Y02095D02*
D03*
D33*
X045633Y027794D02*
D03*
X045633Y027106D02*
D03*
X044767D02*
D03*
X044767Y027794D02*
D03*
D34*
X041605Y025396D02*
D03*
X041382Y025618D02*
D03*
X041159Y025841D02*
D03*
X040936Y026064D02*
D03*
X040714Y026286D02*
D03*
X040491Y026509D02*
D03*
X040268Y026732D02*
D03*
X040046Y026955D02*
D03*
X042495Y029404D02*
D03*
X042718Y029182D02*
D03*
X042941Y028959D02*
D03*
X043164Y028736D02*
D03*
X043386Y028514D02*
D03*
X043609Y028291D02*
D03*
X043832Y028068D02*
D03*
X044054Y027845D02*
D03*
D35*
X03814Y0331D02*
D03*
Y03231D02*
D03*
X04155Y03236D02*
D03*
Y03315D02*
D03*
X04475Y03236D02*
D03*
Y03315D02*
D03*
D36*
X03825Y03765D02*
D03*
Y03675D02*
D03*
X03955Y03765D02*
D03*
Y03675D02*
D03*
X04295D02*
D03*
Y03765D02*
D03*
X04495Y03675D02*
D03*
Y03765D02*
D03*
X04615Y03675D02*
D03*
Y03765D02*
D03*
X0417Y03675D02*
D03*
Y03765D02*
D03*
D37*
X04145Y033912D02*
D03*
X04195D02*
D03*
X04245D02*
D03*
X04295D02*
D03*
X04295Y035888D02*
D03*
X04245Y035888D02*
D03*
X04195Y035888D02*
D03*
X04145Y035888D02*
D03*
X04465Y033912D02*
D03*
X04515D02*
D03*
X04565D02*
D03*
X04615D02*
D03*
Y035888D02*
D03*
X04565Y035888D02*
D03*
X04515Y035888D02*
D03*
X04465Y035888D02*
D03*
X03804Y033862D02*
D03*
X03854D02*
D03*
X03904D02*
D03*
X03954D02*
D03*
X03954Y035838D02*
D03*
X03904Y035838D02*
D03*
X03854Y035838D02*
D03*
X03804Y035838D02*
D03*
D38*
X042195Y019683D02*
D03*
X041211D02*
D03*
X042589D02*
D03*
X041408D02*
D03*
X042392D02*
D03*
X041605D02*
D03*
X041802Y019683D02*
D03*
X041998D02*
D03*
D39*
X04064Y019683D02*
D03*
X040955D02*
D03*
X042845D02*
D03*
X04316D02*
D03*
D40*
X039888Y019297D02*
D03*
X043912D02*
D03*
X039888Y01775D02*
D03*
X043912D02*
D03*
D41*
X037702Y03961D02*
D03*
X039498D02*
D03*
X040902D02*
D03*
X042698D02*
D03*
X044102D02*
D03*
X045898D02*
D03*
D42*
X0386Y042091D02*
D03*
X0418D02*
D03*
X045D02*
D03*
D43*
X03739Y033113D02*
D03*
Y0344D02*
D03*
X0408Y033156D02*
D03*
Y034444D02*
D03*
X044Y033163D02*
D03*
Y03445D02*
D03*
D44*
X043615Y025415D02*
D03*
X044185Y025985D02*
D03*
D83*
X04685Y04565D02*
D03*
X046856Y017828D02*
D03*
X036947Y017822D02*
D03*
X036941Y045644D02*
D03*
D84*
X047Y02065D02*
D03*
Y02365D02*
D03*
Y02265D02*
D03*
Y02165D02*
D03*
Y01965D02*
D03*
D85*
Y02465D02*
D03*
D86*
X043473Y03105D02*
D03*
X040324D02*
D03*
X0386Y04495D02*
D03*
X0418D02*
D03*
X045D02*
D03*
D87*
X040762Y0191D02*
D03*
X043038D02*
D03*
D88*
X040139Y017651D02*
D03*
X043661D02*
D03*
D89*
X040149Y019297D02*
D03*
X043651D02*
D03*
M02*
